<svg width="118" height="117" viewBox="0 0 118 117" fill="none" xmlns="http://www.w3.org/2000/svg">
<g filter="url(#filter0_d_829_2212)">
<path fill-rule="evenodd" clip-rule="evenodd" d="M102.408 57.3477L100.412 57.2188C100.471 56.3203 100.5 55.4137 100.5 54.5C100.5 53.5863 100.471 52.6797 100.412 51.7812L102.408 51.6522C102.469 52.5937 102.5 53.5432 102.5 54.5C102.5 55.4568 102.469 56.4063 102.408 57.3477ZM101.672 46.0105L99.71 46.3986C99.3555 44.6064 98.8856 42.8559 98.3083 41.155L100.202 40.5123C100.808 42.2958 101.3 44.1314 101.672 46.0105ZM98.0227 35.2563L96.2296 36.1422C95.4246 34.5128 94.5155 32.9436 93.5112 31.4434L95.1731 30.3307C96.2258 31.9031 97.1787 33.548 98.0227 35.2563ZM91.7056 25.8182L90.2024 27.1375C89.0072 25.7757 87.7243 24.4928 86.3625 23.2976L87.6818 21.7944C89.1088 23.0469 90.4532 24.3912 91.7056 25.8182ZM83.1693 18.3269L82.0566 19.9888C80.5564 18.9844 78.9872 18.0754 77.3578 17.2704L78.2437 15.4773C79.952 16.3213 81.5969 17.2742 83.1693 18.3269ZM72.9877 13.2978L72.345 15.1917C70.6441 14.6144 68.8936 14.1445 67.1014 13.79L67.4895 11.828C69.3686 12.1997 71.2042 12.6925 72.9877 13.2978ZM61.8477 11.0917L61.7188 13.0876C60.8203 13.0295 59.9137 13 59 13C58.0863 13 57.1797 13.0295 56.2812 13.0876L56.1522 11.0917C57.0937 11.0309 58.0432 11 59 11C59.9568 11 60.9063 11.0309 61.8477 11.0917ZM50.5105 11.828L50.8986 13.79C49.1064 14.1445 47.3559 14.6144 45.655 15.1917L45.0123 13.2978C46.7958 12.6925 48.6314 12.1997 50.5105 11.828ZM39.7563 15.4773L40.6422 17.2704C39.0128 18.0754 37.4436 18.9844 35.9434 19.9888L34.8307 18.3269C36.4031 17.2742 38.048 16.3213 39.7563 15.4773ZM30.3182 21.7944L31.6375 23.2976C30.2757 24.4928 28.9928 25.7757 27.7976 27.1375L26.2944 25.8182C27.5469 24.3912 28.8912 23.0468 30.3182 21.7944ZM22.8269 30.3307L24.4888 31.4434C23.4844 32.9436 22.5754 34.5128 21.7704 36.1422L19.9773 35.2563C20.8213 33.548 21.7742 31.9031 22.8269 30.3307ZM17.7978 40.5123L19.6917 41.155C19.1144 42.8559 18.6445 44.6064 18.29 46.3986L16.328 46.0105C16.6997 44.1314 17.1925 42.2958 17.7978 40.5123ZM15.5917 51.6522C15.5309 52.5937 15.5 53.5432 15.5 54.5C15.5 55.4568 15.5309 56.4063 15.5917 57.3478L17.5876 57.2188C17.5295 56.3203 17.5 55.4137 17.5 54.5C17.5 53.5863 17.5295 52.6797 17.5876 51.7812L15.5917 51.6522ZM16.328 62.9895L18.29 62.6014C18.6445 64.3936 19.1144 66.1441 19.6917 67.845L17.7978 68.4877C17.1925 66.7042 16.6997 64.8686 16.328 62.9895ZM19.9773 73.7437L21.7704 72.8578C22.5754 74.4872 23.4844 76.0564 24.4888 77.5566L22.8269 78.6693C21.7742 77.0969 20.8213 75.452 19.9773 73.7437ZM26.2944 83.1818L27.7976 81.8625C28.9928 83.2243 30.2757 84.5072 31.6375 85.7024L30.3182 87.2056C28.8912 85.9531 27.5468 84.6088 26.2944 83.1818ZM34.8307 90.6731L35.9434 89.0112C37.4436 90.0155 39.0128 90.9246 40.6422 91.7296L39.7563 93.5227C38.048 92.6787 36.4031 91.7258 34.8307 90.6731ZM45.0123 95.7022L45.655 93.8083C47.3559 94.3856 49.1064 94.8555 50.8986 95.21L50.5105 97.172C48.6314 96.8003 46.7958 96.3075 45.0123 95.7022ZM56.1523 97.9083L56.2812 95.9124C57.1797 95.9705 58.0863 96 59 96C59.9137 96 60.8203 95.9705 61.7188 95.9124L61.8478 97.9083C60.9063 97.9691 59.9568 98 59 98C58.0432 98 57.0937 97.9691 56.1523 97.9083ZM67.4895 97.172L67.1014 95.21C68.8936 94.8555 70.6441 94.3856 72.345 93.8083L72.9877 95.7022C71.2042 96.3075 69.3686 96.8003 67.4895 97.172ZM78.2437 93.5227L77.3578 91.7296C78.9872 90.9246 80.5564 90.0155 82.0566 89.0112L83.1693 90.6731C81.5969 91.7258 79.952 92.6787 78.2437 93.5227ZM87.6818 87.2056L86.3625 85.7024C87.7243 84.5072 89.0072 83.2243 90.2024 81.8625L91.7056 83.1818C90.4531 84.6088 89.1088 85.9532 87.6818 87.2056ZM95.1731 78.6693L93.5112 77.5566C94.5155 76.0564 95.4246 74.4872 96.2296 72.8578L98.0227 73.7437C97.1787 75.452 96.2258 77.0969 95.1731 78.6693ZM100.202 68.4877L98.3083 67.845C98.8856 66.1441 99.3555 64.3936 99.71 62.6014L101.672 62.9895C101.3 64.8686 100.808 66.7042 100.202 68.4877Z" fill="#F2C94C"/>
<path d="M52.6094 34.3125H80.5V33H52.6094C51.7051 33 50.9687 33.7363 50.9687 34.6406C50.9687 35.0114 51.0967 35.35 51.3054 35.625C51.0967 35.9 50.9687 36.2386 50.9687 36.6094C50.9687 36.9802 51.0967 37.3188 51.3054 37.5938C51.0967 37.8687 50.9687 38.2073 50.9687 38.5781C50.9687 39.4824 51.7051 40.2187 52.6094 40.2187H56.9242C56.4602 41.0601 56.2188 41.9873 56.2188 42.9553C56.2188 44.8112 57.0784 46.5247 58.5767 47.6573C58.6731 47.7302 58.7762 47.7866 58.8825 47.8332C58.4454 48.4678 58.1875 49.235 58.1875 50.0625C58.1875 50.7798 58.3837 51.4511 58.7204 52.0312H54.25C54.25 48.7749 51.6001 46.125 48.3438 46.125C47.9815 46.125 47.6875 46.419 47.6875 46.7812V52.0608C44.0132 52.3935 41.125 55.4903 41.125 59.25H40.4687C39.3833 59.25 38.5 60.1333 38.5 61.2187V63.8437C38.5 64.9292 39.3833 65.8125 40.4687 65.8125H41.1545C41.4676 69.2709 44.2291 72.0324 47.6875 72.3455V73.0312C47.6875 74.1167 48.5708 75 49.6562 75H52.2812C53.3667 75 54.25 74.1167 54.25 73.0312V72.375H64.75V73.0312C64.75 74.1167 65.6333 75 66.7187 75H69.3437C70.4292 75 71.3125 74.1167 71.3125 73.0312V72.3455C74.9868 72.0128 77.875 68.9159 77.875 65.1562V59.25C77.875 57.8325 77.4583 56.5134 76.7502 55.3965L78.9952 53.1515L78.0673 52.2235L75.941 54.3491C74.622 52.9277 72.7444 52.0312 70.6562 52.0312H65.5296C65.8663 51.4511 66.0625 50.7798 66.0625 50.0625C66.0625 49.235 65.8046 48.4672 65.3669 47.8326C65.4738 47.7853 65.5775 47.7295 65.6733 47.6573C67.1716 46.5253 68.0312 44.8112 68.0312 42.9553C68.0312 41.9873 67.7897 41.0601 67.3258 40.2187H80.5V38.9062H66.0625C65.8046 38.9062 65.5703 39.0578 65.464 39.2921C65.3577 39.5271 65.399 39.8027 65.5703 39.9963C66.3322 40.8612 66.7187 41.8567 66.7187 42.9553C66.7187 44.3958 66.0494 45.728 64.8826 46.61C64.8432 46.6395 64.7992 46.6539 64.7513 46.6539C64.7185 46.6539 64.6352 46.6454 64.5754 46.5667C64.5026 46.4708 64.5216 46.3337 64.6181 46.2608C65.6753 45.4622 66.2817 44.2573 66.2817 42.9547C66.2817 40.663 64.4173 38.7986 62.1257 38.7986C59.834 38.7986 57.969 40.663 57.969 42.9547C57.969 44.2567 58.5753 45.4615 59.6326 46.2602C59.7284 46.333 59.7481 46.4702 59.6752 46.5667C59.603 46.6631 59.4639 46.6828 59.3687 46.6093C58.2006 45.7286 57.5312 44.3964 57.5312 42.9553C57.5312 41.8561 57.9178 40.8606 58.6797 39.9963C58.8503 39.8027 58.8917 39.5271 58.786 39.2921C58.679 39.0578 58.4454 38.9062 58.1875 38.9062H52.6094C52.4282 38.9062 52.2812 38.7592 52.2812 38.5781C52.2812 38.397 52.4282 38.25 52.6094 38.25H62.7812V36.9375H52.6094C52.4282 36.9375 52.2812 36.7905 52.2812 36.6094C52.2812 36.4282 52.4282 36.2812 52.6094 36.2812H62.7812V34.9687H52.6094C52.4282 34.9687 52.2812 34.8217 52.2812 34.6406C52.2812 34.4595 52.4282 34.3125 52.6094 34.3125ZM64.75 50.0625C64.75 51.5102 63.5727 52.6875 62.125 52.6875C60.6773 52.6875 59.5 51.5102 59.5 50.0625C59.5 48.6148 60.6773 47.4375 62.125 47.4375C63.5727 47.4375 64.75 48.6148 64.75 50.0625ZM76.5625 59.25V65.1562C76.5625 68.4126 73.9126 71.0625 70.6562 71.0625C70.294 71.0625 70 71.3565 70 71.7188V73.0312C70 73.3928 69.7053 73.6875 69.3437 73.6875H66.7187C66.3572 73.6875 66.0625 73.3928 66.0625 73.0312V71.7188C66.0625 71.3565 65.7685 71.0625 65.4062 71.0625H53.5937C53.2315 71.0625 52.9375 71.3565 52.9375 71.7188V73.0312C52.9375 73.3928 52.6428 73.6875 52.2812 73.6875H49.6562C49.2947 73.6875 49 73.3928 49 73.0312V71.7188C49 71.3565 48.706 71.0625 48.3438 71.0625C45.0874 71.0625 42.4375 68.4126 42.4375 65.1562C42.4375 64.794 42.1435 64.5 41.7812 64.5H40.4687C40.1072 64.5 39.8125 64.2053 39.8125 63.8437V61.2187C39.8125 60.8572 40.1072 60.5625 40.4687 60.5625H41.7812C42.1435 60.5625 42.4375 60.2685 42.4375 59.9062V59.25C42.4375 55.9937 45.0874 53.3438 48.3438 53.3438C48.706 53.3438 49 53.0497 49 52.6875V47.4841C51.2234 47.8037 52.9375 49.7206 52.9375 52.0312V52.6875C52.9375 53.0497 53.2315 53.3438 53.5937 53.3438H59.9528C60.5762 53.7578 61.3224 54 62.125 54C62.9276 54 63.6737 53.7578 64.2972 53.3438H70.6562C73.9126 53.3438 76.5625 55.9937 76.5625 59.25ZM59.2808 42.9553C59.2808 41.3869 60.5566 40.1118 62.125 40.1118C63.6934 40.1118 64.9685 41.3875 64.9685 42.9553C64.9685 43.8426 64.5525 44.6655 63.826 45.2141C63.4716 45.4819 63.2715 45.875 63.2308 46.2858C62.8797 46.1827 62.5096 46.125 62.125 46.125C61.7404 46.125 61.3697 46.1827 61.0186 46.2858C60.9779 45.8756 60.7777 45.4819 60.4233 45.2141C59.6975 44.6655 59.2808 43.8426 59.2808 42.9553Z" fill="black"/>
<path d="M47.0312 56.625C45.9458 56.625 45.0625 57.5083 45.0625 58.5937C45.0625 59.6792 45.9458 60.5625 47.0312 60.5625C48.1167 60.5625 49 59.6792 49 58.5937C49 57.5083 48.1167 56.625 47.0312 56.625ZM47.0312 59.25C46.6697 59.25 46.375 58.9553 46.375 58.5937C46.375 58.2322 46.6697 57.9375 47.0312 57.9375C47.3928 57.9375 47.6875 58.2322 47.6875 58.5937C47.6875 58.9553 47.3928 59.25 47.0312 59.25Z" fill="black"/>
<path d="M58.1875 54.6562C57.1021 54.6562 56.2188 55.5396 56.2188 56.625C56.2188 57.7104 57.1021 58.5937 58.1875 58.5937H66.0625C67.1479 58.5937 68.0312 57.7104 68.0312 56.625C68.0312 55.5396 67.1479 54.6562 66.0625 54.6562H58.1875ZM66.7187 56.625C66.7187 56.9866 66.4241 57.2812 66.0625 57.2812H58.1875C57.8259 57.2812 57.5312 56.9866 57.5312 56.625C57.5312 56.2634 57.8259 55.9687 58.1875 55.9687H66.0625C66.4241 55.9687 66.7187 56.2634 66.7187 56.625Z" fill="black"/>
</g>
<defs>
<filter id="filter0_d_829_2212" x="0.5" y="0" width="117" height="117" filterUnits="userSpaceOnUse" color-interpolation-filters="sRGB">
<feFlood flood-opacity="0" result="BackgroundImageFix"/>
<feColorMatrix in="SourceAlpha" type="matrix" values="0 0 0 0 0 0 0 0 0 0 0 0 0 0 0 0 0 0 127 0" result="hardAlpha"/>
<feOffset dy="4"/>
<feGaussianBlur stdDeviation="7.5"/>
<feColorMatrix type="matrix" values="0 0 0 0 0.425 0 0 0 0 0.413171 0 0 0 0 0.129271 0 0 0 0.15 0"/>
<feBlend mode="normal" in2="BackgroundImageFix" result="effect1_dropShadow_829_2212"/>
<feBlend mode="normal" in="SourceGraphic" in2="effect1_dropShadow_829_2212" result="shape"/>
</filter>
</defs>
</svg>
