<svg width="118" height="117" viewBox="0 0 118 117" fill="none" xmlns="http://www.w3.org/2000/svg">
<g filter="url(#filter0_d_829_2217)">
<path fill-rule="evenodd" clip-rule="evenodd" d="M102.408 57.3477L100.412 57.2188C100.471 56.3203 100.5 55.4137 100.5 54.5C100.5 53.5863 100.471 52.6797 100.412 51.7812L102.408 51.6522C102.469 52.5937 102.5 53.5432 102.5 54.5C102.5 55.4568 102.469 56.4063 102.408 57.3477ZM101.672 46.0105L99.71 46.3986C99.3555 44.6064 98.8856 42.8559 98.3083 41.155L100.202 40.5123C100.808 42.2958 101.3 44.1314 101.672 46.0105ZM98.0227 35.2563L96.2296 36.1422C95.4246 34.5128 94.5155 32.9436 93.5112 31.4434L95.1731 30.3307C96.2258 31.9031 97.1787 33.548 98.0227 35.2563ZM91.7056 25.8182L90.2024 27.1375C89.0072 25.7757 87.7243 24.4928 86.3625 23.2976L87.6818 21.7944C89.1088 23.0469 90.4532 24.3912 91.7056 25.8182ZM83.1693 18.3269L82.0566 19.9888C80.5564 18.9844 78.9872 18.0754 77.3578 17.2704L78.2437 15.4773C79.952 16.3213 81.5969 17.2742 83.1693 18.3269ZM72.9877 13.2978L72.345 15.1917C70.6441 14.6144 68.8936 14.1445 67.1014 13.79L67.4895 11.828C69.3686 12.1997 71.2042 12.6925 72.9877 13.2978ZM61.8477 11.0917L61.7188 13.0876C60.8203 13.0295 59.9137 13 59 13C58.0863 13 57.1797 13.0295 56.2812 13.0876L56.1522 11.0917C57.0937 11.0309 58.0432 11 59 11C59.9568 11 60.9063 11.0309 61.8477 11.0917ZM50.5105 11.828L50.8986 13.79C49.1064 14.1445 47.3559 14.6144 45.655 15.1917L45.0123 13.2978C46.7958 12.6925 48.6314 12.1997 50.5105 11.828ZM39.7563 15.4773L40.6422 17.2704C39.0128 18.0754 37.4436 18.9844 35.9434 19.9888L34.8307 18.3269C36.4031 17.2742 38.048 16.3213 39.7563 15.4773ZM30.3182 21.7944L31.6375 23.2976C30.2757 24.4928 28.9928 25.7757 27.7976 27.1375L26.2944 25.8182C27.5469 24.3912 28.8912 23.0468 30.3182 21.7944ZM22.8269 30.3307L24.4888 31.4434C23.4844 32.9436 22.5754 34.5128 21.7704 36.1422L19.9773 35.2563C20.8213 33.548 21.7742 31.9031 22.8269 30.3307ZM17.7978 40.5123L19.6917 41.155C19.1144 42.8559 18.6445 44.6064 18.29 46.3986L16.328 46.0105C16.6997 44.1314 17.1925 42.2958 17.7978 40.5123ZM15.5917 51.6522C15.5309 52.5937 15.5 53.5432 15.5 54.5C15.5 55.4568 15.5309 56.4063 15.5917 57.3478L17.5876 57.2188C17.5295 56.3203 17.5 55.4137 17.5 54.5C17.5 53.5863 17.5295 52.6797 17.5876 51.7812L15.5917 51.6522ZM16.328 62.9895L18.29 62.6014C18.6445 64.3936 19.1144 66.1441 19.6917 67.845L17.7978 68.4877C17.1925 66.7042 16.6997 64.8686 16.328 62.9895ZM19.9773 73.7437L21.7704 72.8578C22.5754 74.4872 23.4844 76.0564 24.4888 77.5566L22.8269 78.6693C21.7742 77.0969 20.8213 75.452 19.9773 73.7437ZM26.2944 83.1818L27.7976 81.8625C28.9928 83.2243 30.2757 84.5072 31.6375 85.7024L30.3182 87.2056C28.8912 85.9531 27.5468 84.6088 26.2944 83.1818ZM34.8307 90.6731L35.9434 89.0112C37.4436 90.0155 39.0128 90.9246 40.6422 91.7296L39.7563 93.5227C38.048 92.6787 36.4031 91.7258 34.8307 90.6731ZM45.0123 95.7022L45.655 93.8083C47.3559 94.3856 49.1064 94.8555 50.8986 95.21L50.5105 97.172C48.6314 96.8003 46.7958 96.3075 45.0123 95.7022ZM56.1523 97.9083L56.2812 95.9124C57.1797 95.9705 58.0863 96 59 96C59.9137 96 60.8203 95.9705 61.7188 95.9124L61.8478 97.9083C60.9063 97.9691 59.9568 98 59 98C58.0432 98 57.0937 97.9691 56.1523 97.9083ZM67.4895 97.172L67.1014 95.21C68.8936 94.8555 70.6441 94.3856 72.345 93.8083L72.9877 95.7022C71.2042 96.3075 69.3686 96.8003 67.4895 97.172ZM78.2437 93.5227L77.3578 91.7296C78.9872 90.9246 80.5564 90.0155 82.0566 89.0112L83.1693 90.6731C81.5969 91.7258 79.952 92.6787 78.2437 93.5227ZM87.6818 87.2056L86.3625 85.7024C87.7243 84.5072 89.0072 83.2243 90.2024 81.8625L91.7056 83.1818C90.4531 84.6088 89.1088 85.9532 87.6818 87.2056ZM95.1731 78.6693L93.5112 77.5566C94.5155 76.0564 95.4246 74.4872 96.2296 72.8578L98.0227 73.7437C97.1787 75.452 96.2258 77.0969 95.1731 78.6693ZM100.202 68.4877L98.3083 67.845C98.8856 66.1441 99.3555 64.3936 99.71 62.6014L101.672 62.9895C101.3 64.8686 100.808 66.7042 100.202 68.4877Z" fill="#F2C94C"/>
<path d="M47.625 53.75H54.5C54.845 53.75 55.125 53.47 55.125 53.125V47.5C55.125 47.155 54.845 46.875 54.5 46.875H53.25C49.8038 46.875 47 49.6788 47 53.125C47 53.47 47.28 53.75 47.625 53.75ZM53.25 48.125H53.875V52.5H48.2887C48.5975 50.0369 50.705 48.125 53.25 48.125Z" fill="black"/>
<path d="M54.5 55H52V56.25H54.5V55Z" fill="black"/>
<path d="M76.375 35H57C56.9944 35 56.99 35.0031 56.9844 35.0031C56.9112 35.005 56.84 35.0194 56.7712 35.0462C56.7556 35.0525 56.7419 35.0612 56.7269 35.0687C56.6981 35.0831 56.6681 35.0944 56.6413 35.1131L50.3913 39.4881C50.2244 39.605 50.125 39.7962 50.125 40V42.5C50.125 42.845 50.405 43.125 50.75 43.125H56.375V44.375H53.25C48.425 44.375 44.5 48.3 44.5 53.125V55.6594C41.6913 55.9712 39.5 58.3594 39.5 61.25V65.625C39.5 67.3481 40.9019 68.75 42.625 68.75H45.8C46.105 70.8669 47.9256 72.5 50.125 72.5C52.3244 72.5 54.145 70.8669 54.45 68.75H67.05C67.355 70.8669 69.1756 72.5 71.375 72.5C73.5744 72.5 75.395 70.8669 75.7 68.75H76.375C78.0981 68.75 79.5 67.3481 79.5 65.625V38.125C79.5 36.4019 78.0981 35 76.375 35ZM57.625 54.375H78.25V55.625H57.625V54.375ZM57.625 56.875H78.25V60H57.625V56.875ZM78.25 38.125V53.125H57.625V36.25H76.375C77.4087 36.25 78.25 37.0912 78.25 38.125ZM51.375 41.875V40.3256L56.375 36.8256V41.875H51.375ZM40.75 62.5H42C42.6894 62.5 43.25 63.0606 43.25 63.75C43.25 64.4394 42.6894 65 42 65H40.75V62.5ZM40.865 66.25H42C43.3788 66.25 44.5 65.1287 44.5 63.75C44.5 62.3713 43.3788 61.25 42 61.25H40.75C40.75 58.8375 42.7125 56.875 45.125 56.875C45.47 56.875 45.75 56.595 45.75 56.25V53.125C45.75 48.9894 49.1144 45.625 53.25 45.625H56.375V67.5H54.45C54.145 65.3831 52.3244 63.75 50.125 63.75C47.925 63.75 46.105 65.3831 45.8 67.5H42.625C41.8112 67.5 41.1237 66.9756 40.865 66.25ZM50.125 71.25C48.4019 71.25 47 69.8481 47 68.125C47 66.4019 48.4019 65 50.125 65C51.8481 65 53.25 66.4019 53.25 68.125C53.25 69.8481 51.8481 71.25 50.125 71.25ZM71.375 71.25C69.6519 71.25 68.25 69.8481 68.25 68.125C68.25 66.4019 69.6519 65 71.375 65C73.0981 65 74.5 66.4019 74.5 68.125C74.5 69.8481 73.0981 71.25 71.375 71.25ZM78.25 65.625C78.25 66.6588 77.4087 67.5 76.375 67.5H75.7C75.395 65.3831 73.5744 63.75 71.375 63.75C69.175 63.75 67.355 65.3831 67.05 67.5H57.625V61.25H78.25V65.625Z" fill="black"/>
</g>
<defs>
<filter id="filter0_d_829_2217" x="0.5" y="0" width="117" height="117" filterUnits="userSpaceOnUse" color-interpolation-filters="sRGB">
<feFlood flood-opacity="0" result="BackgroundImageFix"/>
<feColorMatrix in="SourceAlpha" type="matrix" values="0 0 0 0 0 0 0 0 0 0 0 0 0 0 0 0 0 0 127 0" result="hardAlpha"/>
<feOffset dy="4"/>
<feGaussianBlur stdDeviation="7.5"/>
<feColorMatrix type="matrix" values="0 0 0 0 0.425 0 0 0 0 0.413171 0 0 0 0 0.129271 0 0 0 0.15 0"/>
<feBlend mode="normal" in2="BackgroundImageFix" result="effect1_dropShadow_829_2217"/>
<feBlend mode="normal" in="SourceGraphic" in2="effect1_dropShadow_829_2217" result="shape"/>
</filter>
</defs>
</svg>
