<svg width="118" height="117" viewBox="0 0 118 117" fill="none" xmlns="http://www.w3.org/2000/svg">
<g filter="url(#filter0_d_829_2207)">
<path fill-rule="evenodd" clip-rule="evenodd" d="M102.408 57.3477L100.412 57.2188C100.471 56.3203 100.5 55.4137 100.5 54.5C100.5 53.5863 100.471 52.6797 100.412 51.7812L102.408 51.6522C102.469 52.5937 102.5 53.5432 102.5 54.5C102.5 55.4568 102.469 56.4063 102.408 57.3477ZM101.672 46.0105L99.71 46.3986C99.3555 44.6064 98.8856 42.8559 98.3083 41.155L100.202 40.5123C100.808 42.2958 101.3 44.1314 101.672 46.0105ZM98.0227 35.2563L96.2296 36.1422C95.4246 34.5128 94.5155 32.9436 93.5112 31.4434L95.1731 30.3307C96.2258 31.9031 97.1787 33.548 98.0227 35.2563ZM91.7056 25.8182L90.2024 27.1375C89.0072 25.7757 87.7243 24.4928 86.3625 23.2976L87.6818 21.7944C89.1088 23.0469 90.4532 24.3912 91.7056 25.8182ZM83.1693 18.3269L82.0566 19.9888C80.5564 18.9844 78.9872 18.0754 77.3578 17.2704L78.2437 15.4773C79.952 16.3213 81.5969 17.2742 83.1693 18.3269ZM72.9877 13.2978L72.345 15.1917C70.6441 14.6144 68.8936 14.1445 67.1014 13.79L67.4895 11.828C69.3686 12.1997 71.2042 12.6925 72.9877 13.2978ZM61.8477 11.0917L61.7188 13.0876C60.8203 13.0295 59.9137 13 59 13C58.0863 13 57.1797 13.0295 56.2812 13.0876L56.1522 11.0917C57.0937 11.0309 58.0432 11 59 11C59.9568 11 60.9063 11.0309 61.8477 11.0917ZM50.5105 11.828L50.8986 13.79C49.1064 14.1445 47.3559 14.6144 45.655 15.1917L45.0123 13.2978C46.7958 12.6925 48.6314 12.1997 50.5105 11.828ZM39.7563 15.4773L40.6422 17.2704C39.0128 18.0754 37.4436 18.9844 35.9434 19.9888L34.8307 18.3269C36.4031 17.2742 38.048 16.3213 39.7563 15.4773ZM30.3182 21.7944L31.6375 23.2976C30.2757 24.4928 28.9928 25.7757 27.7976 27.1375L26.2944 25.8182C27.5469 24.3912 28.8912 23.0468 30.3182 21.7944ZM22.8269 30.3307L24.4888 31.4434C23.4844 32.9436 22.5754 34.5128 21.7704 36.1422L19.9773 35.2563C20.8213 33.548 21.7742 31.9031 22.8269 30.3307ZM17.7978 40.5123L19.6917 41.155C19.1144 42.8559 18.6445 44.6064 18.29 46.3986L16.328 46.0105C16.6997 44.1314 17.1925 42.2958 17.7978 40.5123ZM15.5917 51.6522C15.5309 52.5937 15.5 53.5432 15.5 54.5C15.5 55.4568 15.5309 56.4063 15.5917 57.3478L17.5876 57.2188C17.5295 56.3203 17.5 55.4137 17.5 54.5C17.5 53.5863 17.5295 52.6797 17.5876 51.7812L15.5917 51.6522ZM16.328 62.9895L18.29 62.6014C18.6445 64.3936 19.1144 66.1441 19.6917 67.845L17.7978 68.4877C17.1925 66.7042 16.6997 64.8686 16.328 62.9895ZM19.9773 73.7437L21.7704 72.8578C22.5754 74.4872 23.4844 76.0564 24.4888 77.5566L22.8269 78.6693C21.7742 77.0969 20.8213 75.452 19.9773 73.7437ZM26.2944 83.1818L27.7976 81.8625C28.9928 83.2243 30.2757 84.5072 31.6375 85.7024L30.3182 87.2056C28.8912 85.9531 27.5468 84.6088 26.2944 83.1818ZM34.8307 90.6731L35.9434 89.0112C37.4436 90.0155 39.0128 90.9246 40.6422 91.7296L39.7563 93.5227C38.048 92.6787 36.4031 91.7258 34.8307 90.6731ZM45.0123 95.7022L45.655 93.8083C47.3559 94.3856 49.1064 94.8555 50.8986 95.21L50.5105 97.172C48.6314 96.8003 46.7958 96.3075 45.0123 95.7022ZM56.1523 97.9083L56.2812 95.9124C57.1797 95.9705 58.0863 96 59 96C59.9137 96 60.8203 95.9705 61.7188 95.9124L61.8478 97.9083C60.9063 97.9691 59.9568 98 59 98C58.0432 98 57.0937 97.9691 56.1523 97.9083ZM67.4895 97.172L67.1014 95.21C68.8936 94.8555 70.6441 94.3856 72.345 93.8083L72.9877 95.7022C71.2042 96.3075 69.3686 96.8003 67.4895 97.172ZM78.2437 93.5227L77.3578 91.7296C78.9872 90.9246 80.5564 90.0155 82.0566 89.0112L83.1693 90.6731C81.5969 91.7258 79.952 92.6787 78.2437 93.5227ZM87.6818 87.2056L86.3625 85.7024C87.7243 84.5072 89.0072 83.2243 90.2024 81.8625L91.7056 83.1818C90.4531 84.6088 89.1088 85.9532 87.6818 87.2056ZM95.1731 78.6693L93.5112 77.5566C94.5155 76.0564 95.4246 74.4872 96.2296 72.8578L98.0227 73.7437C97.1787 75.452 96.2258 77.0969 95.1731 78.6693ZM100.202 68.4877L98.3083 67.845C98.8856 66.1441 99.3555 64.3936 99.71 62.6014L101.672 62.9895C101.3 64.8686 100.808 66.7042 100.202 68.4877Z" fill="#F2C94C"/>
<mask id="path-2-inside-1_829_2207" fill="white">
<path d="M72.2669 62.1612C72.1315 61.8906 71.9286 61.7552 71.658 61.7552C71.3874 61.7552 71.1845 61.8906 71.0492 62.1612C71.0492 62.1612 69.8314 64.7319 69.3579 65.7467C69.0873 66.3555 68.8167 66.8967 68.952 67.7086C69.155 68.7909 70.0344 69.6704 71.1169 69.8734C71.2522 69.941 71.4551 69.941 71.5904 69.941C72.1992 69.941 72.8757 69.7381 73.417 69.2645C74.0258 68.7233 74.3641 67.9792 74.3641 67.1674C74.3641 66.6262 74.2288 66.288 74.0258 65.8821C73.6199 64.9349 72.3345 62.2965 72.2669 62.1612ZM72.4698 68.3173C72.1315 68.5879 71.7256 68.6556 71.3197 68.5879C70.7785 68.4526 70.305 68.0467 70.2373 67.5055C70.1697 67.1672 70.2373 66.8967 70.5079 66.3554C70.7785 65.8142 71.2521 64.8672 71.5903 64.0553C71.9962 64.9348 72.5374 66.0172 72.7404 66.5584C72.8757 66.8967 72.9433 67.0996 72.9433 67.3026C72.9433 67.7085 72.8081 68.0468 72.4698 68.3173Z"/>
<path d="M77.9489 41.5277C79.302 41.5277 80.3844 40.4453 80.3844 39.0923C80.3844 37.8069 79.4372 36.7922 78.1519 36.5892L51.9711 34.0185C50.0769 33.8832 48.1827 34.4921 46.762 35.7774C45.3413 37.0628 44.5295 38.957 44.5295 40.8512V70.0272C43.3658 70.3296 42.5 71.3921 42.5 72.647V73.3235C42.5 73.7294 42.7706 74 43.1765 74H56.7066C57.1125 74 57.3831 73.7294 57.3831 73.3235V72.647C57.3831 71.3921 56.5173 70.3296 55.3536 70.0272V63.9201C55.3536 61.3494 56.3683 58.9139 58.1273 57.2903C60.1568 55.3961 62.7952 54.3814 65.5012 54.3814C65.5688 54.3814 65.5688 54.3814 65.6365 54.3814H67.5307V56.4109C67.5307 56.8168 67.8013 57.0874 68.2072 57.0874H74.9722C75.3781 57.0874 75.6487 56.8168 75.6487 56.4109V54.3814H77.6782C78.0841 54.3814 78.3547 54.1108 78.3547 53.7049V47.684C78.3547 46.128 77.0694 44.9103 75.581 44.9103H65.5013C61.9835 44.9103 58.5333 45.925 55.3537 47.7516V41.5277H77.9489ZM47.7091 36.7922C48.7915 35.7774 50.3475 35.3039 51.9035 35.4392L78.0166 38.0099C78.6254 38.0775 79.0313 38.5511 79.0313 39.0923C79.0313 39.7011 78.5578 40.1747 77.9489 40.1747H45.9502C46.0855 38.8893 46.6944 37.6716 47.7091 36.7922ZM56.0301 72.647H43.853C43.853 71.9029 44.4619 71.294 45.2061 71.294H54.6772C55.4213 71.294 56.0301 71.9029 56.0301 72.647ZM74.2958 55.7343H68.8837V54.3813H74.2958V55.7343ZM54.4065 49.5105C54.6095 49.6459 54.8801 49.6459 55.083 49.5105C58.2626 47.4134 61.9158 46.2633 65.5012 46.2633H75.6488C76.4606 46.2633 77.0694 46.9398 77.0694 47.684V53.0283H65.5689C65.5013 53.0283 65.5013 53.0283 65.4336 53.0283C62.3893 53.0283 59.4803 54.1784 57.2479 56.2756C55.1507 58.1698 54.0006 61.0111 54.0006 63.9201V69.941H48.5886V67.9115C48.5886 67.5056 48.318 67.235 47.9121 67.235C47.5062 67.235 47.2356 67.5056 47.2356 67.9115V69.941H45.8826V41.5278H47.2356V42.8808C47.2356 43.2867 47.5062 43.5573 47.9121 43.5573C48.318 43.5573 48.5886 43.2867 48.5886 42.8808V41.5277H54.0006V48.9693C54.0006 49.2399 54.136 49.4428 54.4065 49.5105Z"/>
<path d="M47.9128 56.4109C47.5069 56.4109 47.2363 56.6815 47.2363 57.0874V62.4994C47.2363 62.9053 47.5069 63.1759 47.9128 63.1759C48.3187 63.1759 48.5893 62.9053 48.5893 62.4994V57.0874C48.5893 56.6815 48.3187 56.4109 47.9128 56.4109Z"/>
<path d="M47.9128 64.529C47.5069 64.529 47.2363 64.7996 47.2363 65.2055C47.2363 65.6114 47.5069 65.882 47.9128 65.882C48.3187 65.882 48.5893 65.6114 48.5893 65.2055C48.5893 64.8672 48.3187 64.529 47.9128 64.529Z"/>
<path d="M47.9128 46.2633C47.5069 46.2633 47.2363 46.5339 47.2363 46.9398V53.7048C47.2363 54.1107 47.5069 54.3813 47.9128 54.3813C48.3187 54.3813 48.5893 54.1107 48.5893 53.7048V46.9398C48.5893 46.5339 48.3187 46.2633 47.9128 46.2633Z"/>
</mask>
<path d="M72.2669 62.1612C72.1315 61.8906 71.9286 61.7552 71.658 61.7552C71.3874 61.7552 71.1845 61.8906 71.0492 62.1612C71.0492 62.1612 69.8314 64.7319 69.3579 65.7467C69.0873 66.3555 68.8167 66.8967 68.952 67.7086C69.155 68.7909 70.0344 69.6704 71.1169 69.8734C71.2522 69.941 71.4551 69.941 71.5904 69.941C72.1992 69.941 72.8757 69.7381 73.417 69.2645C74.0258 68.7233 74.3641 67.9792 74.3641 67.1674C74.3641 66.6262 74.2288 66.288 74.0258 65.8821C73.6199 64.9349 72.3345 62.2965 72.2669 62.1612ZM72.4698 68.3173C72.1315 68.5879 71.7256 68.6556 71.3197 68.5879C70.7785 68.4526 70.305 68.0467 70.2373 67.5055C70.1697 67.1672 70.2373 66.8967 70.5079 66.3554C70.7785 65.8142 71.2521 64.8672 71.5903 64.0553C71.9962 64.9348 72.5374 66.0172 72.7404 66.5584C72.8757 66.8967 72.9433 67.0996 72.9433 67.3026C72.9433 67.7085 72.8081 68.0468 72.4698 68.3173Z" stroke="#1E2D26" stroke-width="3.17112" mask="url(#path-2-inside-1_829_2207)"/>
<path d="M77.9489 41.5277C79.302 41.5277 80.3844 40.4453 80.3844 39.0923C80.3844 37.8069 79.4372 36.7922 78.1519 36.5892L51.9711 34.0185C50.0769 33.8832 48.1827 34.4921 46.762 35.7774C45.3413 37.0628 44.5295 38.957 44.5295 40.8512V70.0272C43.3658 70.3296 42.5 71.3921 42.5 72.647V73.3235C42.5 73.7294 42.7706 74 43.1765 74H56.7066C57.1125 74 57.3831 73.7294 57.3831 73.3235V72.647C57.3831 71.3921 56.5173 70.3296 55.3536 70.0272V63.9201C55.3536 61.3494 56.3683 58.9139 58.1273 57.2903C60.1568 55.3961 62.7952 54.3814 65.5012 54.3814C65.5688 54.3814 65.5688 54.3814 65.6365 54.3814H67.5307V56.4109C67.5307 56.8168 67.8013 57.0874 68.2072 57.0874H74.9722C75.3781 57.0874 75.6487 56.8168 75.6487 56.4109V54.3814H77.6782C78.0841 54.3814 78.3547 54.1108 78.3547 53.7049V47.684C78.3547 46.128 77.0694 44.9103 75.581 44.9103H65.5013C61.9835 44.9103 58.5333 45.925 55.3537 47.7516V41.5277H77.9489ZM47.7091 36.7922C48.7915 35.7774 50.3475 35.3039 51.9035 35.4392L78.0166 38.0099C78.6254 38.0775 79.0313 38.5511 79.0313 39.0923C79.0313 39.7011 78.5578 40.1747 77.9489 40.1747H45.9502C46.0855 38.8893 46.6944 37.6716 47.7091 36.7922ZM56.0301 72.647H43.853C43.853 71.9029 44.4619 71.294 45.2061 71.294H54.6772C55.4213 71.294 56.0301 71.9029 56.0301 72.647ZM74.2958 55.7343H68.8837V54.3813H74.2958V55.7343ZM54.4065 49.5105C54.6095 49.6459 54.8801 49.6459 55.083 49.5105C58.2626 47.4134 61.9158 46.2633 65.5012 46.2633H75.6488C76.4606 46.2633 77.0694 46.9398 77.0694 47.684V53.0283H65.5689C65.5013 53.0283 65.5013 53.0283 65.4336 53.0283C62.3893 53.0283 59.4803 54.1784 57.2479 56.2756C55.1507 58.1698 54.0006 61.0111 54.0006 63.9201V69.941H48.5886V67.9115C48.5886 67.5056 48.318 67.235 47.9121 67.235C47.5062 67.235 47.2356 67.5056 47.2356 67.9115V69.941H45.8826V41.5278H47.2356V42.8808C47.2356 43.2867 47.5062 43.5573 47.9121 43.5573C48.318 43.5573 48.5886 43.2867 48.5886 42.8808V41.5277H54.0006V48.9693C54.0006 49.2399 54.136 49.4428 54.4065 49.5105Z" stroke="#1E2D26" stroke-width="3.17112" mask="url(#path-2-inside-1_829_2207)"/>
<path d="M47.9128 56.4109C47.5069 56.4109 47.2363 56.6815 47.2363 57.0874V62.4994C47.2363 62.9053 47.5069 63.1759 47.9128 63.1759C48.3187 63.1759 48.5893 62.9053 48.5893 62.4994V57.0874C48.5893 56.6815 48.3187 56.4109 47.9128 56.4109Z" stroke="#1E2D26" stroke-width="3.17112" mask="url(#path-2-inside-1_829_2207)"/>
<path d="M47.9128 64.529C47.5069 64.529 47.2363 64.7996 47.2363 65.2055C47.2363 65.6114 47.5069 65.882 47.9128 65.882C48.3187 65.882 48.5893 65.6114 48.5893 65.2055C48.5893 64.8672 48.3187 64.529 47.9128 64.529Z" stroke="#1E2D26" stroke-width="3.17112" mask="url(#path-2-inside-1_829_2207)"/>
<path d="M47.9128 46.2633C47.5069 46.2633 47.2363 46.5339 47.2363 46.9398V53.7048C47.2363 54.1107 47.5069 54.3813 47.9128 54.3813C48.3187 54.3813 48.5893 54.1107 48.5893 53.7048V46.9398C48.5893 46.5339 48.3187 46.2633 47.9128 46.2633Z" stroke="#1E2D26" stroke-width="3.17112" mask="url(#path-2-inside-1_829_2207)"/>
</g>
<defs>
<filter id="filter0_d_829_2207" x="0.5" y="0" width="117" height="117" filterUnits="userSpaceOnUse" color-interpolation-filters="sRGB">
<feFlood flood-opacity="0" result="BackgroundImageFix"/>
<feColorMatrix in="SourceAlpha" type="matrix" values="0 0 0 0 0 0 0 0 0 0 0 0 0 0 0 0 0 0 127 0" result="hardAlpha"/>
<feOffset dy="4"/>
<feGaussianBlur stdDeviation="7.5"/>
<feColorMatrix type="matrix" values="0 0 0 0 0.425 0 0 0 0 0.413171 0 0 0 0 0.129271 0 0 0 0.15 0"/>
<feBlend mode="normal" in2="BackgroundImageFix" result="effect1_dropShadow_829_2207"/>
<feBlend mode="normal" in="SourceGraphic" in2="effect1_dropShadow_829_2207" result="shape"/>
</filter>
</defs>
</svg>
