<svg width="118" height="117" viewBox="0 0 118 117" fill="none" xmlns="http://www.w3.org/2000/svg">
<g filter="url(#filter0_d_829_2202)">
<path fill-rule="evenodd" clip-rule="evenodd" d="M102.408 57.3477L100.412 57.2188C100.471 56.3203 100.5 55.4137 100.5 54.5C100.5 53.5863 100.471 52.6797 100.412 51.7812L102.408 51.6522C102.469 52.5937 102.5 53.5432 102.5 54.5C102.5 55.4568 102.469 56.4063 102.408 57.3477ZM101.672 46.0105L99.71 46.3986C99.3555 44.6064 98.8856 42.8559 98.3083 41.155L100.202 40.5123C100.808 42.2958 101.3 44.1314 101.672 46.0105ZM98.0227 35.2563L96.2296 36.1422C95.4246 34.5128 94.5155 32.9436 93.5112 31.4434L95.1731 30.3307C96.2258 31.9031 97.1787 33.548 98.0227 35.2563ZM91.7056 25.8182L90.2024 27.1375C89.0072 25.7757 87.7243 24.4928 86.3625 23.2976L87.6818 21.7944C89.1088 23.0469 90.4532 24.3912 91.7056 25.8182ZM83.1693 18.3269L82.0566 19.9888C80.5564 18.9844 78.9872 18.0754 77.3578 17.2704L78.2437 15.4773C79.952 16.3213 81.5969 17.2742 83.1693 18.3269ZM72.9877 13.2978L72.345 15.1917C70.6441 14.6144 68.8936 14.1445 67.1014 13.79L67.4895 11.828C69.3686 12.1997 71.2042 12.6925 72.9877 13.2978ZM61.8477 11.0917L61.7188 13.0876C60.8203 13.0295 59.9137 13 59 13C58.0863 13 57.1797 13.0295 56.2812 13.0876L56.1522 11.0917C57.0937 11.0309 58.0432 11 59 11C59.9568 11 60.9063 11.0309 61.8477 11.0917ZM50.5105 11.828L50.8986 13.79C49.1064 14.1445 47.3559 14.6144 45.655 15.1917L45.0123 13.2978C46.7958 12.6925 48.6314 12.1997 50.5105 11.828ZM39.7563 15.4773L40.6422 17.2704C39.0128 18.0754 37.4436 18.9844 35.9434 19.9888L34.8307 18.3269C36.4031 17.2742 38.048 16.3213 39.7563 15.4773ZM30.3182 21.7944L31.6375 23.2976C30.2757 24.4928 28.9928 25.7757 27.7976 27.1375L26.2944 25.8182C27.5469 24.3912 28.8912 23.0468 30.3182 21.7944ZM22.8269 30.3307L24.4888 31.4434C23.4844 32.9436 22.5754 34.5128 21.7704 36.1422L19.9773 35.2563C20.8213 33.548 21.7742 31.9031 22.8269 30.3307ZM17.7978 40.5123L19.6917 41.155C19.1144 42.8559 18.6445 44.6064 18.29 46.3986L16.328 46.0105C16.6997 44.1314 17.1925 42.2958 17.7978 40.5123ZM15.5917 51.6522C15.5309 52.5937 15.5 53.5432 15.5 54.5C15.5 55.4568 15.5309 56.4063 15.5917 57.3478L17.5876 57.2188C17.5295 56.3203 17.5 55.4137 17.5 54.5C17.5 53.5863 17.5295 52.6797 17.5876 51.7812L15.5917 51.6522ZM16.328 62.9895L18.29 62.6014C18.6445 64.3936 19.1144 66.1441 19.6917 67.845L17.7978 68.4877C17.1925 66.7042 16.6997 64.8686 16.328 62.9895ZM19.9773 73.7437L21.7704 72.8578C22.5754 74.4872 23.4844 76.0564 24.4888 77.5566L22.8269 78.6693C21.7742 77.0969 20.8213 75.452 19.9773 73.7437ZM26.2944 83.1818L27.7976 81.8625C28.9928 83.2243 30.2757 84.5072 31.6375 85.7024L30.3182 87.2056C28.8912 85.9531 27.5468 84.6088 26.2944 83.1818ZM34.8307 90.6731L35.9434 89.0112C37.4436 90.0155 39.0128 90.9246 40.6422 91.7296L39.7563 93.5227C38.048 92.6787 36.4031 91.7258 34.8307 90.6731ZM45.0123 95.7022L45.655 93.8083C47.3559 94.3856 49.1064 94.8555 50.8986 95.21L50.5105 97.172C48.6314 96.8003 46.7958 96.3075 45.0123 95.7022ZM56.1523 97.9083L56.2812 95.9124C57.1797 95.9705 58.0863 96 59 96C59.9137 96 60.8203 95.9705 61.7188 95.9124L61.8478 97.9083C60.9063 97.9691 59.9568 98 59 98C58.0432 98 57.0937 97.9691 56.1523 97.9083ZM67.4895 97.172L67.1014 95.21C68.8936 94.8555 70.6441 94.3856 72.345 93.8083L72.9877 95.7022C71.2042 96.3075 69.3686 96.8003 67.4895 97.172ZM78.2437 93.5227L77.3578 91.7296C78.9872 90.9246 80.5564 90.0155 82.0566 89.0112L83.1693 90.6731C81.5969 91.7258 79.952 92.6787 78.2437 93.5227ZM87.6818 87.2056L86.3625 85.7024C87.7243 84.5072 89.0072 83.2243 90.2024 81.8625L91.7056 83.1818C90.4531 84.6088 89.1088 85.9532 87.6818 87.2056ZM95.1731 78.6693L93.5112 77.5566C94.5155 76.0564 95.4246 74.4872 96.2296 72.8578L98.0227 73.7437C97.1787 75.452 96.2258 77.0969 95.1731 78.6693ZM100.202 68.4877L98.3083 67.845C98.8856 66.1441 99.3555 64.3936 99.71 62.6014L101.672 62.9895C101.3 64.8686 100.808 66.7042 100.202 68.4877Z" fill="#F2C94C"/>
<path d="M41.7811 37.41C40.1615 37.41 39.3398 36.3679 39.3398 34.3125C39.3398 34.0513 39.5512 33.84 39.8123 33.84C40.0735 33.84 40.2848 34.0513 40.2848 34.3125C40.2848 36.2038 41.0041 36.465 41.7811 36.465C43.196 36.465 44.2223 37.767 44.2223 39.5625C44.2223 39.8237 44.011 40.035 43.7498 40.035C43.4887 40.035 43.2773 39.8237 43.2773 39.5625C43.2773 38.4928 42.7642 37.41 41.7811 37.41ZM43.0936 34.785C44.7998 34.785 45.9023 35.8875 45.9023 37.5938C45.9023 37.855 46.1137 38.0663 46.3748 38.0663C46.636 38.0663 46.8473 37.855 46.8473 37.5938C46.8473 35.3494 45.3393 33.8413 43.0936 33.8413C42.8324 33.8413 42.6211 34.0527 42.6211 34.3138C42.6211 34.575 42.8324 34.785 43.0936 34.785ZM51.6248 58.7775C51.3637 58.7775 51.1523 58.9888 51.1523 59.25V61.875C51.1523 62.1362 51.3637 62.3475 51.6248 62.3475C51.886 62.3475 52.0973 62.1362 52.0973 61.875V59.25C52.0973 58.9888 51.886 58.7775 51.6248 58.7775ZM79.6598 63.4422V73.6875C79.6598 73.9487 79.4485 74.16 79.1873 74.16H41.1248C40.8637 74.16 40.6523 73.9487 40.6523 73.6875V40.875C40.6523 40.6138 40.8637 40.4025 41.1248 40.4025H46.3748C46.636 40.4025 46.8473 40.6138 46.8473 40.875V54.4673L54.6593 49.6596C54.805 49.569 54.9888 49.5664 55.1371 49.6491C55.2867 49.7344 55.3786 49.8919 55.3786 50.0625V54.4988L63.8587 49.653C64.0057 49.569 64.1842 49.5703 64.3298 49.6543C64.4755 49.7383 64.5661 49.8945 64.5661 50.0638V54.4686L72.3768 49.6609C72.5212 49.5703 72.7062 49.5677 72.8545 49.6504C73.0042 49.7344 73.0973 49.8919 73.0973 50.0625V58.7775H75.032C75.6567 58.7775 77.237 58.9062 78.4222 60.094C79.2464 60.9195 79.6625 62.047 79.6598 63.4422ZM73.0973 61.4025H74.902C76.078 61.4025 77.0348 62.3475 77.0348 63.5078V73.215H78.7135V63.4422C78.7162 62.3055 78.3933 61.4038 77.7528 60.762C77.1044 60.1123 76.0859 59.7238 75.032 59.7238H73.0973V61.4025ZM73.0973 62.3475V73.2137H76.0885V63.5065C76.0885 62.8673 75.557 62.3462 74.902 62.3462H73.0973V62.3475ZM41.5973 41.3475V49.59H45.9023V41.3475H41.5973ZM45.9023 73.215V50.535H41.5973V73.215H45.9023ZM46.8473 73.215H56.4023V65.8125C56.4023 65.5513 56.6137 65.34 56.8748 65.34H62.1248C62.386 65.34 62.5973 65.5513 62.5973 65.8125V73.215H72.151V50.9078L64.3403 55.7155C64.196 55.8034 64.0122 55.8087 63.8626 55.726C63.7143 55.642 63.6211 55.4845 63.6211 55.3125V50.8763L55.141 55.722C54.994 55.8034 54.8155 55.8047 54.6698 55.7207C54.5228 55.6367 54.4336 55.4805 54.4336 55.3125V50.9078L46.8473 55.5763V73.215ZM61.6523 66.285H57.3473V73.2137H61.6523V66.285ZM56.8748 62.3475C57.136 62.3475 57.3473 62.1362 57.3473 61.875V59.25C57.3473 58.9888 57.136 58.7775 56.8748 58.7775C56.6137 58.7775 56.4023 58.9888 56.4023 59.25V61.875C56.4023 62.1362 56.6137 62.3475 56.8748 62.3475ZM62.1248 62.3475C62.386 62.3475 62.5973 62.1362 62.5973 61.875V59.25C62.5973 58.9888 62.386 58.7775 62.1248 58.7775C61.8637 58.7775 61.6523 58.9888 61.6523 59.25V61.875C61.6523 62.1362 61.8637 62.3475 62.1248 62.3475ZM67.3748 62.3475C67.636 62.3475 67.8473 62.1362 67.8473 61.875V59.25C67.8473 58.9888 67.636 58.7775 67.3748 58.7775C67.1137 58.7775 66.9023 58.9888 66.9023 59.25V61.875C66.9023 62.1362 67.1137 62.3475 67.3748 62.3475Z" fill="black"/>
</g>
<defs>
<filter id="filter0_d_829_2202" x="0.5" y="0" width="117" height="117" filterUnits="userSpaceOnUse" color-interpolation-filters="sRGB">
<feFlood flood-opacity="0" result="BackgroundImageFix"/>
<feColorMatrix in="SourceAlpha" type="matrix" values="0 0 0 0 0 0 0 0 0 0 0 0 0 0 0 0 0 0 127 0" result="hardAlpha"/>
<feOffset dy="4"/>
<feGaussianBlur stdDeviation="7.5"/>
<feColorMatrix type="matrix" values="0 0 0 0 0.425 0 0 0 0 0.413171 0 0 0 0 0.129271 0 0 0 0.15 0"/>
<feBlend mode="normal" in2="BackgroundImageFix" result="effect1_dropShadow_829_2202"/>
<feBlend mode="normal" in="SourceGraphic" in2="effect1_dropShadow_829_2202" result="shape"/>
</filter>
</defs>
</svg>
