<svg width="12" height="12" viewBox="0 0 12 12" fill="none" xmlns="http://www.w3.org/2000/svg">
<path fill-rule="evenodd" clip-rule="evenodd" d="M11.7111 1.0443C11.7607 0.99471 11.8 0.935842 11.8268 0.871053C11.8537 0.806264 11.8675 0.736824 11.8675 0.666697C11.8675 0.596571 11.8537 0.527131 11.8268 0.462342C11.8 0.397553 11.7607 0.338684 11.7111 0.289097C11.6615 0.23951 11.6026 0.200176 11.5378 0.173339C11.4731 0.146503 11.4036 0.13269 11.3335 0.13269C11.2634 0.13269 11.1939 0.146503 11.1291 0.173339C11.0643 0.200176 11.0055 0.23951 10.9559 0.289097L6.00015 5.2459L1.04442 0.289097C0.994833 0.23951 0.935964 0.200176 0.871175 0.173339C0.806386 0.146503 0.736946 0.13269 0.66682 0.13269C0.596693 0.13269 0.527253 0.146503 0.462464 0.173339C0.397675 0.200176 0.338807 0.23951 0.289219 0.289097C0.239632 0.338684 0.200298 0.397553 0.173461 0.462342C0.146625 0.527131 0.132812 0.596571 0.132813 0.666697C0.132813 0.736824 0.146625 0.806264 0.173461 0.871053C0.200298 0.935842 0.239632 0.99471 0.289219 1.0443L5.24602 6.00003L0.289219 10.9558C0.189074 11.0559 0.132813 11.1917 0.132813 11.3334C0.132813 11.475 0.189074 11.6108 0.289219 11.711C0.389365 11.8111 0.525192 11.8674 0.66682 11.8674C0.808447 11.8674 0.944274 11.8111 1.04442 11.711L6.00015 6.75416L10.9559 11.711C11.056 11.8111 11.1919 11.8674 11.3335 11.8674C11.4751 11.8674 11.6109 11.8111 11.7111 11.711C11.8112 11.6108 11.8675 11.475 11.8675 11.3334C11.8675 11.1917 11.8112 11.0559 11.7111 10.9558L6.75429 6.00003L11.7111 1.0443Z" fill="black"/>
</svg>
