<svg xmlns="http://www.w3.org/2000/svg" width="80" height="26" viewBox="0 0 80 26" fill="none">
<path fill-rule="evenodd" clip-rule="evenodd" d="M12.27 5.08691H14.2598V7.12181H12.27V5.08691ZM12.27 8.93189V10.9653H10.2816V15.0351H12.27V16.8441V18.8788H14.2598V16.8441H23.9888V18.8783H20.2302V20.9131H23.9888V18.8788H25.9786V15.0351H27.967V10.9653H25.9786H25.9777V8.93189H23.9902V7.12255H22.0004V8.93189H16.2482V7.12255H14.2584V8.93189H12.27ZM23.9888 12.9987V10.9668H21.9973V12.9987H23.9888ZM16.2489 10.9668V12.9987H14.2598V10.9668H16.2489ZM10.2808 12.9987H8.29102V18.8774H10.2808V12.9987ZM18.0193 20.9131V18.8783H14.2607V20.9131H18.0193ZM25.9786 5.08691H23.9888V7.12181H25.9786V5.08691ZM29.9597 12.9987H27.9699V18.8774H29.9597V12.9987Z" fill="#1E2D26"/>
<path d="M44.7125 13.0002C44.7125 14.1274 44.5135 15.1015 44.1155 15.9226C43.7175 16.7436 43.1714 17.3768 42.4774 17.8221C41.7834 18.2674 40.9908 18.4901 40.0994 18.4901C39.2081 18.4901 38.4154 18.2674 37.7214 17.8221C37.0274 17.3768 36.4814 16.7436 36.0834 15.9226C35.6853 15.1015 35.4863 14.1274 35.4863 13.0002C35.4863 11.873 35.6853 10.8988 36.0834 10.0778C36.4814 9.25673 37.0274 8.62355 37.7214 8.17823C38.4154 7.73291 39.2081 7.51025 40.0994 7.51025C40.9908 7.51025 41.7834 7.73291 42.4774 8.17823C43.1714 8.62355 43.7175 9.25673 44.1155 10.0778C44.5135 10.8988 44.7125 11.873 44.7125 13.0002ZM43.4878 13.0002C43.4878 12.0748 43.3364 11.2937 43.0336 10.657C42.7343 10.0204 42.3277 9.53853 41.814 9.2115C41.3037 8.88447 40.7322 8.72096 40.0994 8.72096C39.4667 8.72096 38.8934 8.88447 38.3797 9.2115C37.8694 9.53853 37.4629 10.0204 37.1601 10.657C36.8607 11.2937 36.711 12.0748 36.711 13.0002C36.711 13.9256 36.8607 14.7066 37.1601 15.3433C37.4629 15.98 37.8694 16.4618 38.3797 16.7888C38.8934 17.1159 39.4667 17.2794 40.0994 17.2794C40.7322 17.2794 41.3037 17.1159 41.814 16.7888C42.3277 16.4618 42.7343 15.98 43.0336 15.3433C43.3364 14.7066 43.4878 13.9256 43.4878 13.0002Z" fill="#1E2D26"/>
<path d="M46.8405 7.65637H48.351L51.9026 16.5279H52.0251L55.5768 7.65637H57.0873V18.344H55.9034V10.2239H55.8013L52.5354 18.344H51.3923L48.1264 10.2239H48.0244V18.344H46.8405V7.65637Z" fill="#1E2D26"/>
<path d="M67.912 7.65637V18.344H66.6873L60.9923 9.95254H60.8903V18.344H59.6247V7.65637H60.8495L66.5648 16.0687H66.6669V7.65637H67.912Z" fill="#1E2D26"/>
<path d="M71.7099 7.65637V18.344H70.4444V7.65637H71.7099Z" fill="#1E2D26"/>
</svg>