<svg xmlns="http://www.w3.org/2000/svg" width="20" height="16" viewBox="0 0 20 16" fill="none">
<path fill-rule="evenodd" clip-rule="evenodd" d="M19.0155 5.14714V2.18635C11.4944 -2.04306 0.908203 0.88934 0.908203 7.91052C0.908203 15.7398 11.4941 17.6947 19.0155 13.8879V10.7865C16.2298 11.7732 11.4941 11.4913 11.4941 7.96664C11.4941 4.44202 15.6276 3.94951 19.0155 5.14714ZM6.87727 9.09193C6.5984 9.09193 6.45896 9.09193 6.18009 8.9525V7.33537C6.24364 7.36917 6.31953 7.41886 6.87727 7.41886C7.43485 7.41886 8.13203 7.00072 8.13203 6.1641C8.13203 5.32748 7.45919 4.90934 6.87727 4.90934C6.30364 4.90934 5.62234 5.46692 5.62234 6.1641L5.59141 12.5814C4.8633 12.5533 4.10629 12.1212 3.96905 11.3346L3.96685 5.95266C3.97615 4.53142 5.25643 3.23644 6.81525 3.23644C8.38522 3.23644 9.80477 4.4912 9.80477 6.19402C9.80494 7.89666 8.27147 9.09193 6.87727 9.09193Z" fill="black"/>
</svg>