<svg width="32" height="32" viewBox="0 0 32 32" fill="none" xmlns="http://www.w3.org/2000/svg">
<rect width="32" height="32" rx="4" fill="#7C509A"/>
<path d="M21.0031 7.63673C17.9539 7.05442 14.7874 7.05442 11.7382 7.63673C10.3895 7.92788 8.68901 9.55834 8.39581 10.8394C7.86806 13.3433 7.86806 15.9055 8.39581 18.4094C8.74764 19.6905 10.4482 21.321 11.7382 21.6121C11.7969 21.6121 11.8555 21.6704 11.8555 21.7286V25.3971C11.8555 25.5718 12.0901 25.6883 12.2073 25.5136L13.9665 23.7084C13.9665 23.7084 15.3738 22.2527 15.6084 22.0197C15.6084 22.0197 15.667 21.9615 15.7257 21.9615C17.4848 22.0197 19.3026 21.845 21.0618 21.5539C22.4105 21.2627 24.111 19.6323 24.4042 18.3512C24.9319 15.8473 24.9319 13.2851 24.4042 10.7812C24.0524 9.55834 22.3518 7.92788 21.0031 7.63673ZM21.0618 18.5841C20.7686 19.1664 20.4168 19.6323 19.8304 19.9234C19.6545 19.9817 19.4785 20.0399 19.3026 20.0981C19.0681 20.0399 18.8921 19.9817 18.7162 19.9234C16.8398 19.1664 15.0806 18.1183 13.6733 16.6043C12.911 15.7308 12.266 14.7409 11.7382 13.6927C11.5037 13.1687 11.2691 12.7028 11.0932 12.1787C10.9173 11.7129 11.2105 11.247 11.5037 10.8977C11.7969 10.5483 12.1487 10.3153 12.5592 10.1407C12.8524 9.96596 13.1456 10.0824 13.3801 10.3153C13.8492 10.8977 14.3183 11.48 14.6702 12.1205C14.9047 12.5281 14.8461 12.994 14.4356 13.2851C14.3183 13.3433 14.2597 13.4016 14.1424 13.518C14.0838 13.5763 13.9665 13.6345 13.9079 13.751C13.7906 13.9257 13.7906 14.1003 13.8492 14.275C14.3183 15.6143 15.1979 16.6625 16.5466 17.2448C16.7811 17.3613 16.9571 17.4195 17.2503 17.4195C17.6607 17.3613 17.8366 16.8954 18.1298 16.6625C18.423 16.4296 18.7749 16.4296 19.1267 16.6043C19.4199 16.779 19.7131 17.0119 20.0649 17.2448C20.3581 17.4777 20.6513 17.6524 20.9445 17.8853C21.1204 18.0018 21.1791 18.293 21.0618 18.5841ZM18.599 14.2168C18.4817 14.2168 18.5403 14.2168 18.599 14.2168C18.3644 14.2168 18.3058 14.1003 18.2471 13.9257C18.2471 13.8092 18.2471 13.6345 18.1885 13.518C18.1298 13.2851 18.0126 13.0522 17.778 12.8775C17.6607 12.8193 17.5435 12.761 17.4262 12.7028C17.2503 12.6446 17.133 12.6446 16.9571 12.6446C16.7812 12.5863 16.7225 12.4699 16.7225 12.2952C16.7225 12.1787 16.8984 12.0623 17.0157 12.0623C17.9539 12.1205 18.6576 12.6446 18.7749 13.751C18.7749 13.8092 18.7749 13.9257 18.7749 13.9839C18.7749 14.1003 18.7162 14.2168 18.599 14.2168ZM18.0126 11.6547C17.7194 11.5382 17.4262 11.4217 17.0743 11.3635C16.9571 11.3635 16.7812 11.3053 16.6639 11.3053C16.488 11.3053 16.3707 11.1888 16.4293 11.0141C16.4293 10.8394 16.5466 10.723 16.7225 10.7812C17.3089 10.8394 17.8366 10.9559 18.3644 11.1888C19.4199 11.7129 20.0063 12.5863 20.1822 13.751C20.1822 13.8092 20.1822 13.8674 20.1822 13.9257C20.1822 14.0421 20.1822 14.1586 20.1822 14.3333C20.1822 14.3915 20.1822 14.4497 20.1822 14.508C20.1236 14.7409 19.7131 14.7991 19.6544 14.508C19.6544 14.4497 19.5958 14.3333 19.5958 14.275C19.5958 13.751 19.4785 13.2269 19.244 12.761C18.8921 12.237 18.4817 11.8876 18.0126 11.6547ZM21.1791 15.1485C21.0031 15.1485 20.8859 14.9738 20.8859 14.7991C20.8859 14.4497 20.8272 14.1003 20.7686 13.751C20.534 11.8876 19.0094 10.3736 17.1916 10.0824C16.8984 10.0242 16.6052 10.0242 16.3707 9.96596C16.1948 9.96596 15.9602 9.96596 15.9016 9.73304C15.8429 9.55834 16.0188 9.38365 16.1948 9.38365C16.2534 9.38365 16.312 9.38365 16.312 9.38365C16.4293 9.38365 18.7162 9.44188 16.312 9.38365C18.7749 9.44188 20.8272 11.0723 21.2377 13.518C21.2963 13.9257 21.355 14.3333 21.355 14.7991C21.4723 14.9738 21.355 15.1485 21.1791 15.1485Z" fill="white"/>
</svg>
