<svg width="43" height="43" viewBox="0 0 43 43" fill="none" xmlns="http://www.w3.org/2000/svg">
<path d="M3.57129 39.1035L6.07774 29.9767C4.53661 27.3063 3.71524 24.2725 3.72371 21.1711C3.72371 11.4528 11.6495 3.55137 21.3874 3.55137C26.1124 3.55137 30.5495 5.38517 33.8773 8.71475C37.2136 12.0443 39.0511 16.4725 39.0427 21.1795C39.0427 30.8978 31.1169 38.7993 21.379 38.7993H21.3705C18.4152 38.7993 15.5108 38.0556 12.9281 36.6528L3.57129 39.1035ZM13.3685 33.4584L13.9019 33.7795C16.1544 35.1147 18.737 35.8162 21.3705 35.8246H21.379C29.4656 35.8246 36.0536 29.2584 36.0536 21.1795C36.0536 17.2669 34.5294 13.5908 31.7604 10.819C28.9915 8.04714 25.2995 6.52602 21.379 6.52602C13.2838 6.52602 6.69589 13.0922 6.69589 21.1711C6.69589 23.9345 7.46645 26.6302 8.93984 28.9626L9.28702 29.5204L7.81363 34.9119L13.3685 33.4584Z" fill="white"/>
<path d="M4.18066 38.4866L6.60244 29.6725C5.11212 27.095 4.32462 24.1626 4.32462 21.1711C4.32462 11.7908 11.9795 4.15983 21.3702 4.15983C25.9343 4.15983 30.2105 5.93448 33.4282 9.14574C36.646 12.357 38.4157 16.6331 38.4157 21.1795C38.4157 30.5598 30.7609 38.1908 21.3702 38.1908H21.3617C18.5081 38.1908 15.7053 37.4725 13.2157 36.1204L4.18066 38.4866Z" fill="url(#paint0_linear_694_175)"/>
<path d="M3.57129 39.1035L6.07774 29.9767C4.53661 27.3063 3.71524 24.2725 3.72371 21.1711C3.72371 11.4528 11.6495 3.55137 21.3874 3.55137C26.1124 3.55137 30.5495 5.38517 33.8773 8.71475C37.2136 12.0443 39.0511 16.4725 39.0427 21.1795C39.0427 30.8978 31.1169 38.7993 21.379 38.7993H21.3705C18.4152 38.7993 15.5108 38.0556 12.9281 36.6528L3.57129 39.1035ZM13.3685 33.4584L13.9019 33.7795C16.1544 35.1147 18.737 35.8162 21.3705 35.8246H21.379C29.4656 35.8246 36.0536 29.2584 36.0536 21.1795C36.0536 17.2669 34.5294 13.5908 31.7604 10.819C28.9915 8.04714 25.2995 6.52602 21.379 6.52602C13.2838 6.52602 6.69589 13.0922 6.69589 21.1711C6.69589 23.9345 7.46645 26.6302 8.93984 28.9626L9.28702 29.5204L7.81363 34.9119L13.3685 33.4584Z" fill="url(#paint1_linear_694_175)"/>
<path fill-rule="evenodd" clip-rule="evenodd" d="M16.9678 13.7936C16.6375 13.0584 16.2903 13.0415 15.977 13.0331C15.723 13.0246 15.4266 13.0246 15.1303 13.0246C14.8339 13.0246 14.3597 13.1345 13.9532 13.5739C13.5468 14.0134 12.4121 15.0781 12.4121 17.25C12.4121 19.4133 13.9956 21.5091 14.2157 21.8049C14.4359 22.1007 17.2726 26.6894 21.752 28.4556C25.4778 29.926 26.2399 29.6302 27.0444 29.5542C27.8573 29.4781 29.6524 28.4894 30.025 27.4584C30.3891 26.4274 30.3891 25.5486 30.279 25.3626C30.169 25.1767 29.8726 25.0669 29.4323 24.8471C28.9919 24.6274 26.8242 23.5626 26.4177 23.4105C26.0113 23.2669 25.7149 23.1908 25.427 23.6302C25.1307 24.0697 24.2839 25.0584 24.0298 25.3542C23.7758 25.65 23.5133 25.6838 23.073 25.464C22.6327 25.2443 21.2101 24.7795 19.525 23.2753C18.2125 22.1091 17.3234 20.6641 17.0694 20.2246C16.8153 19.7852 17.044 19.5486 17.2641 19.3288C17.4589 19.1345 17.7044 18.8133 17.9246 18.5598C18.1448 18.3063 18.221 18.1204 18.3649 17.8246C18.5089 17.5288 18.4411 17.2753 18.3311 17.0556C18.2125 16.8443 17.3573 14.6641 16.9678 13.7936Z" fill="white"/>
<defs>
<linearGradient id="paint0_linear_694_175" x1="21.3039" y1="38.4859" x2="21.3039" y2="4.15969" gradientUnits="userSpaceOnUse">
<stop stop-color="#20B038"/>
<stop offset="1" stop-color="#60D66A"/>
</linearGradient>
<linearGradient id="paint1_linear_694_175" x1="21.3043" y1="39.1012" x2="21.3043" y2="3.54397" gradientUnits="userSpaceOnUse">
<stop stop-color="#F9F9F9"/>
<stop offset="1" stop-color="white"/>
</linearGradient>
</defs>
</svg>
