<svg width="12" height="17" viewBox="0 0 12 17" fill="none" xmlns="http://www.w3.org/2000/svg">
<path d="M5.99984 3.98039C6.55237 3.98039 7.08228 4.19988 7.47298 4.59058C7.86368 4.98128 8.08317 5.51118 8.08317 6.06372C8.08317 6.33731 8.02928 6.60821 7.92459 6.86098C7.81989 7.11374 7.66643 7.3434 7.47298 7.53686C7.27952 7.73031 7.04986 7.88377 6.7971 7.98847C6.54433 8.09316 6.27343 8.14705 5.99984 8.14705C5.4473 8.14705 4.9174 7.92756 4.5267 7.53686C4.136 7.14616 3.9165 6.61625 3.9165 6.06372C3.9165 5.51118 4.136 4.98128 4.5267 4.59058C4.9174 4.19988 5.4473 3.98039 5.99984 3.98039ZM5.99984 0.230385C7.54693 0.230385 9.03067 0.844966 10.1246 1.93893C11.2186 3.03289 11.8332 4.51662 11.8332 6.06372C11.8332 10.4387 5.99984 16.8971 5.99984 16.8971C5.99984 16.8971 0.166504 10.4387 0.166504 6.06372C0.166504 4.51662 0.781085 3.03289 1.87505 1.93893C2.96901 0.844966 4.45274 0.230385 5.99984 0.230385ZM5.99984 1.89705C4.89477 1.89705 3.83496 2.33604 3.05356 3.11744C2.27216 3.89884 1.83317 4.95865 1.83317 6.06372C1.83317 6.89705 1.83317 8.56372 5.99984 14.1554C10.1665 8.56372 10.1665 6.89705 10.1665 6.06372C10.1665 4.95865 9.72752 3.89884 8.94612 3.11744C8.16471 2.33604 7.10491 1.89705 5.99984 1.89705Z" fill="#009846"/>
</svg>
