<svg width="274" height="287" viewBox="0 0 274 287" fill="none" xmlns="http://www.w3.org/2000/svg">
<path fill-rule="evenodd" clip-rule="evenodd" d="M135.328 90.4348L135.339 90.4133C135.885 63.0261 129.194 54.8549 118.922 43.1545C118.298 42.4446 119.901 43.6862 119.046 42.9663C133.966 55.5317 137.8 66.9025 136.22 88.7371L136.382 88.4167C144.106 73.7592 147.741 59.1726 148.844 42.7664C151.453 3.99043 111.879 -18.8536 95.9912 20.4346C54.1506 13.5032 50.461 66.7675 87.5668 77.1168C98.4099 80.141 117.526 79.2507 131.821 87.8566C135.191 89.8859 135.328 90.4348 135.328 90.4348Z" fill="#3BA059"/>
<path fill-rule="evenodd" clip-rule="evenodd" d="M168.369 200.825C181.295 196.669 193.564 189.869 203.856 180.997C237.09 152.346 223.625 96.3482 187.946 99.6932L188.296 102.527C196.893 101.891 204.862 108.158 209.993 114.089C223.202 129.354 213.778 167.619 200.718 179.89C187.657 192.161 179.707 194.093 167.754 198.557L168.369 200.825Z" fill="#3BA059"/>
<path fill-rule="evenodd" clip-rule="evenodd" d="M137.861 91.8823L137.883 91.8917C165.3 91.9877 173.367 85.1687 184.908 74.7151C185.608 74.0808 184.391 75.7019 185.098 74.8363C172.769 89.9472 161.452 93.9647 139.575 92.7447L139.898 92.9012C154.694 100.376 169.351 103.768 185.788 104.6C224.637 106.568 246.846 66.6602 207.268 51.4341C213.516 9.52288 160.151 6.71276 150.404 43.9506C147.556 54.8323 148.761 73.9141 140.384 88.3356C138.408 91.736 137.861 91.8828 137.861 91.8823Z" fill="#3BA059"/>
<path fill-rule="evenodd" clip-rule="evenodd" d="M137.108 93.9346L137.098 93.9561C136.551 121.343 143.242 129.514 153.514 141.215C154.137 141.924 152.535 140.683 153.39 141.403C138.47 128.838 134.636 117.467 136.216 95.6321L136.054 95.9524C128.33 110.61 124.695 125.197 123.592 141.603C120.983 180.379 160.557 203.223 176.445 163.935C218.285 170.866 221.976 117.602 184.869 107.253C174.026 104.228 154.91 105.118 140.615 96.5125C137.245 94.4835 137.107 93.9346 137.108 93.9346Z" fill="#3BA059"/>
<path fill-rule="evenodd" clip-rule="evenodd" d="M134.927 93.0449L134.906 93.0346C107.495 92.4551 99.3082 99.1305 87.5847 109.379C86.8737 110.001 88.1184 108.401 87.3967 109.255C99.9911 94.3632 111.377 90.5465 133.229 92.1524L132.909 91.9901C118.247 84.2549 103.652 80.6051 87.2328 79.483C48.4251 76.8295 25.5127 116.34 64.8164 132.262C57.828 174.056 111.135 177.807 121.539 140.748C124.579 129.918 123.711 110.818 132.343 96.5465C134.377 93.1811 134.927 93.0444 134.927 93.0449Z" fill="#3BA059"/>
<path d="M74.6043 192.692V230.042H86.3043V244.442H74.6043V256.952H54.8043V244.442H5.7543V219.242L41.3043 192.692H74.6043ZM23.0343 230.042H54.8043V209.342H49.7643L23.0343 228.242V230.042Z" fill="#009846"/>
<path d="M176.735 224.912C176.735 239.672 174.905 248.762 171.245 252.182C167.045 256.082 155.975 258.032 138.035 258.032C120.095 258.032 109.055 256.112 104.915 252.272C101.195 248.852 99.3353 239.732 99.3353 224.912C99.3353 210.212 101.165 201.152 104.825 197.732C109.025 193.832 120.095 191.882 138.035 191.882C155.975 191.882 167.045 193.832 171.245 197.732C174.905 201.092 176.735 210.152 176.735 224.912ZM156.935 224.912C156.935 217.772 156.005 213.332 154.145 211.592C151.985 209.552 146.615 208.532 138.035 208.532C129.395 208.532 124.025 209.522 121.925 211.502C120.065 213.242 119.135 217.712 119.135 224.912C119.135 232.052 120.065 236.522 121.925 238.322C124.085 240.362 129.455 241.382 138.035 241.382C146.675 241.382 151.985 240.452 153.965 238.592C155.945 236.672 156.935 232.112 156.935 224.912Z" fill="#009846"/>
<path d="M256.362 192.692V230.042H268.062V244.442H256.362V256.952H236.562V244.442H187.512V219.242L223.062 192.692H256.362ZM204.792 230.042H236.562V209.342H231.522L204.792 228.242V230.042Z" fill="#009846"/>
</svg>
