<svg width="289" height="287" viewBox="0 0 289 287" fill="none" xmlns="http://www.w3.org/2000/svg">
<path fill-rule="evenodd" clip-rule="evenodd" d="M127.328 90.4348L127.339 90.4133C127.885 63.0261 121.194 54.8548 110.922 43.1545C110.298 42.4446 111.901 43.6862 111.046 42.9663C125.966 55.5317 129.8 66.9025 128.22 88.7371L128.382 88.4167C136.106 73.7592 139.741 59.1726 140.844 42.7664C143.453 3.99043 103.879 -18.8536 87.9912 20.4346C46.1506 13.5032 42.461 66.7675 79.5668 77.1168C90.4099 80.141 109.526 79.2507 123.821 87.8566C127.191 89.8859 127.328 90.4348 127.328 90.4348Z" fill="#3BA059"/>
<path fill-rule="evenodd" clip-rule="evenodd" d="M160.369 200.825C173.295 196.669 185.564 189.869 195.856 180.997C229.09 152.346 215.625 96.3482 179.946 99.6932L180.296 102.527C188.893 101.891 196.862 108.158 201.993 114.089C215.202 129.354 205.778 167.619 192.718 179.89C179.657 192.161 171.707 194.093 159.754 198.557L160.369 200.825Z" fill="#3BA059"/>
<path fill-rule="evenodd" clip-rule="evenodd" d="M129.861 91.8823L129.883 91.8917C157.3 91.9877 165.367 85.1687 176.908 74.7151C177.608 74.0808 176.391 75.7019 177.098 74.8363C164.769 89.9472 153.452 93.9647 131.575 92.7447L131.898 92.9012C146.694 100.376 161.351 103.768 177.788 104.6C216.637 106.568 238.846 66.6602 199.268 51.4341C205.516 9.52288 152.151 6.71276 142.404 43.9506C139.556 54.8323 140.761 73.9141 132.384 88.3356C130.408 91.736 129.861 91.8828 129.861 91.8823Z" fill="#3BA059"/>
<path fill-rule="evenodd" clip-rule="evenodd" d="M129.108 93.9346L129.098 93.9561C128.551 121.343 135.242 129.514 145.514 141.215C146.137 141.924 144.535 140.683 145.39 141.403C130.47 128.838 126.636 117.467 128.216 95.6321L128.054 95.9524C120.33 110.61 116.695 125.197 115.592 141.603C112.983 180.379 152.557 203.223 168.445 163.935C210.285 170.866 213.976 117.602 176.869 107.253C166.026 104.228 146.91 105.118 132.615 96.5125C129.245 94.4835 129.107 93.9346 129.108 93.9346Z" fill="#3BA059"/>
<path fill-rule="evenodd" clip-rule="evenodd" d="M126.927 93.0449L126.906 93.0346C99.4948 92.4551 91.3082 99.1305 79.5847 109.379C78.8737 110.001 80.1184 108.401 79.3967 109.255C91.9911 94.3632 103.377 90.5465 125.229 92.1524L124.909 91.9901C110.247 84.2549 95.6522 80.6051 79.2328 79.483C40.4251 76.8295 17.5127 116.34 56.8164 132.262C49.828 174.056 103.135 177.807 113.539 140.748C116.579 129.918 115.711 110.818 124.343 96.5465C126.377 93.1811 126.927 93.0444 126.927 93.0449Z" fill="#3BA059"/>
<path d="M69.6043 192.692V230.042H81.3043V244.442H69.6043V256.952H49.8043V244.442H0.754303V219.242L36.3043 192.692H69.6043ZM18.0343 230.042H49.8043V209.342H44.7643L18.0343 228.242V230.042Z" fill="#009846"/>
<path d="M171.735 224.912C171.735 239.672 169.905 248.762 166.245 252.182C162.045 256.082 150.975 258.032 133.035 258.032C115.095 258.032 104.055 256.112 99.9153 252.272C96.1953 248.852 94.3353 239.732 94.3353 224.912C94.3353 210.212 96.1653 201.152 99.8253 197.732C104.025 193.832 115.095 191.882 133.035 191.882C150.975 191.882 162.045 193.832 166.245 197.732C169.905 201.092 171.735 210.152 171.735 224.912ZM151.935 224.912C151.935 217.772 151.005 213.332 149.145 211.592C146.985 209.552 141.615 208.532 133.035 208.532C124.395 208.532 119.025 209.522 116.925 211.502C115.065 213.242 114.135 217.712 114.135 224.912C114.135 232.052 115.065 236.522 116.925 238.322C119.085 240.362 124.455 241.382 133.035 241.382C141.675 241.382 146.985 240.452 148.965 238.592C150.945 236.672 151.935 232.112 151.935 224.912Z" fill="#009846"/>
<path d="M251.362 192.692V230.042H263.062V244.442H251.362V256.952H231.562V244.442H182.512V219.242L218.062 192.692H251.362ZM199.792 230.042H231.562V209.342H226.522L199.792 228.242V230.042Z" fill="#009846"/>
</svg>
