<svg xmlns="http://www.w3.org/2000/svg">

    <symbol id="logo-omni" viewBox="0 0 58 25">
        <path d="M13.97 22.113h2.137v2.104a3.13 3.13 0 0 1-2.095.783 2.72 2.72 0 0 1-1.368-.34 2.332 2.332 0 0 1-.917-.93 2.733 2.733 0 0 1-.318-1.323c0-.347.064-.68.195-.995a2.63 2.63 0 0 1 .53-.826c.224-.236.499-.422.824-.56.329-.14.683-.211 1.04-.209.42 0 .78.055 1.077.165.312.119.601.292.854.51l-.561.668a2.493 2.493 0 0 0-.64-.406 1.963 1.963 0 0 0-.766-.133c-.3 0-.577.08-.828.242-.25.16-.454.385-.588.65a1.911 1.911 0 0 0-.212.894c0 .342.07.649.21.919.14.27.34.482.601.637.26.155.559.233.895.233.474 0 .88-.126 1.215-.377v-.94H13.97zM56.385 19.9h1.013L55.4 22.917v1.996h-.882v-1.975L52.524 19.9h1.04l1.403 2.219zM16.525 7.637c0 1.46-.354 2.772-1.066 3.934-.711 1.161-1.694 2.07-2.949 2.723-1.256.653-2.67.98-4.247.98-1.576 0-2.991-.327-4.247-.98-1.255-.654-2.238-1.562-2.95-2.723C.357 10.409 0 9.098 0 7.637c0-1.46.356-2.771 1.067-3.933.71-1.162 1.694-2.069 2.95-2.723C5.272.327 6.687 0 8.263 0c1.576 0 2.991.327 4.246.98 1.256.655 2.239 1.562 2.95 2.724.712 1.162 1.067 2.472 1.067 3.933zm-5.41-1.93a3.218 3.218 0 0 0-1.183-1.273 3.162 3.162 0 0 0-1.666-.448c-.614 0-1.169.15-1.665.448-.495.3-.89.724-1.181 1.273-.294.55-.441 1.193-.441 1.93 0 .737.146 1.38.44 1.93.292.55.687.974 1.182 1.274a3.168 3.168 0 0 0 1.665.448c.614 0 1.17-.15 1.666-.448.495-.3.889-.724 1.182-1.273.294-.55.44-1.193.44-1.93 0-.738-.146-1.381-.44-1.93zM3.853 19.866l2.21 5.046H5.13l-.508-1.208H2.243l-.519 1.208H.82l2.213-5.046zm.44 3.058l-.868-2.007-.863 2.007zM55.36.322h2.094v14.626H55.36zm-32.202 23.81h2.877v.78h-3.76v-5.011H26v.78h-2.842V22h2.52v.78h-2.52zm22.764-.097c.219-.107.446-.271.682-.49l.569.574a3.513 3.513 0 0 1-.557.472 2.4 2.4 0 0 1-.652.296 2.91 2.91 0 0 1-.834.113 2.55 2.55 0 0 1-1.307-.343 2.445 2.445 0 0 1-.919-.936 2.647 2.647 0 0 1-.331-1.312 2.655 2.655 0 0 1 .723-1.833c.233-.24.514-.428.823-.555a2.675 2.675 0 0 1 1.047-.204c.432 0 .802.066 1.11.2.308.134.595.325.858.576l-.565.652a2.777 2.777 0 0 0-.666-.463 1.701 1.701 0 0 0-.745-.161c-.313 0-.597.08-.852.238a1.64 1.64 0 0 0-.595.647 1.926 1.926 0 0 0-.212.903c0 .497.157.92.474 1.267.315.347.71.52 1.185.52.29 0 .545-.054.764-.161zM49.219.322h2.714v14.626h-2.166L41.65 5.044v9.904h-2.713V.322h2.166l8.116 9.904zM35.61 19.901h.869v5.011h-.739l-2.766-3.564v3.564h-.868v-5.011h.818l2.687 3.467zm.284-4.953H32.04l-.042-7.66-3.76 6.236h-1.84l-3.74-6.029v7.453h-3.81V.322h3.413l5.15 8.442L32.439.322h3.412z"/>
    </symbol>
    <symbol id="logo-grechka" viewBox="0 0 97 30">
        <path d="M75.28 19.73V10.89C75.28 7.47 74.02 5.44 71.1 5.44C69.26 5.44 68.01 6.4 66.92 7.42L68.04 2.48L66.92 0L63.46 0.01V12.96C63.3 13.69 63.08 14.38 62.74 14.96C62.4 15.53 61.95 15.97 61.38 16.28C61.28 16.33 61.17 16.38 61.07 16.42C61.02 16.44 60.97 16.46 60.91 16.48C60.77 16.53 60.64 16.57 60.5 16.6C60.36 16.63 60.23 16.67 60.08 16.69C60.05 16.7 60.01 16.7 59.98 16.71C59.5 16.77 58.95 16.78 58.29 16.7C56.73 16.35 55.64 14.81 55.64 12.56C55.64 10.02 57.04 8.34 59.12 8.34C59.87 8.34 60.5 8.66 61.17 9.24L62.86 6.94C61.87 6.09 60.59 5.44 58.92 5.44C55.25 5.44 52.01 8.06 52.01 12.56C52.01 12.79 52.02 13.02 52.04 13.24L51.97 13.42L51.96 13.44C51.6 14.48 50.6 15.62 49.23 16.25C48.09 16.78 46.74 16.92 45.35 16.37C44.49 15.82 43.9 14.88 43.73 13.56H51.52C51.62 13.24 51.69 12.59 51.69 11.91C51.69 8.18 49.76 5.44 46.03 5.44C44.91 5.44 43.87 5.78 42.99 6.4L41.64 5.73C41.23 5.56 40.79 5.44 40.04 5.44C38.64 5.44 37.19 6.41 36.2 8.18H36.13L35.86 5.78H28.09C27.53 5.59 26.81 5.44 26.06 5.44C23.18 5.44 20.6 7.16 20.6 10.34C20.6 11.94 21.47 13.22 22.41 13.9V14C21.59 14.58 20.89 15.53 20.89 16.54C20.89 17.65 21.42 18.36 22.12 18.82V18.94C20.89 19.64 20.19 20.61 20.19 21.75C20.19 24.15 22.66 25.24 25.85 25.24C30.37 25.24 33.22 23.16 33.22 20.42C33.22 20.19 33.19 19.97 33.15 19.77H36.52V11.26C37.27 9.3 38.55 8.59 39.61 8.59C40.17 8.59 40.55 8.66 41.04 8.81C40.55 9.86 40.27 11.12 40.27 12.57C40.27 15.41 41.46 17.51 43.29 18.67C43.3 18.68 43.31 18.68 43.33 18.69C44.38 19.34 45.64 19.7 47.02 19.7C47.23 19.7 47.44 19.69 47.65 19.67C48.65 19.6 49.6 19.36 50.47 18.96C51.52 18.48 52.46 17.78 53.21 16.96C54.39 18.74 56.33 19.71 58.61 19.71C58.64 19.71 58.66 19.71 58.69 19.71C60.14 19.78 61.41 19.57 62.48 19.07C62.85 18.9 63.19 18.68 63.5 18.46V19.77H67.05V9.98C67.98 9.06 68.76 8.49 69.82 8.49C71.15 8.49 71.73 9.22 71.73 11.33V19.73H75.28ZM26.06 7.86C27.27 7.86 28.19 8.76 28.19 10.33C28.19 11.95 27.25 12.85 26.06 12.85C24.88 12.85 23.93 11.95 23.93 10.33C23.94 8.76 24.86 7.86 26.06 7.86ZM26.38 22.98C24.42 22.98 23.17 22.33 23.17 21.19C23.17 20.63 23.44 20.1 24.04 19.61C24.52 19.73 25.1 19.8 25.93 19.8H27.57C29.02 19.8 29.82 20.04 29.82 21.01C29.81 22.09 28.41 22.98 26.38 22.98ZM28.17 17.02H25.87C24.27 17.02 23.74 16.63 23.74 15.91C23.74 15.35 23.96 15.06 24.32 14.75C24.9 14.94 25.53 15.07 26.06 15.07C28.96 15.07 31.28 13.52 31.28 10.47C31.28 9.62 31.01 8.87 30.68 8.41H32.97V19.12C32.38 17.67 30.74 17.02 28.17 17.02ZM46.08 8.2C47.82 8.2 48.64 9.36 48.64 11.18H43.68C43.95 9.22 44.65 8.2 46.08 8.2Z"/>
        <path d="M93.91 18.45V19.75H97V8.55H95.98C95.88 8.25 95.76 7.95 95.58 7.65C94.63 6.03 93.14 4.81 90.33 4.75C85.56 4.64 82.3 7.26 80.16 10.02C79.86 10.41 79.58 10.81 79.31 11.21V7.42L80.43 2.48L79.3 0.01H75.8V19.73H79.3V17.2C79.35 17.1 79.39 17 79.44 16.9C79.85 16.01 80.38 14.92 81.06 13.79L84.08 19.74H87.14V18.48L87.08 18.39C87.78 19.23 88.83 19.76 90.15 19.76C91.68 19.76 92.64 19.47 93.81 18.46H93.91V18.45ZM86.18 15.76C86.18 16.44 86.33 17.05 86.59 17.59L82.68 11.43C84.49 9.21 86.9 7.25 90.26 7.33C92.43 7.38 93.21 8.27 93.52 8.79C93.83 9.32 93.87 9.99 93.89 10.79C88.5 11.37 86.18 12.88 86.18 15.76ZM89.53 15.47C89.53 14.27 90.63 13.36 93.91 12.95V15.66C93.05 16.5 92.31 16.98 91.3 16.98C90.27 16.98 89.53 16.53 89.53 15.47Z"/>
        <path d="M15.8 7.1C15.66 5.89 15.13 3.84 13.14 2.77C10.34 1.26 6.64001 2.01 4.26001 4.1C1.81001 6.24 0.740015 8.45 0.300015 10.83C-0.0399854 12.64 -0.00998547 14.56 0.0200145 16.58C0.0300145 17.15 0.0400145 17.73 0.0400145 18.32V18.88L0.590015 18.98C1.02001 19.06 1.56001 19.19 2.18001 19.33C3.73001 19.69 5.78001 20.17 7.86001 20.34C10.82 20.58 14.1 20.22 16.59 17.96C18.8 15.96 19.32 13.69 18.85 11.64C18.42 9.77 17.17 8.14 15.8 7.1ZM1.62001 11.08C2.01001 8.99 2.93001 7.05 5.14001 5.11C7.18001 3.32 10.29 2.77 12.5 3.96C13.49 4.49 14 5.39 14.25 6.24C13.46 5.93 12.45 5.68 11.29 5.69C9.31001 5.69 6.92001 6.41 4.42001 8.62C2.80001 10.06 1.92001 11.45 1.40001 12.77C1.45001 12.19 1.51001 11.63 1.62001 11.08ZM1.68001 17.52C1.76001 17.18 1.83001 16.84 1.89001 16.51C1.92001 16.35 1.94001 16.2 1.97001 16.05C2.06001 15.49 2.16001 14.94 2.31001 14.36C2.68001 12.92 3.40001 11.34 5.32001 9.63C7.59001 7.62 9.67001 7.04 11.31 7.03C12.77 7.03 13.91 7.48 14.55 7.87C14.9 10.63 13.03 12.89 10.14 14.61C7.53001 16.16 4.27001 17.14 1.68001 17.52ZM15.68 16.96C13.6 18.85 10.77 19.22 7.96001 19C6.61001 18.89 5.32001 18.66 4.16001 18.4C6.38001 17.86 8.77001 16.98 10.81 15.77C13.46 14.2 15.69 11.94 15.91 9.01C16.67 9.83 17.29 10.85 17.54 11.94C17.89 13.5 17.55 15.27 15.68 16.96Z"/>
        <path d="M61.9 26.52C61.79 26.41 61.67 26.33 61.53 26.26C61.39 26.19 61.25 26.13 61.11 26.07C60.97 26.01 60.83 25.96 60.69 25.91C60.55 25.86 60.43 25.8 60.32 25.73C60.21 25.66 60.13 25.58 60.06 25.48C60 25.38 59.96 25.25 59.96 25.1C59.96 24.98 59.98 24.87 60.02 24.77C60.06 24.67 60.11 24.58 60.19 24.5C60.27 24.42 60.36 24.37 60.47 24.32C60.58 24.27 60.71 24.25 60.86 24.25C61.01 24.25 61.15 24.27 61.25 24.31C61.36 24.35 61.45 24.4 61.53 24.45C61.61 24.5 61.67 24.55 61.72 24.59C61.77 24.63 61.82 24.65 61.85 24.65C61.89 24.65 61.91 24.64 61.94 24.62C61.96 24.6 61.98 24.57 62 24.53L62.16 24.18C61.99 24 61.8 23.86 61.58 23.77C61.36 23.67 61.11 23.63 60.84 23.63C60.6 23.63 60.39 23.67 60.2 23.75C60.02 23.83 59.86 23.94 59.74 24.08C59.61 24.22 59.52 24.38 59.45 24.55C59.39 24.73 59.35 24.91 59.35 25.1C59.35 25.34 59.38 25.54 59.45 25.7C59.52 25.86 59.6 25.99 59.71 26.1C59.82 26.21 59.94 26.3 60.08 26.36C60.22 26.43 60.36 26.49 60.5 26.54C60.65 26.59 60.79 26.64 60.92 26.69C61.06 26.74 61.18 26.8 61.29 26.87C61.4 26.94 61.48 27.03 61.55 27.13C61.62 27.23 61.65 27.37 61.65 27.53C61.65 27.68 61.63 27.81 61.58 27.93C61.54 28.05 61.47 28.15 61.39 28.24C61.31 28.33 61.21 28.39 61.08 28.44C60.96 28.49 60.82 28.51 60.67 28.51C60.48 28.51 60.33 28.48 60.2 28.43C60.07 28.37 59.96 28.31 59.87 28.24C59.78 28.17 59.71 28.11 59.64 28.06C59.58 28 59.53 27.97 59.48 27.97C59.45 27.97 59.42 27.98 59.39 28C59.37 28.02 59.34 28.04 59.33 28.07L59.14 28.42C59.32 28.64 59.54 28.81 59.8 28.94C60.06 29.07 60.34 29.13 60.65 29.13C60.91 29.13 61.13 29.09 61.33 29C61.53 28.91 61.7 28.79 61.84 28.64C61.98 28.49 62.08 28.31 62.16 28.1C62.23 27.89 62.27 27.67 62.27 27.43C62.27 27.21 62.24 27.02 62.17 26.87C62.1 26.76 62.01 26.63 61.9 26.52Z"/>
        <path d="M65.3 24.33H66.86V29.11H67.51V24.33H69.07V23.72H65.3V24.33Z"/>
        <path d="M75.58 27C75.58 27.23 75.55 27.43 75.49 27.62C75.43 27.81 75.35 27.97 75.24 28.11C75.13 28.25 75 28.35 74.84 28.43C74.68 28.51 74.51 28.54 74.31 28.54C74.11 28.54 73.93 28.5 73.77 28.43C73.61 28.35 73.48 28.25 73.37 28.11C73.26 27.97 73.18 27.81 73.12 27.62C73.06 27.43 73.04 27.22 73.04 27V23.72H72.39V27C72.39 27.31 72.43 27.6 72.52 27.87C72.61 28.14 72.74 28.37 72.9 28.56C73.07 28.75 73.27 28.91 73.5 29.02C73.74 29.13 74 29.19 74.3 29.19C74.6 29.19 74.86 29.13 75.1 29.02C75.34 28.91 75.54 28.76 75.7 28.56C75.87 28.36 75.99 28.13 76.08 27.87C76.17 27.6 76.21 27.32 76.21 27V23.72H75.56V27H75.58Z"/>
        <path d="M83.55 24.46C83.34 24.22 83.09 24.04 82.8 23.91C82.51 23.78 82.19 23.71 81.83 23.71H80.03V29.11H81.83C82.18 29.11 82.51 29.05 82.8 28.92C83.09 28.79 83.34 28.61 83.55 28.37C83.76 28.13 83.92 27.85 84.03 27.52C84.14 27.19 84.2 26.82 84.2 26.42C84.2 26.02 84.14 25.65 84.03 25.32C83.92 24.98 83.76 24.7 83.55 24.46ZM83.42 27.31C83.34 27.57 83.23 27.79 83.08 27.97C82.93 28.15 82.75 28.29 82.54 28.38C82.33 28.47 82.1 28.52 81.84 28.52H80.69V24.31H81.84C82.1 24.31 82.33 24.36 82.54 24.45C82.75 24.54 82.93 24.68 83.08 24.86C83.23 25.04 83.34 25.26 83.42 25.52C83.5 25.78 83.54 26.08 83.54 26.41C83.54 26.75 83.5 27.05 83.42 27.31Z"/>
        <path d="M88.55 23.72H87.9V29.12H88.55V23.72Z"/>
        <path d="M96.83 25.31C96.72 24.97 96.55 24.68 96.35 24.44C96.14 24.19 95.89 24 95.6 23.87C95.31 23.73 94.99 23.67 94.63 23.67C94.28 23.67 93.95 23.74 93.66 23.87C93.37 24.01 93.12 24.2 92.91 24.44C92.7 24.68 92.54 24.97 92.43 25.31C92.32 25.65 92.26 26.02 92.26 26.42C92.26 26.82 92.32 27.2 92.43 27.53C92.54 27.87 92.71 28.16 92.91 28.4C93.12 28.64 93.37 28.83 93.66 28.97C93.95 29.1 94.27 29.17 94.63 29.17C94.98 29.17 95.31 29.1 95.6 28.97C95.89 28.83 96.14 28.64 96.35 28.4C96.56 28.16 96.72 27.87 96.83 27.53C96.94 27.19 97 26.82 97 26.42C97 26.01 96.94 25.64 96.83 25.31ZM96.21 27.31C96.13 27.57 96.02 27.79 95.87 27.98C95.72 28.16 95.54 28.3 95.33 28.4C95.12 28.5 94.88 28.54 94.62 28.54C94.36 28.54 94.13 28.49 93.92 28.4C93.71 28.3 93.53 28.16 93.38 27.98C93.23 27.8 93.12 27.57 93.04 27.31C92.96 27.05 92.92 26.75 92.92 26.42C92.92 26.09 92.96 25.79 93.04 25.53C93.12 25.27 93.23 25.04 93.38 24.86C93.53 24.68 93.71 24.54 93.92 24.44C94.13 24.34 94.36 24.29 94.62 24.29C94.88 24.29 95.12 24.34 95.33 24.44C95.54 24.54 95.72 24.68 95.87 24.86C96.02 25.04 96.13 25.26 96.21 25.53C96.29 25.79 96.33 26.09 96.33 26.42C96.33 26.75 96.29 27.05 96.21 27.31Z" />
    </symbol>

</svg>
