<svg xmlns="http://www.w3.org/2000/svg" width="126" height="126" viewBox="0 0 126 126" fill="none">
<path d="M62.9768 102.069C84.7936 102.069 102.479 84.3833 102.479 62.5665C102.479 40.7498 84.7936 23.0637 62.9768 23.0637C41.16 23.0637 23.4741 40.7498 23.4741 62.5665C23.4741 84.3833 41.16 102.069 62.9768 102.069Z" fill="#3BA059"/>
<path fill-rule="evenodd" clip-rule="evenodd" d="M62.5673 62.0505L62.5709 62.043C62.7624 52.4393 60.4181 49.574 56.8193 45.4712C56.6009 45.2222 57.1624 45.6576 56.8628 45.4052C62.09 49.8114 63.4334 53.7987 62.8797 61.4552L62.9364 61.3428C65.6424 56.203 66.916 51.0881 67.3025 45.3351C68.2164 31.7379 54.352 23.7274 48.7856 37.5042C34.1269 35.0736 32.8343 53.7513 45.8342 57.3804C49.633 58.4409 56.3303 58.1287 61.3384 61.1464C62.5193 61.858 62.5676 62.0505 62.5673 62.0505Z" fill="white"/>
<path fill-rule="evenodd" clip-rule="evenodd" d="M74.1423 100.76C78.6708 99.3027 82.9694 96.9181 86.5749 93.8069C98.2185 83.7604 93.501 64.1241 81.001 65.2971L81.1237 66.2909C84.1356 66.0679 86.9274 68.2652 88.7253 70.345C93.3529 75.6978 90.0513 89.1159 85.4756 93.4189C80.8999 97.722 78.1144 98.3992 73.9268 99.9648L74.1423 100.76Z" fill="white"/>
<path d="M83.9225 94.7955C83.9225 94.7955 80.8515 96.9589 79.2928 95.7327C77.8612 94.603 75.7952 94.2456 76.2187 95.5477C76.6452 96.85 78.4144 97.2717 80.2077 96.8167C82.0003 96.3625 82.9806 95.6109 83.9225 94.7955Z" fill="#3BA059"/>
<path fill-rule="evenodd" clip-rule="evenodd" d="M63.4539 62.5581L63.4615 62.5614C73.067 62.595 75.8933 60.2039 79.9365 56.5382C80.1818 56.3158 79.7556 56.8842 80.0032 56.5807C75.6836 61.8795 71.7188 63.2883 64.0543 62.8605L64.1675 62.9154C69.3511 65.5365 74.4863 66.726 80.245 67.0178C93.8557 67.7079 101.636 53.7137 87.7702 48.3745C89.9594 33.6779 71.2631 32.6925 67.8482 45.7503C66.8503 49.5661 67.2727 56.2574 64.3375 61.3144C63.6456 62.5068 63.4539 62.5583 63.4539 62.5581Z" fill="white"/>
<path fill-rule="evenodd" clip-rule="evenodd" d="M63.1908 63.2777L63.1873 63.2853C62.9958 72.8889 65.3401 75.7541 68.9389 79.857C69.1572 80.1059 68.5958 79.6705 68.8953 79.923C63.6681 75.5169 62.3248 71.5295 62.8785 63.873L62.8218 63.9853C60.1157 69.1252 58.842 74.2401 58.4555 79.9932C57.5417 93.5904 71.4061 101.601 76.9725 87.8241C91.6312 90.2545 92.9241 71.5769 79.924 67.9478C76.1251 66.8873 69.4278 67.1995 64.4198 64.1817C63.2388 63.4702 63.1906 63.2777 63.1908 63.2777Z" fill="white"/>
<path fill-rule="evenodd" clip-rule="evenodd" d="M62.4257 62.9658L62.4182 62.9621C52.8149 62.759 49.9467 65.0998 45.8394 68.6936C45.5903 68.9117 46.0264 68.3507 45.7735 68.6499C50.186 63.428 54.175 62.0897 61.8308 62.6528L61.7186 62.5959C56.582 59.8835 51.4686 58.6036 45.7161 58.2101C32.12 57.2796 24.0926 71.1343 37.8626 76.7176C35.4142 91.3732 54.0904 92.6886 57.7352 79.6932C58.8004 75.8957 58.4963 69.198 61.5202 64.1936C62.2331 63.0135 62.4257 62.9656 62.4257 62.9658Z" fill="white"/>
<path fill-rule="evenodd" clip-rule="evenodd" d="M51.6778 12.4247C51.6954 11.5419 51.4793 11.2778 51.147 10.9006C51.1268 10.8777 51.1787 10.9177 51.151 10.8945C51.6337 11.2996 51.7577 11.6661 51.7066 12.37L51.7118 12.3597C51.9617 11.8872 52.0793 11.4169 52.115 10.8881C52.1994 9.63807 50.9192 8.90166 50.4052 10.1682C49.0516 9.94473 48.9323 11.6618 50.1327 11.9954C50.4834 12.0929 51.1019 12.0642 51.5643 12.3416C51.6733 12.407 51.6778 12.4247 51.6778 12.4247Z" fill="#009846"/>
<path fill-rule="evenodd" clip-rule="evenodd" d="M51.7596 12.4714C52.6466 12.4745 52.9083 12.255 53.2816 11.918C53.3043 11.8975 53.2649 11.9498 53.2878 11.9219C52.8889 12.409 52.5228 12.5385 51.8151 12.4992L51.8255 12.5042C52.3042 12.7452 52.7784 12.8545 53.3101 12.8814C54.5669 12.9448 55.2854 11.6583 54.005 11.1675C54.2071 9.81642 52.4807 9.72583 52.1654 10.9262C52.0732 11.277 52.1123 11.8922 51.8412 12.3571C51.7773 12.4667 51.7596 12.4714 51.7596 12.4714Z" fill="#009846"/>
<path fill-rule="evenodd" clip-rule="evenodd" d="M51.7353 12.5375C51.7177 13.4204 51.9338 13.6845 52.2661 14.0617C52.2863 14.0846 52.2344 14.0445 52.2621 14.0677C51.7794 13.6627 51.6554 13.2961 51.7065 12.5923L51.7013 12.6026C51.4514 13.0751 51.3338 13.5453 51.2981 14.0742C51.2137 15.3242 52.4939 16.0606 53.0079 14.7941C54.3615 15.0175 54.4809 13.3005 53.2805 12.9669C52.9297 12.8694 52.3113 12.8981 51.8488 12.6206C51.7398 12.5552 51.7353 12.5375 51.7353 12.5375Z" fill="#009846"/>
<path fill-rule="evenodd" clip-rule="evenodd" d="M51.6647 12.5089C50.7779 12.4902 50.5124 12.705 50.1331 13.0354C50.1101 13.0555 50.1504 13.0039 50.1271 13.0314C50.5345 12.5514 50.9028 12.4283 51.6098 12.4801L51.5994 12.4749C51.1251 12.2255 50.6529 12.1079 50.1218 12.0717C48.8663 11.9861 48.1251 13.2598 49.3966 13.7731C49.1705 15.1204 50.895 15.2413 51.2316 14.0466C51.3299 13.6975 51.3019 13.0818 51.5811 12.6217C51.6469 12.5133 51.6647 12.5089 51.6647 12.5089Z" fill="#009846"/>
<path fill-rule="evenodd" clip-rule="evenodd" d="M108.734 35.0096C108.752 34.1268 108.536 33.8627 108.204 33.4855C108.183 33.4626 108.235 33.5026 108.208 33.4794C108.69 33.8845 108.814 34.251 108.763 34.9549L108.768 34.9446C109.018 34.4721 109.136 34.0018 109.172 33.473C109.256 32.223 107.976 31.4866 107.462 32.7531C106.108 32.5296 105.989 34.2467 107.189 34.5803C107.54 34.6778 108.158 34.6491 108.621 34.9265C108.73 34.9919 108.734 35.0096 108.734 35.0096Z" fill="#009846"/>
<path fill-rule="evenodd" clip-rule="evenodd" d="M108.816 35.0563C109.703 35.0594 109.965 34.8399 110.338 34.5029C110.361 34.4824 110.322 34.5347 110.344 34.5068C109.946 34.9939 109.579 35.1234 108.872 35.0841L108.882 35.0891C109.361 35.3301 109.835 35.4394 110.367 35.4663C111.623 35.5297 112.342 34.2432 111.062 33.7524C111.264 32.4013 109.537 32.3107 109.222 33.5112C109.13 33.8619 109.169 34.4771 108.898 34.942C108.834 35.0516 108.816 35.0563 108.816 35.0563Z" fill="#009846"/>
<path fill-rule="evenodd" clip-rule="evenodd" d="M108.792 35.1224C108.774 36.0053 108.99 36.2694 109.323 36.6466C109.343 36.6695 109.291 36.6294 109.319 36.6527C108.836 36.2476 108.712 35.881 108.763 35.1772L108.758 35.1875C108.508 35.66 108.39 36.1302 108.355 36.6591C108.27 37.9091 109.551 38.6455 110.065 37.379C111.418 37.6024 111.537 35.8854 110.337 35.5518C109.986 35.4543 109.368 35.483 108.905 35.2056C108.796 35.1401 108.792 35.1224 108.792 35.1224Z" fill="#009846"/>
<path fill-rule="evenodd" clip-rule="evenodd" d="M108.721 35.0938C107.835 35.0751 107.569 35.2899 107.19 35.6203C107.167 35.6404 107.207 35.5888 107.184 35.6163C107.591 35.1363 107.959 35.0132 108.666 35.065L108.656 35.0598C108.182 34.8104 107.71 34.6928 107.178 34.6566C105.923 34.571 105.182 35.8447 106.453 36.358C106.227 37.7053 107.952 37.8262 108.288 36.6315C108.387 36.2824 108.358 35.6667 108.638 35.2066C108.704 35.0982 108.721 35.0938 108.721 35.0938Z" fill="#009846"/>
<path fill-rule="evenodd" clip-rule="evenodd" d="M82.5834 111.085C82.6011 110.202 82.385 109.938 82.0527 109.561C82.0325 109.538 82.0844 109.578 82.0567 109.555C82.5394 109.96 82.6634 110.326 82.6123 111.03L82.6175 111.02C82.8674 110.548 82.985 110.077 83.0207 109.548C83.1051 108.298 81.8248 107.562 81.3108 108.829C79.9573 108.605 79.8379 110.322 81.0383 110.656C81.3891 110.753 82.0075 110.725 82.4699 111.002C82.579 111.067 82.5834 111.085 82.5834 111.085Z" fill="#009846"/>
<path fill-rule="evenodd" clip-rule="evenodd" d="M82.6653 111.132C83.5522 111.135 83.8139 110.915 84.1873 110.578C84.2099 110.558 84.1706 110.61 84.1934 110.582C83.7946 111.069 83.4285 111.199 82.7207 111.16L82.7312 111.165C83.2098 111.406 83.684 111.515 84.2158 111.542C85.4725 111.605 86.191 110.319 84.9106 109.828C85.1128 108.477 83.3864 108.386 83.0711 109.587C82.9789 109.937 83.0179 110.553 82.7469 111.017C82.683 111.127 82.6653 111.132 82.6653 111.132Z" fill="#009846"/>
<path fill-rule="evenodd" clip-rule="evenodd" d="M82.641 111.198C82.6233 112.081 82.8395 112.345 83.1718 112.722C83.1919 112.745 83.1401 112.705 83.1677 112.728C82.6851 112.323 82.561 111.957 82.6122 111.253L82.6069 111.263C82.357 111.735 82.2394 112.206 82.2037 112.735C82.1194 113.985 83.3996 114.721 83.9136 113.454C85.2671 113.678 85.3865 111.961 84.1861 111.627C83.8353 111.53 83.2169 111.558 82.7545 111.281C82.6454 111.216 82.641 111.198 82.641 111.198Z" fill="#009846"/>
<path fill-rule="evenodd" clip-rule="evenodd" d="M82.5704 111.169C81.6836 111.151 81.4181 111.365 81.0388 111.696C81.0158 111.716 81.0561 111.664 81.0327 111.692C81.4401 111.212 81.8085 111.089 82.5154 111.14L82.5051 111.135C82.0307 110.886 81.5586 110.768 81.0274 110.732C79.772 110.647 79.0307 111.92 80.3022 112.433C80.0761 113.781 81.8007 113.902 82.1372 112.707C82.2356 112.358 82.2075 111.742 82.4867 111.282C82.5526 111.174 82.5704 111.169 82.5704 111.169Z" fill="#009846"/>
<path fill-rule="evenodd" clip-rule="evenodd" d="M18.3947 87.3115C18.4124 86.4286 18.1963 86.1645 17.864 85.7874C17.8438 85.7645 17.8957 85.8045 17.868 85.7813C18.3507 86.1864 18.4747 86.5529 18.4236 87.2568L18.4288 87.2465C18.6787 86.774 18.7963 86.3037 18.832 85.7749C18.9164 84.5249 17.6362 83.7885 17.1222 85.055C15.7686 84.8315 15.6492 86.5486 16.8496 86.8822C17.2004 86.9797 17.8188 86.951 18.2813 87.2284C18.3903 87.2938 18.3947 87.3115 18.3947 87.3115Z" fill="#009846"/>
<path fill-rule="evenodd" clip-rule="evenodd" d="M18.4766 87.3582C19.3636 87.3613 19.6252 87.1418 19.9986 86.8048C20.0212 86.7843 19.9819 86.8366 20.0047 86.8087C19.6059 87.2958 19.2398 87.4253 18.532 87.386L18.5425 87.391C19.0212 87.632 19.4953 87.7413 20.0271 87.7682C21.2839 87.8316 22.0023 86.5451 20.7219 86.0543C20.9241 84.7032 19.1977 84.6126 18.8824 85.813C18.7902 86.1638 18.8292 86.7789 18.5582 87.2438C18.4943 87.3535 18.4766 87.3582 18.4766 87.3582Z" fill="#009846"/>
<path fill-rule="evenodd" clip-rule="evenodd" d="M18.4523 87.4243C18.4346 88.3072 18.6508 88.5713 18.9831 88.9485C19.0032 88.9714 18.9514 88.9313 18.9791 88.9545C18.4964 88.5495 18.3724 88.1829 18.4235 87.479L18.4182 87.4894C18.1684 87.9619 18.0508 88.4321 18.0151 88.961C17.9307 90.211 19.2109 90.9474 19.7249 89.6809C21.0785 89.9043 21.1978 88.1873 19.9974 87.8537C19.6467 87.7562 19.0282 87.7849 18.5658 87.5074C18.4568 87.442 18.4523 87.4243 18.4523 87.4243Z" fill="#009846"/>
<path fill-rule="evenodd" clip-rule="evenodd" d="M18.3817 87.3957C17.4949 87.377 17.2294 87.5918 16.8501 87.9222C16.8271 87.9423 16.8674 87.8907 16.844 87.9182C17.2515 87.4381 17.6198 87.3151 18.3267 87.3669L18.3164 87.3616C17.8421 87.1123 17.3699 86.9946 16.8387 86.9585C15.5833 86.8729 14.8421 88.1466 16.1136 88.6599C15.8875 90.0072 17.612 90.1281 17.9486 88.9334C18.0469 88.5843 18.0188 87.9686 18.2981 87.5085C18.3639 87.4 18.3817 87.3957 18.3817 87.3957Z" fill="#009846"/>
<path d="M8.90047 63.7138L9.92393 63.8186L10.045 66.4309L15.5925 66.1739L15.6507 67.4278L9.08668 67.7319L8.90047 63.7138Z" fill="#009846"/>
<path d="M15.8196 57.2857L14.2668 57.5523L14.0656 59.7206L15.5428 60.2684L15.4224 61.5656L9.06844 58.9225L9.21169 57.3791L15.9427 55.9601L15.8196 57.2857ZM13.1416 59.3865L13.2962 57.72L10.0942 58.2633L13.1416 59.3865Z" fill="#009846"/>
<path d="M10.2442 51.08C10.4337 50.2584 10.7503 49.6613 11.1941 49.2887C11.6392 48.9099 12.2016 48.7988 12.8811 48.9555C13.5915 49.1193 14.0732 49.4711 14.3261 50.0109C14.5728 50.5492 14.6085 51.1983 14.4333 51.9581L14.2602 52.7087L16.4934 53.2236L16.2114 54.4468L9.80836 52.9703L10.2442 51.08ZM13.4946 51.8393C13.5957 51.4007 13.5823 51.0495 13.4545 50.7858C13.3204 50.5207 13.031 50.3368 12.5862 50.2343C11.8264 50.0591 11.3446 50.4131 11.1409 51.2965L10.9892 51.9544L13.3429 52.4972L13.4946 51.8393Z" fill="#009846"/>
<path d="M19.015 44.9765L17.4474 44.819L16.6747 46.8549L17.9521 47.7771L17.4899 48.9951L12.0718 44.7521L12.6218 43.3029L19.4874 43.7318L19.015 44.9765ZM15.8734 46.2864L16.4672 44.7216L13.2363 44.3905L15.8734 46.2864Z" fill="#009846"/>
<path d="M21.9105 39.1243L19.3481 37.6861L18.2031 39.726L20.7655 41.1643L20.1511 42.2589L14.421 39.0426L15.0354 37.948L17.3324 39.2373L18.4774 37.1974L16.1804 35.9081L16.7995 34.8052L22.5295 38.0215L21.9105 39.1243Z" fill="#009846"/>
<path d="M21.5444 28.2056L22.2504 28.9241L21.1986 30.2746L25.5949 33.6988L24.8177 34.6966L20.4214 31.2724L19.3345 32.6678L18.5468 32.0542L21.5444 28.2056Z" fill="#009846"/>
<path d="M31.7789 27.1189L30.8759 27.9771L28.9499 25.9505C28.3909 25.3623 27.8646 24.7212 27.3711 24.027L29.387 29.3921L28.2634 30.4599L23.7367 25.6968L24.6397 24.8387L26.5853 26.8859C26.9478 27.2673 27.2377 27.5953 27.4549 27.8699C27.6721 28.1445 27.902 28.4508 28.1445 28.7888L26.1562 23.3974L27.2521 22.3558L31.7789 27.1189Z" fill="#009846"/>
<path d="M33.4681 17.63L37.2554 22.9998L36.2296 23.7233L34.8101 21.7106L33.963 22.308L34.4268 24.9949L33.2844 25.8006L32.8912 22.7847C32.0432 22.9794 31.3653 22.7166 30.8574 21.9965C30.4701 21.4474 30.3547 20.9042 30.5112 20.3672C30.6692 19.8213 31.1005 19.2999 31.8051 18.8029L33.4681 17.63ZM34.2784 20.9568L32.9685 19.0995L32.3857 19.5106C32.0023 19.781 31.7792 20.0586 31.7163 20.3434C31.6498 20.6231 31.7298 20.9235 31.9563 21.2447C32.1646 21.54 32.4064 21.7069 32.6818 21.7454C32.9588 21.7751 33.2397 21.6894 33.5246 21.4885L34.2784 20.9568Z" fill="#009846"/>
<path d="M74.2227 10.2072L72.9996 16.4891L71.8235 16.2601L72.8122 11.1823L71.2467 11.7591L70.8802 10.8546L73.1679 10.0018L74.2227 10.2072Z" fill="#009846"/>
<path d="M79.6579 11.541C80.3686 11.7746 80.8185 12.2228 81.0077 12.8856C81.203 13.5504 81.1333 14.3917 80.7987 15.4095C80.4622 16.4333 80.0171 17.1579 79.4636 17.5832C78.918 18.0045 78.2899 18.0983 77.5792 17.8647C76.8686 17.6311 76.4156 17.1819 76.2204 16.5171C76.0332 15.8483 76.1078 15.002 76.4444 13.9782C76.779 12.9603 77.219 12.2408 77.7646 11.8195C78.3161 11.4002 78.9473 11.3074 79.6579 11.541ZM79.3699 12.4173C79.0266 12.3044 78.7193 12.3969 78.4478 12.6948C78.1784 12.9866 77.9081 13.545 77.6369 14.3701C77.3637 15.2013 77.2479 15.8172 77.2897 16.218C77.3315 16.6188 77.524 16.8756 77.8673 16.9884C78.2106 17.1013 78.5169 17.0118 78.7864 16.72C79.0578 16.4221 79.3311 15.8546 79.6062 15.0175C79.8794 14.1864 79.9942 13.5734 79.9504 13.1787C79.9067 12.7839 79.7132 12.5301 79.3699 12.4173Z" fill="#009846"/>
<path d="M86.335 14.2002C87.0078 14.5272 87.3935 15.0317 87.492 15.7139C87.5962 16.3989 87.4142 17.2232 86.946 18.1869C86.475 19.1563 85.9367 19.8145 85.331 20.1616C84.7338 20.5058 84.0988 20.5145 83.426 20.1876C82.7531 19.8607 82.3646 19.3547 82.2604 18.6697C82.1647 17.9818 82.3523 17.1532 82.8233 16.1838C83.2915 15.2202 83.8242 14.5662 84.4214 14.222C85.0242 13.8806 85.6621 13.8733 86.335 14.2002ZM85.9319 15.0299C85.6068 14.872 85.2898 14.9224 84.9809 15.1811C84.6747 15.4341 84.3319 15.9512 83.9523 16.7324C83.57 17.5193 83.3726 18.1141 83.3602 18.5169C83.3477 18.9196 83.504 19.2 83.8291 19.3579C84.1541 19.5158 84.4697 19.4683 84.7759 19.2153C85.0848 18.9566 85.4318 18.4309 85.8169 17.6383C86.1993 16.8514 86.3953 16.2594 86.4049 15.8624C86.4146 15.4653 86.2569 15.1878 85.9319 15.0299Z" fill="#009846"/>
<path d="M95.6324 19.4633L95.9869 20.3301L88.55 23.2189L88.2033 22.3576L95.6324 19.4633ZM92.3075 17.4789C92.5562 17.6543 92.7413 17.8703 92.863 18.1267C92.9883 18.378 93.0349 18.6475 93.0027 18.9351C92.9757 19.2264 92.8672 19.5067 92.6772 19.7761C92.4872 20.0455 92.2595 20.2418 91.9942 20.365C91.734 20.4918 91.4628 20.541 91.1803 20.5124C90.9016 20.4787 90.6378 20.3742 90.3892 20.1988C90.1405 20.0234 89.9535 19.8101 89.8282 19.5588C89.7117 19.3059 89.667 19.0339 89.694 18.7426C89.7261 18.455 89.8372 18.1765 90.0272 17.9071C90.2172 17.6377 90.4423 17.4396 90.7025 17.3128C90.9678 17.1896 91.2372 17.143 91.5108 17.1731C91.7933 17.2016 92.0588 17.3036 92.3075 17.4789ZM91.869 18.1006C91.667 17.9581 91.4726 17.9257 91.2858 18.0035C91.1079 18.0797 90.9423 18.2267 90.7888 18.4442C90.639 18.6566 90.5562 18.862 90.5404 19.0604C90.5298 19.2624 90.6256 19.4346 90.8276 19.5771C91.2006 19.8402 91.5607 19.7257 91.9078 19.2335C92.255 18.7413 92.242 18.3637 91.869 18.1006ZM93.7307 22.5556C93.9794 22.731 94.1645 22.9469 94.2862 23.2034C94.4115 23.4547 94.4581 23.7242 94.4259 24.0118C94.3937 24.2994 94.2826 24.5779 94.0926 24.8473C93.9026 25.1167 93.6775 25.3148 93.4174 25.4416C93.1572 25.5685 92.886 25.6176 92.6035 25.5891C92.3247 25.5554 92.061 25.4508 91.8124 25.2755C91.5637 25.1001 91.3767 24.8867 91.2514 24.6354C91.1297 24.3789 91.0824 24.1051 91.1094 23.8138C91.1416 23.5262 91.2527 23.2477 91.4427 22.9783C91.6327 22.7089 91.8578 22.5108 92.1179 22.3839C92.3832 22.2607 92.6552 22.216 92.934 22.2497C93.2165 22.2783 93.482 22.3802 93.7307 22.5556ZM93.2922 23.1773C93.0902 23.0348 92.8958 23.0024 92.709 23.0802C92.5312 23.1564 92.3655 23.3033 92.212 23.5209C92.0622 23.7333 91.9794 23.9387 91.9636 24.137C91.953 24.339 92.0488 24.5113 92.2508 24.6538C92.6238 24.9169 92.9839 24.8023 93.331 24.3102C93.6782 23.818 93.6652 23.4404 93.2922 23.1773Z" fill="#009846"/>
<path d="M117.001 58.042L113.768 56.7553L110.517 59.1198L110.322 57.7259L113.038 55.7914L112.929 55.0097L110 55.4185L109.827 54.1753L116.334 53.267L116.508 54.5102L113.88 54.8769L113.992 55.6775L116.825 56.7799L117.001 58.042Z" fill="#009846"/>
<path d="M110.591 64.2784L112.113 63.8695V61.6919L110.591 61.283V59.9802L117.162 62.0247V63.5747L110.591 65.6098V64.2784ZM113.064 61.9391V63.6128L116.202 62.7759L113.064 61.9391Z" fill="#009846"/>
<path d="M116.384 72.4314L109.872 71.548L110.042 70.2948L112.549 70.6348C112.401 70.3588 112.298 70.0986 112.242 69.8543C112.192 69.6107 112.188 69.3351 112.229 69.0273C112.312 68.4179 112.566 67.9629 112.99 67.6622C113.415 67.3615 113.951 67.2551 114.598 67.3429L117.029 67.6727L116.862 68.9071L114.478 68.5837C114.076 68.5292 113.765 68.5766 113.547 68.7261C113.333 68.8827 113.203 69.1401 113.154 69.4982C113.087 69.9882 113.181 70.4071 113.434 70.755L116.554 71.1781L116.384 72.4314Z" fill="#009846"/>
<path d="M114.792 78.9673L113.929 78.5918L114.572 76.2537L112.802 75.767L112.242 77.8025L111.344 77.5553L111.904 75.5198L110.042 75.0079L109.354 77.511L108.446 77.2613L109.468 73.5479L115.803 75.2906L114.792 78.9673Z" fill="#009846"/>
<path d="M112.811 84.6513C112.654 85.0185 112.464 85.3167 112.242 85.5459C112.02 85.775 111.745 85.9747 111.418 86.1448L110.986 85.2675C111.424 85.0339 111.726 84.7219 111.893 84.3313C112.085 83.8824 112.058 83.4438 111.814 83.0153C111.567 82.5927 111.056 82.2157 110.281 81.8843C109.523 81.5605 108.903 81.4541 108.421 81.5653C107.939 81.6765 107.601 81.9595 107.407 82.4142C107.305 82.6532 107.255 82.8834 107.256 83.1049C107.264 83.3288 107.302 83.5793 107.37 83.8564L106.456 84.1071C106.333 83.8134 106.269 83.4792 106.264 83.1046C106.256 82.7359 106.334 82.3591 106.499 81.9744C106.723 81.4497 107.043 81.0386 107.46 80.741C107.877 80.4434 108.369 80.2847 108.936 80.265C109.508 80.2477 110.13 80.3824 110.8 80.6689C111.459 80.9504 111.976 81.3057 112.351 81.7349C112.723 82.1699 112.947 82.6379 113.023 83.1389C113.096 83.6458 113.025 84.1499 112.811 84.6513Z" fill="#009846"/>
<path d="M108.397 92.6099L107.61 91.9816L108.491 90.5143L103.714 87.6448L104.365 86.5606L109.142 89.4301L110.053 87.9139L110.909 88.428L108.397 92.6099Z" fill="#009846"/>
<path d="M102.191 95.7503C101.845 96.0498 101.493 96.2304 101.134 96.2922C100.772 96.359 100.397 96.2376 100.012 95.9281C99.4778 95.4995 99.2479 95.0061 99.3221 94.4478C99.4011 93.8935 99.7125 93.2777 100.256 92.6003L101.494 91.0577L106.619 95.1706L105.542 96.5129C104.407 97.927 103.404 98.2848 102.534 97.5864C102.232 97.3444 102.059 97.0545 102.013 96.7168C101.971 96.3831 102.031 96.0609 102.191 95.7503ZM105.114 95.5722L103.727 94.4592L103.245 95.0599C103.027 95.3318 102.913 95.5945 102.905 95.8479C102.902 96.1054 103.019 96.3293 103.256 96.5198C103.503 96.7182 103.744 96.773 103.977 96.6843C104.207 96.6005 104.463 96.383 104.745 96.032L105.114 95.5722ZM100.984 93.197C100.695 93.5579 100.529 93.8759 100.487 94.1511C100.441 94.4313 100.569 94.6923 100.87 94.9344C101.162 95.1685 101.446 95.2457 101.721 95.1659C101.992 95.0911 102.253 94.8979 102.503 94.5864L103.045 93.9116L101.443 92.6259L100.984 93.197Z" fill="#009846"/>
<path d="M94.8329 98.3825L96.1775 99.2037L97.756 97.7035L97.0042 96.3189L97.9486 95.4214L100.993 101.593L99.8698 102.661L93.8679 99.2996L94.8329 98.3825ZM98.2319 98.5631L97.0187 99.7161L99.7871 101.414L98.2319 98.5631Z" fill="#009846"/>
<path fill-rule="evenodd" clip-rule="evenodd" d="M18.3075 62.9994C18.3075 38.2921 38.3368 18.2628 63.0443 18.2628C87.7519 18.2628 107.781 38.2921 107.781 62.9994C107.781 87.7067 87.7519 107.736 63.0443 107.736C38.3368 107.736 18.3075 87.7068 18.3075 62.9994ZM63.0443 19.7738C39.1713 19.7738 19.8185 39.1266 19.8185 62.9994C19.8185 86.8722 39.1713 106.225 63.0443 106.225C86.9173 106.225 106.27 86.8722 106.27 62.9994C106.27 39.1266 86.9173 19.7738 63.0443 19.7738Z" fill="#3BA059"/>
<path fill-rule="evenodd" clip-rule="evenodd" d="M63.0003 121.245C95.1685 121.245 121.245 95.168 121.245 62.9999C121.245 30.832 95.1685 4.75472 63.0003 4.75472C30.8321 4.75472 4.75472 30.8321 4.75472 62.9999C4.75472 95.1679 30.8321 121.245 63.0003 121.245ZM126 62.9999C126 97.7939 97.7945 126 63.0003 126C28.2061 126 0 97.7939 0 62.9999C0 28.2061 28.2061 0 63.0003 0C97.7945 0 126 28.2061 126 62.9999Z" fill="#3BA059"/>
<path d="M53.392 116.095L54.398 109.775L55.5813 109.963L54.7681 115.072L56.3128 114.442L56.7102 115.333L54.4532 116.264L53.392 116.095Z" fill="#009846"/>
<path d="M48.1921 114.992C47.4732 114.786 47.0066 114.355 46.7925 113.7C46.5723 113.043 46.6101 112.199 46.906 111.17C47.2036 110.134 47.621 109.393 48.1581 108.947C48.6873 108.505 49.3115 108.388 50.0304 108.594C50.7494 108.801 51.219 109.233 51.4392 109.89C51.6516 110.551 51.6089 111.399 51.3113 112.435C51.0154 113.465 50.6029 114.201 50.0736 114.642C49.5383 115.082 48.9111 115.199 48.1921 114.992ZM48.4469 114.106C48.7942 114.205 49.0978 114.101 49.3578 113.793C49.616 113.492 49.865 112.923 50.1049 112.089C50.3465 111.248 50.4388 110.628 50.382 110.229C50.3251 109.83 50.123 109.581 49.7757 109.481C49.4284 109.381 49.1256 109.482 48.8674 109.784C48.6075 110.092 48.3558 110.669 48.1124 111.516C47.8708 112.357 47.7794 112.974 47.838 113.367C47.8966 113.759 48.0996 114.006 48.4469 114.106Z" fill="#009846"/>
<path d="M41.2861 112.501C40.6027 112.197 40.2004 111.706 40.0791 111.027C39.952 110.346 40.1063 109.516 40.542 108.537C40.9803 107.553 41.4963 106.877 42.09 106.509C42.6753 106.145 43.3097 106.116 43.9931 106.42C44.6765 106.724 45.0818 107.217 45.2088 107.898C45.3275 108.582 45.1677 109.417 44.7295 110.401C44.2938 111.38 43.7833 112.051 43.1979 112.415C42.6068 112.777 41.9696 112.805 41.2861 112.501ZM41.6612 111.658C41.9914 111.805 42.3065 111.744 42.6066 111.476C42.9041 111.212 43.2295 110.684 43.5827 109.891C43.9385 109.091 44.1158 108.49 44.1148 108.087C44.1137 107.684 43.9481 107.409 43.618 107.262C43.2879 107.116 42.974 107.174 42.6765 107.437C42.3764 107.706 42.0472 108.243 41.6888 109.048C41.333 109.847 41.157 110.445 41.1606 110.842C41.1642 111.239 41.3311 111.511 41.6612 111.658Z" fill="#009846"/>
<path d="M31.8147 107.525L31.4318 106.67L38.7696 103.538L39.1445 104.388L31.8147 107.525ZM35.2032 109.399C34.9489 109.232 34.7567 109.022 34.6267 108.77C34.4931 108.523 34.4377 108.255 34.4604 107.966C34.4778 107.674 34.577 107.391 34.758 107.115C34.9391 106.839 35.1601 106.636 35.4213 106.504C35.6771 106.369 35.9466 106.311 36.2298 106.33C36.5095 106.354 36.7766 106.45 37.0309 106.617C37.2852 106.784 37.4791 106.991 37.6126 107.238C37.7374 107.487 37.7911 107.758 37.7737 108.05C37.751 108.338 37.6491 108.62 37.4681 108.896C37.2871 109.171 37.0686 109.377 36.8128 109.512C36.5517 109.644 36.2839 109.699 36.0095 109.678C35.7263 109.659 35.4575 109.566 35.2032 109.399ZM35.621 108.763C35.8276 108.899 36.0229 108.925 36.207 108.841C36.3823 108.759 36.543 108.606 36.6893 108.384C36.832 108.167 36.908 107.959 36.9172 107.76C36.9211 107.558 36.8198 107.389 36.6131 107.253C36.2317 107.002 35.8756 107.129 35.5448 107.632C35.2141 108.135 35.2395 108.512 35.621 108.763ZM33.6135 104.372C33.3592 104.205 33.167 103.995 33.037 103.743C32.9035 103.496 32.848 103.228 32.8707 102.939C32.8934 102.651 32.9953 102.369 33.1763 102.093C33.3573 101.818 33.5758 101.612 33.8316 101.477C34.0874 101.342 34.3569 101.284 34.6401 101.303C34.9199 101.327 35.1869 101.423 35.4412 101.59C35.6955 101.757 35.8894 101.964 36.023 102.211C36.153 102.464 36.2093 102.736 36.1919 103.028C36.1693 103.316 36.0674 103.598 35.8864 103.874C35.7053 104.149 35.4869 104.355 35.2311 104.49C34.97 104.622 34.6996 104.676 34.4198 104.651C34.1366 104.632 33.8678 104.539 33.6135 104.372ZM34.0313 103.736C34.2379 103.872 34.4333 103.898 34.6173 103.814C34.7926 103.732 34.9534 103.579 35.0996 103.357C35.2423 103.14 35.3183 102.932 35.3275 102.733C35.3314 102.531 35.2301 102.362 35.0235 102.226C34.642 101.975 34.2859 102.102 33.9552 102.605C33.6244 103.108 33.6498 103.485 34.0313 103.736Z" fill="#009846"/>
</svg>