<svg width="145" height="145" viewBox="0 0 145 145" fill="none" xmlns="http://www.w3.org/2000/svg">
<g opacity="0.2">
<path fill-rule="evenodd" clip-rule="evenodd" d="M71.5047 73.2231L71.491 73.2166C54.1089 72.8488 48.9176 77.0857 41.4833 83.5905C41.0324 83.9853 41.8217 82.9699 41.3641 83.5114C49.3506 74.0598 56.5708 71.6374 70.4278 72.6566L70.2247 72.5536C60.9274 67.6441 51.6722 65.3276 41.2601 64.6154C16.6509 62.9312 2.12141 88.0083 27.0451 98.114C22.6136 124.641 56.4176 127.022 63.0148 103.5C64.9427 96.6264 64.3925 84.5035 69.8657 75.4456C71.1561 73.3095 71.5047 73.2228 71.5047 73.2231Z" fill="#3BA059"/>
<path fill-rule="evenodd" clip-rule="evenodd" d="M72.8872 73.7877L72.8808 73.8014C72.5342 91.1841 76.7774 96.3701 83.2912 103.796C83.6863 104.247 82.6702 103.459 83.2123 103.916C73.7511 95.9408 71.3197 88.7235 72.3219 74.8651L72.2193 75.0684C67.3213 84.3718 65.0159 93.6297 64.3163 104.043C62.6623 128.654 87.7569 143.153 97.8322 118.217C124.365 122.616 126.705 88.8094 103.174 82.2407C96.2985 80.3211 84.1763 80.8861 75.1116 75.424C72.9741 74.1362 72.8868 73.7877 72.8872 73.7877Z" fill="#3BA059"/>
<path fill-rule="evenodd" clip-rule="evenodd" d="M73.3672 72.4851L73.381 72.4911C90.767 72.552 95.8827 68.224 103.201 61.5891C103.645 61.1865 102.873 62.2154 103.322 61.6661C95.5031 71.2569 88.3268 73.8069 74.4539 73.0325L74.6588 73.1319C84.0413 77.8761 93.336 80.0291 103.759 80.5574C128.395 81.8063 142.478 56.4767 117.38 46.8127C121.342 20.2117 87.502 18.4281 81.3209 42.063C79.5147 48.9695 80.2792 61.0808 74.9666 70.2341C73.7142 72.3923 73.3672 72.4855 73.3672 72.4851Z" fill="#3BA059"/>
<path fill-rule="evenodd" clip-rule="evenodd" d="M92.7122 141.631C100.909 138.993 108.689 134.677 115.215 129.046C136.29 110.862 127.752 75.3197 105.127 77.4427L105.349 79.2416C110.8 78.8379 115.853 82.8152 119.108 86.5796C127.484 96.2682 121.508 120.555 113.226 128.344C104.944 136.132 99.9018 137.358 92.3222 140.192L92.7122 141.631Z" fill="#3BA059"/>
<path fill-rule="evenodd" clip-rule="evenodd" d="M71.7596 71.5665L71.7661 71.5528C72.1127 54.1702 67.8695 48.9839 61.3557 41.5577C60.9604 41.1072 61.9767 41.8952 61.4345 41.4383C70.8957 49.4135 73.3273 56.6306 72.325 70.4889L72.4276 70.2856C77.3256 60.9825 79.6308 51.7244 80.3305 41.3114C81.9846 16.7003 56.8898 2.20124 46.8147 27.1374C20.2822 22.7381 17.9425 56.5449 41.4725 63.1136C48.3485 65.033 60.4706 64.4679 69.5353 69.9301C71.6728 71.2181 71.7601 71.5665 71.7596 71.5665Z" fill="#3BA059"/>
<path d="M72.5004 144.001C111.989 144.001 144 111.989 144 72.5004C144 33.0119 111.989 1 72.5004 1C33.0117 1 1 33.0119 1 72.5004C1 111.989 33.0117 144.001 72.5004 144.001Z" stroke="#3BA059" stroke-width="1.27119" stroke-miterlimit="22.9256"/>
</g>
</svg>
