<svg width="122" height="118" viewBox="0 0 122 118" fill="none" xmlns="http://www.w3.org/2000/svg">
<g filter="url(#filter0_d_1_47)">
<path d="M54.2698 13.6976C58.1251 10.8965 63.3457 10.8965 67.2011 13.6976L101.524 38.6344C105.379 41.4354 106.992 46.4005 105.52 50.9327L92.4095 91.2813C90.9369 95.8136 86.7134 98.8821 81.9479 98.8821H39.5229C34.7574 98.8821 30.5339 95.8136 29.0613 91.2813L15.9512 50.9327C14.4786 46.4005 16.0919 41.4354 19.9472 38.6344L54.2698 13.6976Z" fill="#F7BB95"/>
<g clip-path="url(#clip0_1_47)">
<path d="M54.4223 71.6429C56.3328 72.8869 58.2433 74.048 60.1539 75.292C60.6523 75.6238 60.9846 75.5408 61.3999 75.292C63.0612 74.2139 64.7226 73.1357 66.467 72.1405C67.0485 71.8088 67.2146 71.3112 67.2146 70.6477C67.2146 65.0911 67.2146 59.5344 67.2146 54.0608C67.2146 52.4021 67.3807 52.2362 69.0421 52.2362C70.6203 52.2362 72.1986 52.1533 73.86 52.2362C74.3584 52.2362 75.0229 52.5679 75.4382 52.8997C76.352 53.729 77.0996 54.7242 77.9302 55.6365C78.2625 56.0512 78.6778 56.2171 79.3424 56.2171C81.4191 56.2171 83.4957 56.2171 85.4893 56.2171C86.5692 56.2171 86.8184 56.4659 86.8184 57.544C86.8184 62.0225 86.7353 66.5839 86.7353 71.0624C86.7353 75.0432 86.8184 78.9411 86.8184 82.922C86.8184 84.249 86.5692 84.5807 85.2401 84.5807C68.959 84.5807 52.7609 84.5807 36.4798 84.5807C35.2338 84.5807 34.8184 84.166 34.8184 82.922C34.8184 78.9411 34.8184 74.8773 34.8184 70.8965C34.7354 66.5839 34.7354 62.2713 34.7354 57.9587C34.7354 56.4659 34.9846 56.2171 36.4798 56.2171C38.4734 56.2171 40.3839 56.2171 42.3775 56.2171C43.0421 56.2171 43.4574 56.0512 43.7897 55.5536C44.5373 54.6413 45.3679 53.812 46.1986 52.8997C46.697 52.4021 47.1954 52.1533 47.943 52.1533C49.6044 52.2362 51.1826 52.1533 52.844 52.1533C54.09 52.1533 54.5053 52.485 54.5053 53.729C54.5053 59.2856 54.5053 64.8423 54.5053 70.3159C54.4223 70.8135 54.4223 71.1453 54.4223 71.6429ZM84.6587 58.3734C84.0772 58.2904 83.7449 58.2904 83.4127 58.2904C81.8344 58.2904 80.2561 58.2904 78.5948 58.2904C77.7641 58.2904 77.1826 58.0416 76.6842 57.4611C75.9366 56.5488 75.106 55.7194 74.2753 54.8072C74.1091 54.6413 73.7769 54.3096 73.6107 54.3096C72.2817 54.2266 70.8695 54.3096 69.4574 54.3096C69.4574 54.8072 69.3743 55.2218 69.3743 55.7194C69.3743 61.0273 69.3743 66.3351 69.3743 71.6429C69.3743 72.4722 69.1251 73.0528 68.3775 73.4675C66.2178 74.7944 63.975 76.2043 61.8152 77.6142C61.0676 78.1118 60.4031 78.0289 59.6555 77.5312C57.5788 76.2043 55.5021 74.8773 53.3424 73.6333C52.5948 73.1357 52.2625 72.6381 52.2625 71.7258C52.2625 66.418 52.2625 61.1102 52.2625 55.8024C52.2625 55.3877 52.1794 54.973 52.1794 54.4754C50.7673 54.4754 49.3552 54.4754 48.0261 54.4754C47.7769 54.4754 47.5277 54.7242 47.2785 54.973C46.4478 55.8853 45.6171 56.8805 44.7034 57.7928C44.4542 58.1246 44.0389 58.3734 43.6235 58.4563C42.1283 58.2904 40.467 58.2904 38.8887 58.1246C37.3104 57.9587 36.5628 58.6222 36.729 60.1979C36.812 61.1102 36.9782 61.9395 36.9782 62.8518C36.9782 68.989 36.9782 75.0432 36.8951 81.1804C36.8951 81.595 36.9782 82.0097 36.9782 82.4244C52.927 82.4244 68.7098 82.4244 84.6587 82.4244C84.6587 74.3797 84.6587 66.418 84.6587 58.3734Z" fill="white"/>
<path d="M60.1808 48.5041C59.1009 48.5041 57.5793 48.5041 56.5825 48.5041C55.5026 48.5041 55.2534 48.2553 55.2534 47.1772C55.2534 45.8502 55.3365 44.6062 55.2534 43.2793C55.2534 42.7816 55.0042 42.2011 54.6719 41.7864C53.8413 40.7912 52.9275 39.9619 52.0968 38.9667C51.8476 38.6349 51.5984 38.1373 51.5984 37.7226C51.5154 36.5615 51.5984 35.4834 51.5984 34.3223C51.5984 32.9124 51.8476 32.6636 53.2598 32.6636C57.3301 32.6636 61.4004 32.6636 65.3876 32.6636C66.4675 32.6636 67.5473 32.5807 68.7103 32.5807C69.8732 32.5807 70.2885 32.9124 70.2885 33.9906C70.2885 35.4005 70.2885 36.8104 70.2055 38.1373C70.2055 38.3861 69.9563 38.7178 69.7901 38.9667C68.8764 39.9619 67.9627 40.8741 67.132 41.8694C66.8828 42.2011 66.7167 42.6158 66.7167 43.0304C66.6336 44.4403 66.7167 45.8502 66.7167 47.1772C66.7167 48.1724 66.3844 48.5041 65.3876 48.5041C64.3908 48.5041 63.394 48.5041 62.3141 48.5041C62.3141 50.0799 62.3141 51.4898 62.3141 53.0655C62.8125 53.3143 63.477 53.5631 64.0585 53.8119C64.8892 54.1437 65.2214 54.7242 64.9722 55.3048C64.723 55.8853 64.1416 56.0512 63.3109 55.7194C63.0617 55.6365 62.7294 55.5536 62.3141 55.3877C62.3141 56.6317 62.3152 59.2848 62.3141 59.2645L63.1448 59.7003C63.5601 59.9491 64.0585 60.115 64.4738 60.3638C65.0553 60.6126 65.1384 61.1931 64.8892 61.6078C64.723 61.9395 64.1416 62.1883 63.8093 62.1883C63.3109 62.1883 62.8956 61.9395 62.231 61.6907C62.231 62.9348 62.231 64.0958 62.231 65.2569C62.231 65.4228 62.5633 65.6716 62.8125 65.8375C63.2278 66.0863 63.7262 66.2521 64.1416 66.418C64.8061 66.7497 65.1384 67.3303 64.8061 67.8279C64.4738 68.4084 63.9754 68.5743 63.394 68.3255C63.0617 68.1596 62.7294 68.0767 62.231 67.9938C62.148 68.2426 62.0649 68.4914 62.0649 68.7402C62.0649 69.2378 62.0649 69.8183 62.0649 70.3159C61.9818 71.0623 61.5665 71.56 60.985 71.477C60.3205 71.3941 59.9882 70.9794 60.0713 70.3159C60.0713 69.4866 59.9882 68.6572 60.0713 67.8279C60.1544 67.1644 59.8221 66.7497 59.2406 66.5839C58.7422 66.418 58.2438 66.1692 57.8285 65.9204C57.3301 65.6716 57.0809 65.2569 57.3301 64.6764C57.5793 64.0958 57.9946 63.847 58.6591 64.0129C59.0745 64.0958 59.4898 64.3446 60.1544 64.5934C60.1544 63.3494 60.1544 61.9429 60.1544 60.7818L59.5719 60.486C59.5719 60.486 58.5761 60.032 58.1607 59.7832C57.4962 59.4515 57.1639 58.871 57.4962 58.3734C57.8285 57.7928 58.3269 57.544 58.9914 57.8757C59.3237 58.0416 60.2374 58.4447 60.2374 58.4447C60.2374 57.1178 60.2374 55.8024 60.2374 54.5584C59.5729 54.2266 58.8253 53.9778 58.1607 53.5631C57.247 53.0655 57.1639 52.1533 57.9946 51.7386C58.2438 51.5727 58.6591 51.6556 58.9914 51.7386C59.3237 51.8215 59.739 51.9874 60.2374 52.2362C60.2374 52.2362 60.1808 49.8311 60.1808 48.5041ZM53.7582 34.8199C53.2598 36.8933 53.509 37.5568 54.8381 38.9667C55.2534 39.3813 55.6687 39.9619 56.1671 40.2936C56.5825 40.6253 57.0809 40.8741 57.4962 40.8741C58.8253 40.9571 60.1544 40.7912 61.4834 40.9571C63.8924 41.2888 65.6368 40.5424 67.132 38.6349C68.0457 37.4738 68.2949 36.3127 67.6304 34.9029C66.6336 34.9029 65.6368 34.9029 64.5569 34.9029C64.5569 35.3175 64.5569 35.7322 64.5569 36.0639C64.5569 36.7274 64.2246 37.225 63.477 37.225C62.7294 37.225 62.4802 36.7274 62.4802 36.1469C62.3972 35.7322 62.3972 35.3175 62.3972 34.9029C61.3173 34.9029 60.2374 34.9029 59.1575 34.9029C59.1575 35.3175 59.0745 35.7322 59.0745 36.1469C58.9914 36.7274 58.7422 37.225 57.9946 37.1421C57.247 37.1421 57.0809 36.6445 56.9978 36.0639C56.9978 35.6493 56.9147 35.2346 56.9147 34.8199C55.7518 34.8199 54.755 34.8199 53.7582 34.8199ZM57.4131 43.1134C57.4131 44.2745 57.4131 45.3526 57.4131 46.3478C59.739 46.3478 61.9818 46.3478 64.1416 46.3478C64.1416 45.1867 64.1416 44.1086 64.1416 43.1134C61.8988 43.1134 59.656 43.1134 57.4131 43.1134Z" fill="white"/>
<path d="M41.8794 62.1883C42.2117 62.1883 42.5439 62.1883 42.8762 62.1883C43.4577 62.1883 43.7069 62.5201 43.79 63.0177C43.873 63.5153 43.7069 64.0129 43.2085 64.0958C42.3778 64.1788 41.4641 64.3446 40.6334 64.1788C40.3011 64.0958 39.8858 63.4324 39.8027 63.0177C39.8027 62.5201 40.2181 62.1054 40.8826 62.1054C41.2149 62.1883 41.5471 62.1883 41.8794 62.1883Z" fill="white"/>
<path d="M47.4448 69.0719C46.9464 68.989 46.5311 69.0719 46.1988 68.989C45.6174 68.906 45.3682 68.4914 45.3682 67.9108C45.4512 67.3303 45.7004 66.9985 46.2819 66.9985C46.9464 66.9985 47.611 66.9985 48.2755 66.9985C48.857 66.9985 49.1893 67.3303 49.2723 67.9108C49.3554 68.4914 49.0231 68.8231 48.4416 68.989C48.1924 69.0719 47.694 69.0719 47.4448 69.0719Z" fill="white"/>
<path d="M79.7573 73.7992C79.3419 73.7992 78.9266 73.7992 78.5943 73.7163C78.0959 73.5504 77.7637 73.2187 77.7637 72.6381C77.8467 72.0576 78.179 71.7258 78.7605 71.7258C79.425 71.7258 80.0896 71.7258 80.7541 71.7258C81.3356 71.7258 81.6678 72.0576 81.7509 72.6381C81.834 73.2187 81.5017 73.5504 80.9202 73.7163C80.588 73.7992 80.1726 73.7992 79.7573 73.7992Z" fill="white"/>
<path d="M79.5918 64.2617C79.3426 64.2617 78.9273 64.2617 78.5119 64.0958C77.9305 63.93 77.5982 63.5153 77.8474 63.0177C78.0135 62.686 78.4289 62.2713 78.7611 62.1883C79.3426 62.0225 80.0071 62.1883 80.6717 62.1054C81.3362 62.1054 81.7515 62.4371 81.8346 63.1006C81.9177 63.7641 81.4193 64.0129 80.8378 64.1788C80.4225 64.2617 80.0902 64.2617 79.5918 64.2617Z" fill="white"/>
<path d="M47.4448 76.536C47.7771 76.536 48.1093 76.536 48.4416 76.536C49.0231 76.536 49.4384 76.9507 49.3553 77.4483C49.3553 77.78 48.94 78.3606 48.6077 78.4435C47.7771 78.6094 46.9464 78.5264 46.1157 78.4435C45.5342 78.3606 45.285 77.9459 45.3681 77.3654C45.4512 76.7848 45.7004 76.536 46.2819 76.536C46.6972 76.536 47.0295 76.536 47.4448 76.536Z" fill="white"/>
<path d="M41.7961 71.7258C42.1284 71.7258 42.4607 71.7258 42.7929 71.7258C43.3744 71.7258 43.7067 72.0576 43.7897 72.6381C43.8728 73.2187 43.6236 73.6333 43.0421 73.7163C42.2945 73.7992 41.5469 73.7992 40.7993 73.7163C40.2179 73.6333 39.8025 73.2187 39.8856 72.6381C39.9687 72.0576 40.3009 71.7258 40.9655 71.7258C41.2147 71.7258 41.5469 71.7258 41.7961 71.7258Z" fill="white"/>
<path d="M74.1919 66.9986C74.5242 66.9986 74.9395 66.9156 75.2718 66.9986C75.6041 67.1645 76.1025 67.5791 76.1025 67.8279C76.1025 68.1597 75.7702 68.8231 75.4379 68.8231C74.6072 68.989 73.7766 68.9061 72.8628 68.8231C72.3644 68.7402 72.1152 68.3255 72.1152 67.8279C72.1983 67.3303 72.4475 66.9156 73.112 66.9156C73.5274 66.9986 73.8596 66.9986 74.1919 66.9986Z" fill="white"/>
<path d="M74.1927 76.536C74.525 76.536 74.9403 76.536 75.2726 76.536C75.8541 76.536 76.2694 76.9507 76.1863 77.5312C76.1033 77.863 75.771 78.4435 75.4387 78.5264C74.6081 78.6923 73.7774 78.6094 73.0298 78.5264C72.4483 78.4435 72.1991 77.9459 72.2822 77.4483C72.3652 76.9507 72.6144 76.6189 73.1959 76.6189C73.5282 76.536 73.8605 76.536 74.1927 76.536Z" fill="white"/>
</g>
</g>
<defs>
<filter id="filter0_d_1_47" x="0.412109" y="0.596741" width="120.646" height="117.285" filterUnits="userSpaceOnUse" color-interpolation-filters="sRGB">
<feFlood flood-opacity="0" result="BackgroundImageFix"/>
<feColorMatrix in="SourceAlpha" type="matrix" values="0 0 0 0 0 0 0 0 0 0 0 0 0 0 0 0 0 0 127 0" result="hardAlpha"/>
<feOffset dy="4"/>
<feGaussianBlur stdDeviation="7.5"/>
<feColorMatrix type="matrix" values="0 0 0 0 0.833333 0 0 0 0 0.449306 0 0 0 0 0.284722 0 0 0 0.46 0"/>
<feBlend mode="normal" in2="BackgroundImageFix" result="effect1_dropShadow_1_47"/>
<feBlend mode="normal" in="SourceGraphic" in2="effect1_dropShadow_1_47" result="shape"/>
</filter>
<clipPath id="clip0_1_47">
<rect width="52" height="52" fill="white" transform="translate(34.7354 32.5807)"/>
</clipPath>
</defs>
</svg>
