<svg width="121" height="118" viewBox="0 0 121 118" fill="none" xmlns="http://www.w3.org/2000/svg">
<g filter="url(#filter0_d_1_28)">
<path d="M53.9465 13.6976C57.8019 10.8965 63.0225 10.8965 66.8778 13.6976L101.2 38.6344C105.056 41.4354 106.669 46.4005 105.196 50.9327L92.0863 91.2813C90.6137 95.8136 86.3902 98.8821 81.6247 98.8821H39.1997C34.4342 98.8821 30.2107 95.8136 28.7381 91.2813L15.628 50.9327C14.1554 46.4005 15.7686 41.4354 19.624 38.6344L53.9465 13.6976Z" fill="#9CF27E"/>
<g clip-path="url(#clip0_1_28)">
<path d="M56.1803 50.5811C56.1803 49.7677 56.1803 49.1169 56.1803 48.4662C56.1803 47.6528 56.5877 47.2461 57.4838 47.1648C59.602 47.1648 61.7202 47.1648 63.8384 47.1648C64.7346 47.1648 65.0605 47.4902 65.0605 48.4662C65.0605 49.1169 65.0605 49.7677 65.0605 50.4997C65.5493 50.4997 65.9567 50.4997 66.364 50.4997C71.9854 50.4997 77.6068 50.4997 83.3097 50.4997C86.8129 50.4997 86.2426 50.8251 86.2426 53.428C86.2426 63.1887 86.2426 73.0308 86.2426 82.7916C86.2426 84.2557 85.9982 84.4997 84.5317 84.4997C73.6148 84.4997 62.7793 84.4997 51.8624 84.4997C49.9886 84.4997 48.1963 84.4997 46.3225 84.4997C43.3896 84.4997 40.4567 84.4997 37.4423 84.4997C35.3241 84.4997 35.1611 84.337 35.1611 82.2222C35.1611 73.1935 35.1611 64.1648 35.1611 55.0547C35.1611 54.0787 35.1611 53.1839 35.1611 52.2079C35.1611 50.7437 35.4055 50.4997 36.872 50.4997C42.9007 50.4997 48.9295 50.4997 54.9583 50.4997C55.2841 50.5811 55.61 50.5811 56.1803 50.5811ZM83.9615 74.0069C77.6068 74.0069 71.3337 74.0069 65.0605 74.0069C65.0605 75.3897 65.0605 76.6911 65.0605 77.9925C65.0605 78.8873 64.6531 79.2126 63.8384 79.294C61.8017 79.294 59.765 79.294 57.6468 79.294C56.8321 79.294 56.2618 78.6433 56.3432 77.8299C56.3432 76.8538 56.4247 75.9591 56.4247 74.983C56.4247 74.5763 56.3432 74.2509 56.2618 73.9256C54.4694 73.9256 52.7586 73.9256 51.1292 73.9256C46.8928 73.9256 42.7378 73.9256 38.5014 73.9256C38.094 73.9256 37.7682 74.0069 37.3608 74.0069C37.3608 76.8538 37.3608 79.6193 37.3608 82.3849C39.1531 82.4662 40.864 82.6289 42.5749 82.6289C44.5301 82.6289 46.4854 82.5476 48.4407 82.4662C49.2554 82.4662 49.9886 82.6289 50.8033 82.6289C52.1068 82.6289 53.4103 82.4662 54.7138 82.4662C64.1643 82.4662 73.5333 82.4662 82.9838 82.4662C83.3097 82.4662 83.6356 82.3849 84.0429 82.3849C83.9615 79.538 83.9615 76.7725 83.9615 74.0069ZM65.0605 61.1552C65.5493 61.1552 65.9567 61.1552 66.364 61.1552C68.1563 61.1552 69.9487 61.0739 71.741 61.1552C75.4071 61.1552 79.0733 61.1552 82.7394 61.1552C83.1468 61.1552 83.4726 61.1552 83.88 61.0739C83.88 58.227 83.88 55.4614 83.88 52.6959C77.5254 52.6959 71.3337 52.6959 64.979 52.6959C65.0605 55.5428 65.0605 58.227 65.0605 61.1552ZM56.0988 61.0739C56.0988 58.227 56.0988 55.4614 56.0988 52.6959C49.8257 52.6959 43.5525 52.6959 37.2793 52.6959C37.2793 55.5428 37.2793 58.3083 37.2793 61.0739C43.5525 61.0739 49.7442 61.0739 56.0988 61.0739ZM83.88 63.2701C77.5254 63.2701 71.3337 63.2701 65.0605 63.2701C65.0605 66.1983 65.0605 68.8825 65.0605 71.7294C66.1196 71.7294 67.0972 71.7294 68.1563 71.7294C68.1563 71.2414 68.2378 70.916 68.2378 70.5093C68.2378 69.8586 68.1563 69.1265 68.3193 68.4758C68.4007 68.1504 68.8081 67.7437 69.2155 67.6624C69.4599 67.5811 69.9487 67.9878 70.1931 68.2318C70.356 68.3945 70.2746 68.8012 70.2746 69.0452C70.2746 69.9399 70.2746 70.7533 70.2746 71.7294C71.4151 71.7294 72.3928 71.7294 73.5333 71.7294C73.5333 70.672 73.5333 69.7772 73.5333 68.8012C73.5333 67.9878 73.9407 67.4997 74.5924 67.5811C75.2442 67.5811 75.5701 67.9878 75.5701 68.8825C75.5701 69.7772 75.5701 70.7533 75.5701 71.7294C76.7107 71.7294 77.6883 71.7294 78.8289 71.7294C78.8289 70.7533 78.8289 69.8586 78.8289 68.9638C78.8289 68.0691 79.1547 67.5811 79.8065 67.5811C80.4583 67.5811 80.7841 67.9878 80.8656 68.9638C80.8656 69.8586 80.8656 70.7533 80.8656 71.7294C81.9247 71.7294 82.9023 71.7294 83.9615 71.7294C83.88 68.8825 83.88 66.1983 83.88 63.2701ZM56.0988 71.7294C56.0988 68.8825 56.0988 66.1169 56.0988 63.3514C49.8257 63.3514 43.5525 63.3514 37.2793 63.3514C37.2793 66.1983 37.2793 68.8825 37.2793 71.7294C38.3384 71.7294 39.3161 71.7294 40.3752 71.7294C40.3752 70.672 40.3752 69.6959 40.3752 68.7198C40.3752 68.0691 40.7011 67.5811 41.4343 67.5811C42.1675 67.5811 42.4119 68.0691 42.4119 68.6385C42.4119 68.9638 42.4119 69.2079 42.4119 69.5332C42.4119 70.2653 42.4119 70.916 42.4119 71.7294C43.5525 71.7294 44.5301 71.7294 45.5892 71.7294C45.5892 70.672 45.5892 69.6959 45.5892 68.7198C45.5892 68.0691 45.9151 67.5811 46.6484 67.5811C47.3816 67.5811 47.5445 68.0691 47.626 68.6385C47.626 68.9638 47.626 69.2892 47.626 69.6146C47.626 70.2653 47.626 70.916 47.626 71.7294C48.7666 71.7294 49.6627 71.7294 50.8033 71.7294C50.8033 70.7533 50.8033 69.8586 50.8033 68.9638C50.8033 68.0691 51.2107 67.5811 51.7809 67.5811C52.5142 67.5811 52.84 67.9878 52.84 68.9638C52.84 69.8586 52.84 70.7533 52.84 71.7294C54.0621 71.7294 55.0397 71.7294 56.0988 71.7294ZM62.8608 77.1792C62.8608 67.8251 62.8608 58.6337 62.8608 49.4423C61.3129 49.4423 59.8464 49.4423 58.38 49.4423C58.38 58.7964 58.38 67.9878 58.38 77.1792C59.9279 77.1792 61.3129 77.1792 62.8608 77.1792Z" fill="white"/>
<path d="M52.7591 40.3323C55.1217 40.495 57.077 41.3897 58.462 43.4232C59.0322 44.2366 59.0322 44.806 58.462 45.2127C57.9731 45.6194 57.3214 45.3753 56.7511 44.5619C55.692 43.0978 54.307 42.3658 52.5147 42.4471C50.8853 42.5284 49.6632 43.2605 48.6856 44.4806C48.5227 44.7246 48.4412 44.9686 48.1968 45.05C47.8709 45.2127 47.3821 45.3753 47.1377 45.2127C46.8933 45.1313 46.6489 44.6433 46.5674 44.3179C46.5674 43.9926 46.7303 43.5859 46.8933 43.3418C48.4412 41.3897 50.3965 40.495 52.7591 40.3323Z" fill="white"/>
<path d="M68.5638 40.3323C70.8449 40.4136 72.8002 41.3897 74.1852 43.3418C74.2666 43.5045 74.3481 43.6672 74.4296 43.8299C74.7555 44.3993 74.5111 44.8873 74.1037 45.2127C73.6149 45.538 73.1261 45.3753 72.7187 44.8873C72.067 44.2366 71.4967 43.4232 70.682 43.0165C68.3194 41.7964 66.0382 42.3658 64.3273 44.6433C64.0015 45.05 63.6756 45.538 63.1053 45.3753C62.7794 45.294 62.3721 44.8873 62.3721 44.6433C62.3721 44.2366 62.535 43.7485 62.7794 43.4232C64.0015 41.471 66.2826 40.3323 68.5638 40.3323Z" fill="white"/>
<path d="M59.6025 37.4853C59.6025 36.5093 59.6025 35.6145 59.6025 34.6385C59.6025 33.9877 59.8469 33.581 60.5802 33.4997C61.3134 33.4997 61.5578 33.9064 61.6393 34.5571C61.6393 36.5093 61.6393 38.3801 61.6393 40.3322C61.6393 40.9829 61.2319 41.3896 60.5802 41.3083C59.9284 41.227 59.6025 40.8203 59.684 40.1696C59.6025 39.3562 59.6025 38.4614 59.6025 37.4853Z" fill="white"/>
<path d="M42.0866 77.7485C41.8422 77.7485 41.5163 77.7485 41.2719 77.5858C40.946 77.3418 40.6201 76.9351 40.6201 76.6911C40.7016 76.3658 41.0275 75.9591 41.4348 75.7964C41.8422 75.6337 42.331 75.715 42.7383 75.715C43.3086 75.715 43.716 76.0404 43.716 76.6911C43.716 77.3418 43.3086 77.5858 42.7383 77.6672C42.5754 77.6672 42.4124 77.6672 42.0866 77.7485Z" fill="white"/>
<path d="M70.1124 75.715C70.3568 75.715 70.6827 75.6337 70.8457 75.7964C71.1715 76.0404 71.4974 76.3658 71.5789 76.6911C71.6604 77.1792 71.4159 77.5858 70.8457 77.6672C70.3568 77.7485 69.868 77.7485 69.3792 77.7485C68.8089 77.6672 68.4016 77.4232 68.483 76.7725C68.483 76.1217 68.8904 75.8777 69.5421 75.8777C69.7051 75.715 69.868 75.715 70.1124 75.715Z" fill="white"/>
<path d="M74.5928 78.7246C74.8373 78.7246 75.1631 78.6433 75.3261 78.7246C75.652 78.8873 76.0593 79.2126 76.0593 79.4567C76.0593 79.782 75.8149 80.4327 75.5705 80.4327C74.9187 80.5954 74.1855 80.5954 73.5337 80.4327C73.2893 80.4327 73.0449 79.782 73.0449 79.538C73.0449 79.2126 73.4523 78.8873 73.6967 78.7246C73.9411 78.5619 74.267 78.6433 74.5928 78.7246C74.5928 78.6433 74.5928 78.6433 74.5928 78.7246Z" fill="white"/>
<path d="M79.0737 75.715C79.3181 75.715 79.644 75.6337 79.807 75.7964C80.1328 76.0404 80.5402 76.3658 80.5402 76.6911C80.5402 76.9351 80.2143 77.4232 79.8884 77.5859C79.4811 77.7485 78.9108 77.6672 78.422 77.6672C77.8517 77.6672 77.4443 77.3418 77.4443 76.6911C77.4443 76.0404 77.8517 75.715 78.5034 75.715C78.7478 75.715 78.9108 75.715 79.0737 75.715Z" fill="white"/>
<path d="M46.649 78.6433C46.9749 78.6433 47.3822 78.5619 47.6266 78.7246C47.9525 78.9686 48.1969 79.4567 48.1969 79.782C48.1969 80.1887 47.871 80.5141 47.3007 80.4327C46.9749 80.4327 46.649 80.4327 46.3231 80.5141C45.5899 80.5954 45.1011 80.2701 45.0196 79.7007C44.9381 79.1313 45.4269 78.6433 46.1602 78.6433C46.3231 78.6433 46.486 78.6433 46.649 78.6433Z" fill="white"/>
<path d="M50.9669 77.5045C49.8263 77.5858 49.5004 77.3418 49.6634 76.5284C49.7448 76.2031 50.1522 75.8777 50.4781 75.715C50.8854 75.5523 51.3742 75.5523 51.863 75.715C52.1889 75.7964 52.5963 76.1217 52.6777 76.4471C52.7592 76.9351 52.4333 77.3418 51.863 77.4232C51.5372 77.5045 51.2928 77.5045 50.9669 77.5045Z" fill="white"/>
</g>
</g>
<defs>
<filter id="filter0_d_1_28" x="0.0888672" y="0.596741" width="120.646" height="117.285" filterUnits="userSpaceOnUse" color-interpolation-filters="sRGB">
<feFlood flood-opacity="0" result="BackgroundImageFix"/>
<feColorMatrix in="SourceAlpha" type="matrix" values="0 0 0 0 0 0 0 0 0 0 0 0 0 0 0 0 0 0 127 0" result="hardAlpha"/>
<feOffset dy="4"/>
<feGaussianBlur stdDeviation="7.5"/>
<feColorMatrix type="matrix" values="0 0 0 0 0.284722 0 0 0 0 0.833333 0 0 0 0 0.306667 0 0 0 0.46 0"/>
<feBlend mode="normal" in2="BackgroundImageFix" result="effect1_dropShadow_1_28"/>
<feBlend mode="normal" in="SourceGraphic" in2="effect1_dropShadow_1_28" result="shape"/>
</filter>
<clipPath id="clip0_1_28">
<rect width="51" height="51" fill="white" transform="translate(35.0801 33.5811)"/>
</clipPath>
</defs>
</svg>
