<svg width="121" height="118" viewBox="0 0 121 118" fill="none" xmlns="http://www.w3.org/2000/svg">
<g filter="url(#filter0_d_1_123)">
<path d="M54.0774 13.6976C57.9328 10.8965 63.1533 10.8965 67.0087 13.6976L101.331 38.6344C105.187 41.4354 106.8 46.4005 105.327 50.9327L92.2172 91.2813C90.7446 95.8136 86.521 98.8821 81.7555 98.8821H39.3305C34.565 98.8821 30.3415 95.8136 28.8689 91.2813L15.7589 50.9327C14.2862 46.4005 15.8995 41.4354 19.7548 38.6344L54.0774 13.6976Z" fill="#B9B9B9"/>
<path d="M52.0298 81.9414C54.3306 81.7811 56.2347 80.8993 57.5835 78.8953C58.1388 78.0937 58.1388 77.5326 57.5835 77.1318C57.1074 76.731 56.4727 76.9715 55.9174 77.7731C54.886 79.216 53.5372 79.9374 51.7917 79.8572C50.205 79.7771 49.0149 79.0556 48.0628 77.8532C47.9041 77.6128 47.8248 77.3723 47.5868 77.2921C47.2694 77.1318 46.7934 76.9715 46.5554 77.1318C46.3174 77.212 46.0793 77.6929 46 78.0136C46 78.3342 46.1587 78.735 46.3174 78.9755C47.8248 80.8993 49.7289 81.7811 52.0298 81.9414Z" fill="white"/>
<path d="M68.0859 81.9414C70.3281 81.8613 72.25 80.8997 73.6113 78.9764C73.6914 78.8161 73.7715 78.6559 73.8516 78.4956C74.1719 77.9347 73.9316 77.4538 73.5313 77.1333C73.0508 76.8128 72.5703 76.973 72.1699 77.4538C71.5293 78.0949 70.9688 78.8963 70.168 79.297C67.8457 80.499 65.6035 79.938 63.9219 77.6943C63.6016 77.2936 63.2813 76.8128 62.7207 76.973C62.4004 77.0532 62 77.4538 62 77.6943C62 78.0949 62.1602 78.5757 62.4004 78.8963C63.6016 80.8195 65.8438 81.9414 68.0859 81.9414Z" fill="white"/>
<path d="M59 84.8635C59 85.8621 59 86.7776 59 87.7763C59 88.4421 59.24 88.8582 59.96 88.9414C60.68 88.9414 60.92 88.5253 61 87.8595C61 85.8621 61 83.948 61 81.9506C61 81.2849 60.6 80.8687 59.96 80.952C59.32 81.0352 59 81.4513 59.08 82.1171C59 82.9493 59 83.8648 59 84.8635Z" fill="white"/>
<rect x="39" y="53.9414" width="2" height="6" rx="1" fill="white"/>
<rect x="76" y="53.9414" width="2" height="6" rx="1" fill="white"/>
<rect x="43" y="53.9414" width="2" height="6" rx="1" fill="white"/>
<rect x="80" y="53.9414" width="2" height="6" rx="1" fill="white"/>
<path d="M79.5789 40.9618C79.8158 40.9618 80.1316 40.8802 80.2895 41.0434C80.6053 41.2883 81 41.6149 81 41.9414C81 42.1863 80.6842 42.6761 80.3684 42.8394C79.9737 43.0026 79.4211 42.921 78.9474 42.921C78.3947 42.921 78 42.5945 78 41.9414C78 41.2883 78.3947 40.9618 79.0263 40.9618C79.2632 40.9618 79.4211 40.9618 79.5789 40.9618Z" fill="white"/>
<path d="M72.5405 41.039C72.7838 41.039 73.1081 40.9545 73.2703 41.039C73.5946 41.2081 74 41.5463 74 41.8C74 42.1382 73.7568 42.8146 73.5135 42.8146C72.8649 42.9837 72.1351 42.9837 71.4865 42.8146C71.2432 42.8146 71 42.1382 71 41.8845C71 41.5463 71.4054 41.2081 71.6487 41.039C71.8919 40.8699 72.2162 40.9545 72.5405 41.039C72.5405 40.9545 72.5405 40.9545 72.5405 41.039Z" fill="white"/>
<path d="M40.5405 45.039C40.7838 45.039 41.1081 44.9545 41.2703 45.039C41.5946 45.2081 42 45.5463 42 45.8C42 46.1382 41.7568 46.8146 41.5135 46.8146C40.8649 46.9837 40.1351 46.9837 39.4865 46.8146C39.2432 46.8146 39 46.1382 39 45.8845C39 45.5463 39.4054 45.2081 39.6487 45.039C39.8919 44.8699 40.2162 44.9545 40.5405 45.039C40.5405 44.9545 40.5405 44.9545 40.5405 45.039Z" fill="white"/>
<path d="M46.5425 42.9628C46.8494 42.9628 47.2329 42.8773 47.463 43.0482C47.7699 43.3046 48 43.8174 48 44.1592C48 44.5866 47.6932 44.9284 47.1562 44.8429C46.8494 44.8429 46.5425 44.8429 46.2357 44.9284C45.5453 45.0139 45.085 44.672 45.0083 44.0738C44.9316 43.4755 45.3919 42.9628 46.0823 42.9628C46.2357 42.9628 46.3891 42.9628 46.5425 42.9628Z" fill="white"/>
<mask id="path-13-inside-1_1_123" fill="white">
<rect x="35" y="36.9414" width="51" height="34" rx="1"/>
</mask>
<rect x="35" y="36.9414" width="51" height="34" rx="1" stroke="white" stroke-width="4" mask="url(#path-13-inside-1_1_123)"/>
<rect x="36" y="48.9414" width="49" height="10" stroke="white" stroke-width="2"/>
<circle cx="60.5" cy="53.4414" r="12.5" fill="#B9B9B9" stroke="white" stroke-width="2"/>
<path d="M60.4589 61.9373C56.679 61.9373 53.6024 58.9633 54.0419 55.4937C54.2177 54.0893 54.921 52.6849 55.7121 51.5284C56.8549 49.7935 58.1734 48.1413 59.492 46.5717C60.1073 45.7456 60.7227 45.7456 61.4259 46.4891C63.4477 48.8022 65.2058 51.2805 66.6122 54.0893C68.1066 57.2285 65.1179 62.1025 60.4589 61.9373ZM60.6347 48.8848C60.4589 48.8848 60.371 48.8022 60.1952 48.8022C59.0525 50.6196 57.8218 52.4371 56.767 54.2545C55.9758 55.4937 56.1516 56.8154 56.9428 58.0546C57.9976 59.7068 60.1952 60.2851 62.217 59.5416C63.9751 58.8807 65.1179 56.8981 64.5904 55.1632C63.8872 52.7675 62.1291 50.8675 60.6347 48.8848Z" fill="white"/>
<path d="M42.0833 40.0242C42.4167 40.0242 42.8333 39.9414 43.1667 40.0242C43.5 40.1898 44 40.6038 44 40.8522C44 41.1834 43.6667 41.8458 43.3333 41.8458C42.5 42.0114 41.6667 41.9286 40.75 41.8458C40.25 41.763 40 41.349 40 40.8522C40.0833 40.3554 40.3333 39.9414 41 39.9414C41.4167 40.0242 41.75 40.0242 42.0833 40.0242Z" fill="white"/>
<path d="M77.0833 45.0242C77.4167 45.0242 77.8333 44.9414 78.1667 45.0242C78.5 45.1898 79 45.6038 79 45.8522C79 46.1834 78.6667 46.8458 78.3333 46.8458C77.5 47.0114 76.6667 46.9286 75.75 46.8458C75.25 46.763 75 46.349 75 45.8522C75.0833 45.3554 75.3333 44.9414 76 44.9414C76.4167 45.0242 76.75 45.0242 77.0833 45.0242Z" fill="white"/>
<path d="M41 64.9414C39.9091 64.9414 39 63.9414 39 62.9414C39 61.9414 40.0909 60.9414 41 60.9414C42.0909 60.9414 43 61.9414 43 63.0323C43 64.2141 42.1818 64.9414 41 64.9414Z" fill="white"/>
<path d="M69 66.9414C68.4545 66.9414 68 66.4414 68 65.9414C68 65.4414 68.5455 64.9414 69 64.9414C69.5455 64.9414 70 65.4414 70 65.9869C70 66.5778 69.5909 66.9414 69 66.9414Z" fill="white"/>
<path d="M48 63.9414C47.4545 63.9414 47 63.4414 47 62.9414C47 62.4414 47.5455 61.9414 48 61.9414C48.5455 61.9414 49 62.4414 49 62.9869C49 63.5778 48.5909 63.9414 48 63.9414Z" fill="white"/>
<path d="M74 64.9414C72.9091 64.9414 72 63.9414 72 62.9414C72 61.9414 73.0909 60.9414 74 60.9414C75.0909 60.9414 76 61.9414 76 63.0323C76 64.2141 75.1818 64.9414 74 64.9414Z" fill="white"/>
<path d="M76.5 67.9414C75.6818 67.9414 75 67.1914 75 66.4414C75 65.6914 75.8182 64.9414 76.5 64.9414C77.3182 64.9414 78 65.6914 78 66.5096C78 67.396 77.3864 67.9414 76.5 67.9414Z" fill="white"/>
<path d="M45.5 67.9414C44.6818 67.9414 44 67.1914 44 66.4414C44 65.6914 44.8182 64.9414 45.5 64.9414C46.3182 64.9414 47 65.6914 47 66.5096C47 67.396 46.3864 67.9414 45.5 67.9414Z" fill="white"/>
<path d="M81 64.9414C80.4545 64.9414 80 64.4414 80 63.9414C80 63.4414 80.5455 62.9414 81 62.9414C81.5455 62.9414 82 63.4414 82 63.9869C82 64.5778 81.5909 64.9414 81 64.9414Z" fill="white"/>
<path d="M39 67.9414C38.4545 67.9414 38 67.4414 38 66.9414C38 66.4414 38.5455 65.9414 39 65.9414C39.5455 65.9414 40 66.4414 40 66.9869C40 67.5778 39.5909 67.9414 39 67.9414Z" fill="white"/>
<mask id="path-27-inside-2_1_123" fill="white">
<rect x="56" y="64.9414" width="9" height="11" rx="1"/>
</mask>
<rect x="56" y="64.9414" width="9" height="11" rx="1" fill="#B9B9B9" stroke="white" stroke-width="4" mask="url(#path-27-inside-2_1_123)"/>
</g>
<defs>
<filter id="filter0_d_1_123" x="0.219727" y="0.596741" width="120.646" height="117.285" filterUnits="userSpaceOnUse" color-interpolation-filters="sRGB">
<feFlood flood-opacity="0" result="BackgroundImageFix"/>
<feColorMatrix in="SourceAlpha" type="matrix" values="0 0 0 0 0 0 0 0 0 0 0 0 0 0 0 0 0 0 127 0" result="hardAlpha"/>
<feOffset dy="4"/>
<feGaussianBlur stdDeviation="7.5"/>
<feColorMatrix type="matrix" values="0 0 0 0 0.72549 0 0 0 0 0.72549 0 0 0 0 0.72549 0 0 0 0.46 0"/>
<feBlend mode="normal" in2="BackgroundImageFix" result="effect1_dropShadow_1_123"/>
<feBlend mode="normal" in="SourceGraphic" in2="effect1_dropShadow_1_123" result="shape"/>
</filter>
</defs>
</svg>
