<svg width="122" height="118" viewBox="0 0 122 118" fill="none" xmlns="http://www.w3.org/2000/svg">
<g filter="url(#filter0_d_1_66)">
<path d="M54.2239 13.6976C58.0792 10.8965 63.2998 10.8965 67.1552 13.6976L101.478 38.6344C105.333 41.4354 106.946 46.4005 105.474 50.9327L92.3636 91.2813C90.891 95.8136 86.6675 98.8821 81.902 98.8821H39.477C34.7115 98.8821 30.488 95.8136 29.0154 91.2813L15.9053 50.9327C14.4327 46.4005 16.046 41.4354 19.9013 38.6344L54.2239 13.6976Z" fill="#9EB2D6"/>
<g clip-path="url(#clip0_1_66)">
<path d="M60.8197 33.6514C68.9605 33.6514 77.0165 33.6514 85.1573 33.6514C87.1077 33.6514 87.2773 33.8205 87.2773 35.6812C87.2773 51.2434 87.2773 66.8902 87.2773 82.4524C87.2773 82.7907 87.2773 83.129 87.2773 83.4673C87.1925 84.0593 86.8533 84.4822 86.1749 84.4822C85.8357 84.4822 85.5813 84.4822 85.2421 84.4822C80.1541 84.4822 74.9813 84.4822 69.8933 84.4822C66.9253 84.4822 63.9573 84.5668 61.0741 84.5668C52.6789 84.5668 44.2837 84.4822 35.8885 84.4822C34.7013 84.4822 34.3621 84.1439 34.3621 82.8752C34.2773 67.0593 34.2773 51.1588 34.2773 35.2583C34.2773 33.9897 34.6165 33.6514 36.0581 33.6514C44.2837 33.6514 52.5941 33.6514 60.8197 33.6514ZM85.1573 63.6762C85.0725 63.5917 84.9877 63.5917 84.9877 63.5071C84.4789 63.93 83.8853 64.3529 83.3765 64.7757C81.9349 65.9598 80.2389 66.4673 78.4581 65.7907C77.5253 65.4524 76.6773 64.8603 75.9141 64.2683C74.9813 63.5071 74.0485 63.1688 72.9461 63.3379C72.0133 63.4225 71.7589 63.7608 71.7589 64.6066C71.7589 65.6215 71.7589 66.5519 71.5893 67.5668C71.3349 69.0892 70.3173 69.8504 68.7909 69.8504C63.5333 69.8504 58.1909 69.8504 52.9333 69.8504C51.3221 69.8504 50.3045 69.0892 50.0501 67.4822C49.8805 66.6364 49.9653 65.7061 49.8805 64.8603C49.8805 63.6762 49.6261 63.5071 48.4389 63.3379C46.9973 63.2534 46.1493 64.0146 45.2165 64.7757C43.0965 66.6364 40.3829 66.6364 38.1781 64.7757C37.6693 64.3529 37.0757 63.93 36.4821 63.4225C36.4821 69.8504 36.4821 76.0245 36.4821 82.1986C52.7637 82.1986 68.9605 82.1986 85.1573 82.1986C85.1573 76.0245 85.1573 69.8504 85.1573 63.6762ZM57.5125 36.1041C57.5125 36.6116 57.4277 37.0345 57.4277 37.4573C57.4277 39.2335 57.4277 41.0096 57.4277 42.8703C57.4277 43.6315 57.2581 44.2235 56.5797 44.731C55.3077 45.6613 54.1205 46.7608 52.9333 47.7757C52.4245 48.1986 52.0853 48.7061 52.0853 49.4673C52.0853 55.0494 52.0853 60.716 52.0853 66.2981C52.0853 66.721 52.1701 67.2285 52.2549 67.6514C58.0213 67.6514 63.6181 67.6514 69.2997 67.6514C69.3845 67.1439 69.4693 66.6364 69.4693 66.2136C69.4693 60.6315 69.4693 54.9648 69.4693 49.3827C69.4693 48.7061 69.2149 48.2832 68.7061 47.8603C67.4341 46.8454 66.1621 45.7459 64.8901 44.731C64.2965 44.2235 64.0421 43.716 64.1269 42.9548C64.1269 41.0942 64.1269 39.2335 64.1269 37.3728C64.1269 36.9499 64.0421 36.6116 64.0421 36.1041C61.8373 36.1041 59.7173 36.1041 57.5125 36.1041ZM66.2469 35.9349C66.2469 38.2185 66.2469 40.4175 66.2469 42.532C66.2469 42.7857 66.5013 43.124 66.7557 43.3777C68.0277 44.4772 69.2997 45.5767 70.6565 46.5917C71.4197 47.1837 71.7589 47.8603 71.6741 48.8752C71.5893 49.8056 71.6741 50.8205 71.6741 51.7509C76.2533 51.7509 80.6629 51.7509 85.0725 51.7509C85.0725 46.4225 85.0725 41.2633 85.0725 35.9349C78.8821 35.9349 72.6069 35.9349 66.2469 35.9349ZM49.8805 51.7509C49.8805 50.7359 49.9653 49.8902 49.8805 49.0444C49.7957 47.9449 50.2197 47.0991 51.0677 46.4225C52.3397 45.4076 53.5269 44.3927 54.7141 43.3777C55.0533 43.124 55.2229 42.6165 55.2229 42.1937C55.3077 40.8404 55.2229 39.5718 55.2229 38.2185C55.2229 37.4573 55.2229 36.6961 55.2229 35.9349C48.8629 35.9349 42.6725 35.9349 36.3973 35.9349C36.3973 41.2633 36.3973 46.5071 36.3973 51.7509C40.8917 51.7509 45.3013 51.7509 49.8805 51.7509ZM71.7589 54.0345C71.7589 56.4872 71.7589 58.9399 71.7589 61.1389C73.0309 61.3081 74.2181 61.2235 75.3205 61.6464C76.1685 61.9001 77.0165 62.6613 77.6949 63.2534C78.9669 64.2683 80.2389 64.4374 81.4261 63.5917C82.6133 62.7459 83.8005 61.9001 85.0725 60.9698C85.0725 58.7708 85.0725 56.4872 85.0725 54.0345C80.6629 54.0345 76.2533 54.0345 71.7589 54.0345ZM49.7957 54.119C45.2165 54.119 40.8917 54.119 36.3973 54.119C36.3973 55.3877 36.3973 56.5718 36.3973 57.6713C36.3973 58.8553 36.3973 60.0394 36.3973 60.9698C37.4997 61.731 38.5173 62.323 39.3653 63.0842C40.9765 64.4374 42.2485 64.4374 43.8597 63.0842C44.9621 62.1539 46.0645 61.2235 47.5909 61.2235C48.2693 61.2235 48.9477 61.3081 49.7109 61.3081C49.7957 58.9399 49.7957 56.5718 49.7957 54.119Z" fill="white"/>
<path d="M57.6823 60.8852C57.6823 61.8156 57.6823 62.7459 57.6823 63.6762C57.6823 64.4374 57.1735 65.0295 56.5799 64.9449C55.8167 64.9449 55.4775 64.4374 55.4775 63.7608C55.4775 61.8155 55.4775 59.9549 55.4775 58.0096C55.4775 57.1638 55.9015 56.7409 56.5799 56.7409C57.2583 56.7409 57.5975 57.2484 57.6823 58.0942C57.6823 59.0245 57.6823 59.9549 57.6823 60.8852Z" fill="white"/>
<path d="M66.0778 60.8006C66.0778 61.8155 66.0778 62.7459 66.0778 63.7608C66.0778 64.4374 65.8234 64.9449 65.0602 65.0295C64.4666 65.1141 63.9578 64.522 63.873 63.7608C63.873 61.8155 63.873 59.9549 63.873 58.0096C63.873 57.2484 64.3818 56.7409 65.0602 56.7409C65.8234 56.7409 66.0778 57.333 66.0778 58.0096C66.0778 58.9399 66.0778 59.8703 66.0778 60.8006Z" fill="white"/>
<path d="M61.8378 60.9698C61.8378 61.9001 61.8378 62.8305 61.8378 63.8454C61.8378 64.522 61.4986 65.0295 60.7354 65.0295C59.9722 65.0295 59.7178 64.522 59.7178 63.7608C59.7178 61.8155 59.7178 59.8703 59.7178 58.0096C59.7178 57.333 59.8874 56.8255 60.7354 56.7409C61.4138 56.7409 61.753 57.0792 61.8378 58.0096C61.8378 58.9399 61.8378 59.9549 61.8378 60.9698Z" fill="white"/>
<path d="M79.8148 42.7857C78.7972 42.7857 77.9492 41.8553 77.9492 40.925C77.9492 39.9946 78.9668 39.0643 79.8148 39.0643C80.8324 39.0643 81.6804 39.9946 81.6804 41.0096C81.6804 42.1091 80.9172 42.7857 79.8148 42.7857Z" fill="white"/>
<path d="M78.9667 46.7608C78.9667 47.6066 78.2883 48.2832 77.4403 48.2832C76.5075 48.2832 75.8291 47.6912 75.8291 46.8454C75.8291 45.9996 76.5923 45.1539 77.3555 45.1539C78.1187 45.1539 78.8819 45.915 78.9667 46.7608Z" fill="white"/>
<path d="M72.3522 42.7857C71.589 42.7857 71.165 42.3628 71.165 41.6016C71.165 40.8404 71.6738 40.2484 72.3522 40.2484C73.0306 40.2484 73.6242 40.925 73.6242 41.6016C73.5394 42.2782 73.0306 42.7857 72.3522 42.7857Z" fill="white"/>
<path d="M41.6547 42.7857C40.5523 42.7857 39.7891 42.0245 39.7891 41.0096C39.7891 39.9947 40.6371 39.1489 41.6547 39.1489C42.5875 39.1489 43.6051 40.1638 43.6051 41.0942C43.6051 42.0245 42.7571 42.7857 41.6547 42.7857Z" fill="white"/>
<path d="M45.7255 46.8454C45.7255 47.6912 45.0471 48.3678 44.1143 48.2832C43.2663 48.2832 42.5879 47.6066 42.5879 46.7608C42.5879 45.915 43.3511 45.1539 44.1143 45.1539C44.9623 45.2384 45.8103 45.9996 45.7255 46.8454Z" fill="white"/>
<path d="M50.4738 41.6016C50.4738 42.3628 50.0498 42.7857 49.2866 42.7857C48.5234 42.7857 48.0146 42.1937 48.0146 41.517C48.0146 40.925 48.693 40.333 49.2866 40.333C49.965 40.333 50.4738 40.925 50.4738 41.6016Z" fill="white"/>
<rect x="40.5215" y="73.0349" width="5.30014" height="2.07282" rx="1.03641" fill="white"/>
<rect x="58.1758" y="73.0349" width="5.30014" height="2.07282" rx="1.03641" fill="white"/>
<rect x="49.2344" y="77.496" width="5.30014" height="2.07282" rx="1.03641" fill="white"/>
<rect x="66.9043" y="77.496" width="5.30014" height="2.07282" rx="1.03641" fill="white"/>
<rect x="75.8301" y="73.0349" width="5.30014" height="2.07282" rx="1.03641" fill="white"/>
</g>
</g>
<defs>
<filter id="filter0_d_1_66" x="0.366211" y="0.596741" width="120.646" height="117.285" filterUnits="userSpaceOnUse" color-interpolation-filters="sRGB">
<feFlood flood-opacity="0" result="BackgroundImageFix"/>
<feColorMatrix in="SourceAlpha" type="matrix" values="0 0 0 0 0 0 0 0 0 0 0 0 0 0 0 0 0 0 127 0" result="hardAlpha"/>
<feOffset dy="4"/>
<feGaussianBlur stdDeviation="7.5"/>
<feColorMatrix type="matrix" values="0 0 0 0 0.619608 0 0 0 0 0.698039 0 0 0 0 0.839216 0 0 0 0.46 0"/>
<feBlend mode="normal" in2="BackgroundImageFix" result="effect1_dropShadow_1_66"/>
<feBlend mode="normal" in="SourceGraphic" in2="effect1_dropShadow_1_66" result="shape"/>
</filter>
<clipPath id="clip0_1_66">
<rect width="53" height="51" fill="white" transform="translate(34.2773 33.6514)"/>
</clipPath>
</defs>
</svg>
