<svg width="122" height="118" viewBox="0 0 122 118" fill="none" xmlns="http://www.w3.org/2000/svg">
<g filter="url(#filter0_d_1_107)">
<path d="M54.3997 13.6976C58.255 10.8965 63.4756 10.8965 67.3309 13.6976L101.653 38.6344C105.509 41.4354 107.122 46.4005 105.649 50.9327L92.5394 91.2813C91.0668 95.8136 86.8433 98.8821 82.0778 98.8821H39.6528C34.8873 98.8821 30.6638 95.8136 29.1912 91.2813L16.0811 50.9327C14.6085 46.4005 16.2217 41.4354 20.0771 38.6344L54.3997 13.6976Z" fill="#B69E89"/>
<g clip-path="url(#clip0_1_107)">
<path d="M50.8105 53.9482C50.8105 50.8524 50.8105 47.838 50.8105 44.6607C49.9945 44.6607 49.2601 44.6607 48.5257 44.6607C47.1385 44.6607 46.7305 43.9275 47.4649 42.7054C48.9337 40.0984 50.4841 37.4914 51.9529 34.8029C52.3609 33.9067 53.0137 33.4993 54.1561 33.4993C59.2153 33.5808 64.1929 33.5808 69.2521 33.4993C70.3129 33.4993 70.9657 33.8252 71.5369 34.8029C73.0057 37.5728 74.6377 40.2613 76.1065 42.9498C76.6777 43.9275 76.2697 44.6607 75.2089 44.6607C74.3929 44.7422 73.5769 44.6607 72.6793 44.6607C72.6793 47.7565 72.6793 50.7709 72.6793 53.8668C73.0873 53.8668 73.4953 53.9482 73.8217 53.9482C77.7385 53.9482 81.5737 53.9482 85.4905 53.9482C86.9593 53.9482 87.2041 54.1926 87.2041 55.6591C87.2041 64.7022 87.2041 73.7454 87.2041 82.707C87.2041 84.1735 86.9593 84.4179 85.4089 84.4179C69.5785 84.4179 53.7481 84.4179 37.9177 84.4179C36.4489 84.4179 36.2041 84.1735 36.2041 82.707C36.2041 73.6639 36.2041 64.6208 36.2041 55.6591C36.2041 54.1926 36.4489 53.9482 37.9177 53.9482C41.8345 53.9482 45.7513 53.9482 49.6681 53.9482C49.9945 53.9482 50.3209 53.9482 50.8105 53.9482ZM62.7241 63.3172C65.5801 63.3172 68.1097 63.3172 70.7209 63.3172C72.4345 63.3172 74.1481 63.3172 75.9433 63.3172C78.3097 63.3172 80.3497 64.9466 80.5945 67.2278C80.8393 69.346 80.7577 71.5457 80.7577 73.7454C80.7577 76.8412 78.6361 78.8779 75.5353 78.8779C69.9049 78.8779 64.2745 78.8779 58.5625 78.8779C54.9721 78.8779 51.3001 78.8779 47.7097 78.8779C45.7513 78.8779 43.0585 77.2485 42.8953 74.8859C42.7321 72.7677 42.7321 70.568 42.7321 68.4498C42.7321 65.354 44.7721 63.2358 47.9545 63.2358C51.3817 63.2358 54.8905 63.2358 58.3177 63.2358C59.0521 63.2358 59.7049 63.2358 60.5209 63.2358C60.5209 60.7102 60.5209 58.4291 60.5209 56.0664C53.1769 56.0664 45.7513 56.0664 38.3257 56.0664C38.3257 64.8652 38.3257 73.5824 38.3257 82.2997C53.9929 82.2997 69.5785 82.2997 85.1641 82.2997C85.1641 73.5009 85.1641 64.7837 85.1641 56.0664C77.6569 56.0664 70.3129 56.0664 62.8057 56.0664C62.7241 58.5105 62.7241 60.7917 62.7241 63.3172ZM61.6633 65.354C57.0121 65.354 52.3609 65.354 47.7913 65.354C45.8329 65.354 44.6905 66.4946 44.6905 68.4498C44.6905 70.1607 44.6905 71.8716 44.6905 73.6639C44.6905 75.5377 45.9145 76.8412 47.7913 76.8412C57.0937 76.8412 66.3145 76.8412 75.6169 76.8412C77.4937 76.8412 78.7177 75.6192 78.7177 73.6639C78.7177 71.953 78.7177 70.2422 78.7177 68.6128C78.7177 66.576 77.5753 65.4354 75.5353 65.4354C70.8841 65.354 66.3145 65.354 61.6633 65.354ZM53.9113 35.5361C52.6057 37.8172 51.3001 40.0984 49.9129 42.461C57.8281 42.461 65.5801 42.461 73.4953 42.461C72.1897 40.2613 71.0473 38.0616 69.8233 36.0249C69.6601 35.7805 69.1705 35.6176 68.8441 35.5361C67.3753 35.4546 65.9065 35.5361 64.4377 35.5361C60.9289 35.5361 57.4201 35.5361 53.9113 35.5361ZM70.4761 44.7422C64.6009 44.7422 58.8889 44.7422 53.0137 44.7422C53.0137 47.838 53.0137 50.8524 53.0137 53.8668C54.4825 53.8668 55.7881 53.8668 57.0937 53.8668C57.1753 53.7038 57.1753 53.6223 57.1753 53.4594C57.1753 52.4003 57.1753 51.3412 57.1753 50.2006C57.1753 48.3268 57.2569 48.3268 59.0521 48.3268C60.6841 48.3268 62.2345 48.3268 63.8665 48.3268C66.0697 48.3268 66.0697 48.3268 66.0697 50.5265C66.0697 51.5856 66.0697 52.7262 66.0697 53.8668C67.6201 53.8668 68.9257 53.8668 70.3945 53.8668C70.4761 50.8524 70.4761 47.838 70.4761 44.7422ZM64.0297 50.3636C62.3977 50.3636 60.9289 50.2006 59.4601 50.445C59.4601 51.7485 59.4601 52.8077 59.4601 53.8668C61.0105 53.8668 62.4793 53.8668 64.0297 53.8668C64.0297 52.7262 64.0297 51.6671 64.0297 50.3636Z" fill="white"/>
<rect x="49.4473" y="68.0886" width="4.3014" height="2.07211" rx="1.03606" fill="white"/>
<rect x="59.4678" y="68.0886" width="4.3014" height="2.07211" rx="1.03606" fill="white"/>
<rect x="54.4248" y="72.0353" width="4.3014" height="2.07211" rx="1.03606" fill="white"/>
<rect x="64.6758" y="72.0353" width="4.3014" height="2.07211" rx="1.03606" fill="white"/>
<rect x="69.4883" y="68.0886" width="4.3014" height="2.07211" rx="1.03606" fill="white"/>
</g>
</g>
<defs>
<filter id="filter0_d_1_107" x="0.541992" y="0.596741" width="120.646" height="117.285" filterUnits="userSpaceOnUse" color-interpolation-filters="sRGB">
<feFlood flood-opacity="0" result="BackgroundImageFix"/>
<feColorMatrix in="SourceAlpha" type="matrix" values="0 0 0 0 0 0 0 0 0 0 0 0 0 0 0 0 0 0 127 0" result="hardAlpha"/>
<feOffset dy="4"/>
<feGaussianBlur stdDeviation="7.5"/>
<feColorMatrix type="matrix" values="0 0 0 0 0.713726 0 0 0 0 0.619608 0 0 0 0 0.537255 0 0 0 0.46 0"/>
<feBlend mode="normal" in2="BackgroundImageFix" result="effect1_dropShadow_1_107"/>
<feBlend mode="normal" in="SourceGraphic" in2="effect1_dropShadow_1_107" result="shape"/>
</filter>
<clipPath id="clip0_1_107">
<rect width="51" height="51" fill="white" transform="translate(36.2041 33.4993)"/>
</clipPath>
</defs>
</svg>
