<svg width="122" height="118" viewBox="0 0 122 118" fill="none" xmlns="http://www.w3.org/2000/svg">
<g filter="url(#filter0_d_1_13)">
<path d="M54.6253 13.6976C58.4806 10.8965 63.7012 10.8965 67.5565 13.6976L101.879 38.6344C105.734 41.4354 107.348 46.4005 105.875 50.9327L92.765 91.2813C91.2924 95.8136 87.0689 98.8821 82.3034 98.8821H39.8784C35.1129 98.8821 30.8894 95.8136 29.4168 91.2813L16.3067 50.9327C14.8341 46.4005 16.4473 41.4354 20.3027 38.6344L54.6253 13.6976Z" fill="#95DFF7"/>
<g clip-path="url(#clip0_1_13)">
<path d="M49.5309 53.7791C48.9383 52.4543 48.261 51.2951 47.8376 50.053C47.4143 48.811 47.245 47.569 46.991 46.1613C46.6523 46.1613 46.229 46.0785 45.8057 46.0785C42.6731 46.0785 39.5405 46.0785 36.3233 46.0785C34.9686 46.0785 34.4606 45.7473 34.376 45.0849C34.376 44.4225 34.9686 44.0912 36.2386 44.0912C39.4558 44.0912 42.7578 44.0912 45.975 44.0912C46.3137 44.0912 46.737 44.0912 47.1603 44.0912C47.4143 43.2632 47.5836 42.4352 47.8376 41.4416C47.3296 41.4416 46.9063 41.3588 46.5677 41.3588C43.1811 41.3588 39.7098 41.3588 36.3233 41.3588C35.8999 41.3588 35.392 41.3588 35.0533 41.1932C34.7146 41.0276 34.376 40.5307 34.4606 40.1995C34.4606 39.8683 34.9686 39.5371 35.3073 39.3715C35.5613 39.2059 35.8999 39.2887 36.2386 39.2887C40.2178 39.2887 44.1971 39.2887 48.0916 39.2887C48.7689 39.2887 49.1076 39.0403 49.5309 38.5435C52.6635 34.1549 56.9814 32.1677 62.3999 32.6645C66.6332 33.0785 69.8504 35.0658 72.3057 38.4607C72.475 38.7091 72.6443 38.9575 72.8983 39.2059C74.0836 39.2059 75.4383 39.2059 76.7082 39.2059C79.6715 39.2059 82.6348 39.2059 85.6827 39.2059C86.0213 39.2059 86.36 39.1231 86.614 39.2887C86.9527 39.4543 87.376 39.8683 87.376 40.1167C87.376 40.4479 87.0373 40.8619 86.7833 41.1104C86.4447 41.276 85.9367 41.276 85.5134 41.276C82.1268 41.276 78.8249 41.276 75.4383 41.276C75.015 41.276 74.5916 41.3588 73.999 41.3588C74.253 42.2696 74.507 43.0976 74.6763 44.0084C75.5229 44.0084 76.2003 44.0084 76.9622 44.0084C79.8408 44.0084 82.8041 44.0084 85.6827 44.0084C86.0213 44.0084 86.4447 43.9256 86.6987 44.0912C87.0373 44.2569 87.376 44.5881 87.376 44.9193C87.376 45.2505 87.0373 45.7473 86.7833 45.9129C86.4447 46.0785 86.0213 46.0785 85.598 46.0785C82.3808 46.0785 79.2482 46.0785 76.0309 46.0785C75.6076 46.0785 75.1843 46.1613 74.6763 46.1613C74.6763 48.8938 73.745 51.3779 72.221 53.6963C72.729 53.6963 73.1523 53.7791 73.491 53.7791C77.5549 53.7791 81.5341 53.7791 85.598 53.7791C87.2913 53.7791 87.4606 53.9447 87.4606 55.6008C87.4606 64.5435 87.4606 73.4033 87.4606 82.346C87.4606 84.3333 87.376 84.4161 85.344 84.4161C71.459 84.4161 57.6587 84.4161 43.7737 84.4161C41.3185 84.4161 38.8632 84.4989 36.4926 84.4989C34.7993 84.4989 34.4606 84.1677 34.4606 82.5116C34.4606 73.7346 34.4606 64.8747 34.4606 56.0976C34.4606 53.7791 34.5453 53.6963 36.8312 53.6963C40.6412 53.6963 44.4511 53.6963 48.3456 53.6963C48.5996 53.7791 49.0229 53.7791 49.5309 53.7791ZM59.606 59.4097C59.606 59.9065 59.5213 60.2377 59.5213 60.6518C59.5213 62.3906 59.5213 64.1295 59.5213 65.7855C59.5213 66.4479 59.352 67.0276 58.59 67.276C57.0661 67.7728 55.6268 68.3524 54.1875 68.932C53.0022 69.4288 51.9015 69.4288 50.7162 68.932C48.8536 68.1868 46.991 67.4416 45.1284 66.7791C44.6204 66.6135 43.9431 66.4479 43.5197 66.5307C41.2338 67.276 38.9479 68.1868 36.6619 69.0148C36.6619 73.4033 36.6619 77.7091 36.6619 82.0148C52.8328 82.0148 69.0038 82.0148 85.09 82.0148C85.09 77.6263 85.09 73.3205 85.09 69.0148C82.9734 68.1868 80.8568 67.4416 78.8249 66.6135C78.1475 66.5307 77.3856 66.5307 76.7082 66.8619C74.507 67.69 72.3904 68.518 70.1891 69.346C69.6811 69.5116 69.0038 69.5116 68.5805 69.346C66.8025 68.7664 65.0245 68.0212 63.2466 67.4416C62.6539 67.1932 62.3153 66.8619 62.3153 66.1995C62.3153 64.7091 62.3153 63.3014 62.3153 61.811C62.3153 61.0658 62.3153 60.3205 62.3153 59.4925C61.384 59.4097 60.5373 59.4097 59.606 59.4097ZM60.876 57.2569C67.1412 57.4225 72.5597 52.2059 72.475 45.9957C72.475 39.7855 67.3951 34.6518 60.876 34.6518C54.4415 34.6518 49.3616 39.6199 49.2769 45.9957C49.2769 52.2059 54.6955 57.4225 60.876 57.2569ZM57.4047 59.0785C57.0661 58.9129 56.7274 58.8301 56.3888 58.6645C55.0341 57.9193 53.6795 57.174 52.3249 56.5116C51.9015 56.2632 51.3935 56.0148 50.8856 56.0148C46.483 56.0148 42.0804 56.0148 37.6779 56.0148C37.3392 56.0148 37.0006 56.0976 36.6619 56.0976C36.6619 59.7409 36.6619 63.3014 36.6619 66.9447C37.0006 66.8619 37.3392 66.8619 37.5932 66.7791C39.3712 66.1167 41.1491 65.3715 43.0118 64.7919C43.6044 64.6263 44.2817 64.5435 44.8744 64.7091C46.737 65.2887 48.515 66.1167 50.3776 66.7791C51.2242 67.1104 52.1555 67.6072 52.8328 67.4416C54.4415 67.0275 55.9654 66.2823 57.4894 65.7027C57.4047 63.3014 57.4047 61.2314 57.4047 59.0785ZM85.09 56.0148C84.836 55.932 84.6667 55.932 84.582 55.932C80.0102 55.8492 75.4383 55.8492 70.8664 55.8492C70.5277 55.8492 70.1044 55.932 69.8504 56.1804C68.4958 57.3397 66.8872 58.1677 65.1939 58.7473C64.6012 58.9129 64.4319 59.2441 64.4319 59.8237C64.4319 61.4798 64.4319 63.053 64.4319 64.7091C64.4319 65.3715 64.6859 65.7027 65.2785 65.8683C66.4638 66.2823 67.6491 66.7791 68.8344 67.1932C69.1731 67.276 69.5964 67.276 69.9351 67.1932C72.221 66.3651 74.507 65.4543 76.8776 64.6263C77.4702 64.4607 78.2322 64.3779 78.8249 64.5435C80.1795 64.9575 81.3648 65.5371 82.7194 66.0339C83.4814 66.3651 84.3281 66.6135 85.2594 66.8619C85.09 63.1358 85.09 59.6581 85.09 56.0148Z" fill="white"/>
<path d="M52.8326 79.8613C52.3246 79.8613 51.732 79.8613 51.224 79.8613C50.5467 79.7785 50.208 79.4473 50.208 78.7849C50.208 78.1225 50.6313 77.7912 51.224 77.7912C52.3246 77.7084 53.4253 77.7084 54.4412 77.7912C55.0339 77.7912 55.4572 78.2053 55.4572 78.7849C55.4572 79.4473 55.0339 79.7785 54.3566 79.8613C53.8486 79.8613 53.3406 79.8613 52.8326 79.8613Z" fill="white"/>
<path d="M60.8756 75.4728C60.3676 75.4728 59.8596 75.4728 59.3517 75.4728C58.759 75.4728 58.3357 75.1416 58.251 74.562C58.1664 73.9823 58.5897 73.4855 59.1823 73.4855C60.3676 73.4027 61.5529 73.4027 62.7382 73.4855C63.3309 73.4855 63.7542 73.9823 63.6695 74.562C63.5849 75.2244 63.1616 75.4728 62.5689 75.4728C61.9763 75.4728 61.3836 75.4728 60.8756 75.4728Z" fill="white"/>
<path d="M77.2164 75.4728C76.7084 75.4728 76.1158 75.4728 75.6078 75.4728C75.0151 75.4728 74.5918 75.1416 74.5918 74.4791C74.5918 73.8167 74.9305 73.4027 75.5231 73.4027C76.6237 73.3199 77.7244 73.3199 78.825 73.4027C79.4177 73.4027 79.9257 73.8995 79.841 74.5619C79.7563 75.1416 79.333 75.4728 78.7404 75.4728C78.2324 75.4728 77.7244 75.4728 77.2164 75.4728Z" fill="white"/>
<path d="M44.6207 75.4728C44.1127 75.4728 43.6047 75.4728 43.0967 75.4728C42.5041 75.4728 42.0808 75.1416 41.9961 74.5619C41.9114 73.8995 42.3347 73.4855 43.0121 73.4027C44.1127 73.3199 45.2133 73.3199 46.314 73.4027C46.9066 73.4027 47.33 73.8995 47.2453 74.4791C47.2453 75.0588 46.822 75.4728 46.2293 75.4728C45.7213 75.4728 45.2133 75.4728 44.6207 75.4728Z" fill="white"/>
<path d="M69.0035 79.8613C68.4955 79.8613 68.0722 79.8613 67.5642 79.8613C66.8022 79.8613 66.3789 79.4473 66.3789 78.7849C66.3789 78.1225 66.8022 77.7912 67.4795 77.7912C68.4955 77.7912 69.5115 77.7912 70.5275 77.7912C71.2048 77.7912 71.6281 78.1225 71.6281 78.7849C71.7128 79.4473 71.2048 79.8613 70.4428 79.8613C70.0195 79.8613 69.5115 79.8613 69.0035 79.8613Z" fill="white"/>
<path d="M60.8762 54.1925C57.2356 54.1925 54.2723 51.2116 54.6956 47.7339C54.865 46.3263 55.5423 44.9186 56.3043 43.7594C57.4049 42.0205 58.6749 40.3645 59.9448 38.7912C60.5375 37.9632 61.1302 37.9632 61.8075 38.7084C63.7548 41.0269 65.448 43.511 66.8027 46.3263C68.242 49.4728 65.3634 54.3581 60.8762 54.1925ZM61.0455 41.1097C60.8762 41.1097 60.7915 41.0269 60.6222 41.0269C59.5215 42.8486 58.3362 44.6702 57.3202 46.4919C56.5583 47.7339 56.7276 49.0588 57.4896 50.3008C58.5056 51.9569 60.6222 52.5365 62.5694 51.7912C64.2627 51.1288 65.3634 49.1416 64.8554 47.4027C64.1781 45.0014 62.4848 43.097 61.0455 41.1097Z" fill="white"/>
</g>
</g>
<defs>
<filter id="filter0_d_1_13" x="0.767578" y="0.596741" width="120.646" height="117.285" filterUnits="userSpaceOnUse" color-interpolation-filters="sRGB">
<feFlood flood-opacity="0" result="BackgroundImageFix"/>
<feColorMatrix in="SourceAlpha" type="matrix" values="0 0 0 0 0 0 0 0 0 0 0 0 0 0 0 0 0 0 127 0" result="hardAlpha"/>
<feOffset dy="4"/>
<feGaussianBlur stdDeviation="7.5"/>
<feColorMatrix type="matrix" values="0 0 0 0 0.284722 0 0 0 0 0.800417 0 0 0 0 0.833333 0 0 0 0.46 0"/>
<feBlend mode="normal" in2="BackgroundImageFix" result="effect1_dropShadow_1_13"/>
<feBlend mode="normal" in="SourceGraphic" in2="effect1_dropShadow_1_13" result="shape"/>
</filter>
<clipPath id="clip0_1_13">
<rect width="53" height="52" fill="white" transform="translate(34.376 32.5811)"/>
</clipPath>
</defs>
</svg>
