<svg width="25" height="25" viewBox="0 0 25 25" fill="none" xmlns="http://www.w3.org/2000/svg">
<rect x="0.634766" y="0.619751" width="24" height="24" rx="4" fill="#0077FF"/>
<path d="M13.2247 16.8198C8.71473 16.8198 6.14234 13.6666 6.03516 8.4198H8.29424C8.36845 12.2709 10.0339 13.9021 11.3531 14.2384V8.4198H13.4803V11.7411C14.7829 11.5982 16.1516 10.0847 16.6133 8.4198H18.7405C18.5665 9.28325 18.2197 10.1008 17.7217 10.8213C17.2238 11.5418 16.5854 12.1498 15.8465 12.6072C16.6713 13.0251 17.3997 13.6167 17.9839 14.3428C18.568 15.069 18.9945 15.9132 19.2352 16.8198H16.8936C16.6775 16.0324 16.2384 15.3275 15.6312 14.7935C15.024 14.2595 14.2758 13.9202 13.4803 13.818V16.8198H13.2247Z" fill="white"/>
</svg>
