<svg width="25" height="25" viewBox="0 0 25 25" fill="none" xmlns="http://www.w3.org/2000/svg">
<rect x="0.634766" y="0.619751" width="24" height="24" rx="4" fill="#F40000"/>
<path fill-rule="evenodd" clip-rule="evenodd" d="M7.39265 16.8538C7.15729 16.7842 6.94255 16.6603 6.76653 16.4927C6.59052 16.325 6.4584 16.1185 6.38132 15.8905C5.94091 14.7122 5.81042 9.79191 6.65862 8.82059C6.94092 8.50462 7.33949 8.31008 7.76782 8.27921C10.0433 8.04036 17.0736 8.07221 17.8811 8.35882C18.1082 8.43074 18.3157 8.5519 18.488 8.71322C18.6603 8.87454 18.793 9.07184 18.8761 9.29033C19.3573 10.5085 19.3736 14.9351 18.8108 16.1055C18.6616 16.4101 18.4116 16.6569 18.1013 16.8061C17.2531 17.2201 8.51816 17.2121 7.39265 16.8538ZM11.0057 14.545L15.0836 12.475L11.0057 10.389V14.545Z" fill="white"/>
</svg>
