<svg width="25" height="25" viewBox="0 0 25 25" fill="none" xmlns="http://www.w3.org/2000/svg">
<rect x="0.634766" y="0.619751" width="24" height="24" rx="4" fill="url(#paint0_radial_829_1321)"/>
<path d="M12.6348 7.70409C14.2251 7.70409 14.442 7.70409 15.0926 7.70409C15.6709 7.70409 15.9601 7.84867 16.1769 7.92096C16.4661 8.06553 16.683 8.13782 16.8998 8.35469C17.1167 8.57156 17.2613 8.78843 17.3336 9.07758C17.4059 9.29445 17.4781 9.58361 17.5504 10.1619C17.5504 10.8125 17.5504 10.9571 17.5504 12.6198C17.5504 14.2824 17.5504 14.427 17.5504 15.0776C17.5504 15.6559 17.4059 15.9451 17.3336 16.1619C17.189 16.4511 17.1167 16.6679 16.8998 16.8848C16.683 17.1017 16.4661 17.2463 16.1769 17.3185C15.9601 17.3908 15.6709 17.4631 15.0926 17.5354C14.442 17.5354 14.2974 17.5354 12.6348 17.5354C10.9721 17.5354 10.8275 17.5354 10.1769 17.5354C9.59862 17.5354 9.30946 17.3908 9.0926 17.3185C8.80344 17.174 8.58657 17.1017 8.36971 16.8848C8.15284 16.6679 8.00826 16.4511 7.93597 16.1619C7.86368 15.9451 7.79139 15.6559 7.7191 15.0776C7.7191 14.427 7.7191 14.2824 7.7191 12.6198C7.7191 10.9571 7.7191 10.8125 7.7191 10.1619C7.7191 9.58361 7.86368 9.29445 7.93597 9.07758C8.08055 8.78843 8.15284 8.57156 8.36971 8.35469C8.58657 8.13782 8.80344 7.99325 9.0926 7.92096C9.30946 7.84867 9.59862 7.77638 10.1769 7.70409C10.8275 7.70409 11.0444 7.70409 12.6348 7.70409ZM12.6348 6.61975C10.9721 6.61975 10.8275 6.61975 10.1769 6.61975C9.52633 6.61975 9.0926 6.76433 8.73115 6.90891C8.36971 7.05349 8.00826 7.27035 7.64681 7.6318C7.28537 7.99325 7.14079 8.2824 6.92392 8.71614C6.77934 9.07758 6.70705 9.51132 6.63477 10.1619C6.63477 10.8125 6.63477 11.0294 6.63477 12.6198C6.63477 14.2824 6.63477 14.427 6.63477 15.0776C6.63477 15.7282 6.77934 16.1619 6.92392 16.5234C7.0685 16.8848 7.28537 17.2463 7.64681 17.6077C8.00826 17.9691 8.29742 18.1137 8.73115 18.3306C9.0926 18.4752 9.52633 18.5475 10.1769 18.6198C10.8275 18.6198 11.0444 18.6198 12.6348 18.6198C14.2251 18.6198 14.442 18.6198 15.0926 18.6198C15.7432 18.6198 16.1769 18.4752 16.5384 18.3306C16.8998 18.186 17.2613 17.9691 17.6227 17.6077C17.9842 17.2463 18.1287 16.9571 18.3456 16.5234C18.4902 16.1619 18.5625 15.7282 18.6348 15.0776C18.6348 14.427 18.6348 14.2101 18.6348 12.6198C18.6348 11.0294 18.6348 10.8125 18.6348 10.1619C18.6348 9.51132 18.4902 9.07758 18.3456 8.71614C18.201 8.35469 17.9842 7.99325 17.6227 7.6318C17.2613 7.27035 16.9721 7.12578 16.5384 6.90891C16.1769 6.76433 15.7432 6.69204 15.0926 6.61975C14.442 6.61975 14.2974 6.61975 12.6348 6.61975Z" fill="white"/>
<path d="M12.6348 9.51132C10.8998 9.51132 9.52633 10.8848 9.52633 12.6198C9.52633 14.3547 10.8998 15.7282 12.6348 15.7282C14.3697 15.7282 15.7432 14.3547 15.7432 12.6198C15.7432 10.8848 14.3697 9.51132 12.6348 9.51132ZM12.6348 14.6438C11.5504 14.6438 10.6107 13.7764 10.6107 12.6198C10.6107 11.5354 11.4781 10.5957 12.6348 10.5957C13.7191 10.5957 14.6589 11.4631 14.6589 12.6198C14.6589 13.7041 13.7191 14.6438 12.6348 14.6438Z" fill="white"/>
<path d="M15.8155 10.1619C16.2147 10.1619 16.5384 9.83827 16.5384 9.43903C16.5384 9.03979 16.2147 8.71614 15.8155 8.71614C15.4162 8.71614 15.0926 9.03979 15.0926 9.43903C15.0926 9.83827 15.4162 10.1619 15.8155 10.1619Z" fill="white"/>
<defs>
<radialGradient id="paint0_radial_829_1321" cx="0" cy="0" r="1" gradientUnits="userSpaceOnUse" gradientTransform="translate(25.1176 1.10725) scale(55.4231)">
<stop stop-color="#F9ED32"/>
<stop offset="0.36" stop-color="#EE2A7B"/>
<stop offset="0.44" stop-color="#D22A8A"/>
<stop offset="0.6" stop-color="#8B2AB2"/>
<stop offset="0.83" stop-color="#1B2AF0"/>
<stop offset="0.88" stop-color="#002AFF"/>
</radialGradient>
</defs>
</svg>
