<svg width="49" height="51" viewBox="0 0 49 51" fill="none" xmlns="http://www.w3.org/2000/svg">
<g clip-path="url(#clip0_819_13830)">
<path d="M9.11611 35.8278V44.3963L17.6161 42.2794L24.0161 48.731L30.4161 42.2794L38.9161 44.3963V35.8278L47.5161 33.61L43.2161 25.0415L47.5161 16.4729L38.9161 14.2552V5.68664L30.4161 7.80357L24.0161 1.35196L17.6161 7.80357L9.11611 5.68664V14.2552L0.516113 16.4729L4.81611 25.0415L0.516113 33.61L9.11611 35.8278ZM8.61611 23.1262L6.71611 19.1947L10.1161 18.3882C11.1161 18.1866 11.8994 17.6994 12.4661 16.9266C13.0328 16.1537 13.3161 15.2632 13.3161 14.2552V11.231L16.5161 12.1382H17.6161C18.7494 12.1382 19.7494 11.7014 20.6161 10.8278L24.0161 7.40035L27.4161 10.8278C28.2828 11.7014 29.2828 12.1382 30.4161 12.1382C30.8161 12.1382 31.1828 12.071 31.5161 11.9366L34.7161 11.231V14.2552C34.7161 15.2632 34.9994 16.1537 35.5661 16.9266C36.1328 17.6994 36.9161 18.1866 37.9161 18.3882L41.3161 19.1947L39.4161 23.1262C38.7494 24.403 38.7494 25.6799 39.4161 26.9568L41.3161 30.8882L37.9161 31.6947C36.9161 31.8963 36.1328 32.3835 35.5661 33.1564C34.9994 33.9292 34.7161 34.8197 34.7161 35.8278V38.852L31.5161 37.9447H30.4161C29.2828 37.9447 28.2828 38.3815 27.4161 39.2552L24.0161 42.6826L20.6161 39.2552C19.7494 38.3815 18.7494 37.9447 17.6161 37.9447C17.2161 37.9447 16.8494 38.0119 16.5161 38.1463L13.3161 38.852V35.8278C13.3161 34.8197 13.0328 33.9292 12.4661 33.1564C11.8994 32.3835 11.1161 31.8963 10.1161 31.6947L6.71611 30.8882L8.61611 26.9568C9.28278 25.6799 9.28278 24.403 8.61611 23.1262ZM21.9161 32.4003L31.9161 22.2189C32.8494 21.278 32.8494 20.27 31.9161 19.1947C30.9161 18.321 29.9161 18.321 28.9161 19.1947L21.9161 26.352L19.1161 23.5294C18.1161 22.6557 17.1161 22.6557 16.1161 23.5294C15.2494 24.5374 15.2494 25.5455 16.1161 26.5536L21.9161 32.4003Z" fill="#009846"/>
</g>
<defs>
<clipPath id="clip0_819_13830">
<rect width="48" height="50" fill="white" transform="translate(0.015625 0.8479)"/>
</clipPath>
</defs>
</svg>
