<svg width="37" height="37" viewBox="0 0 37 37" fill="none" xmlns="http://www.w3.org/2000/svg">
<path d="M27.0101 36.8479L21.7393 30.8479L23.9626 28.5279L27.0101 31.7079L33.8909 24.5279L36.1143 27.3479L27.0101 36.8479ZM18.9601 36.8479H4.01009C1.88259 36.8479 0.176758 35.0679 0.176758 32.8479V4.8479C0.176758 2.6279 1.88259 0.8479 4.01009 0.8479H30.8434C32.9709 0.8479 34.6768 2.6279 34.6768 4.8479V20.4479C33.5076 19.7479 32.2234 19.2479 30.8434 19.0079V4.8479H4.01009V32.8479H17.5801C17.8101 34.2879 18.2893 35.6279 18.9601 36.8479ZM17.4268 28.8479H7.84342V24.8479H17.4268V28.8479ZM22.5634 20.8479H7.84342V16.8479H27.0101V19.0079C25.3809 19.2879 23.8859 19.9279 22.5634 20.8479ZM27.0101 12.8479H7.84342V8.8479H27.0101" fill="#009846"/>
</svg>
